<svg width="24" height="24" viewBox="0 0 24 24" fill="none" xmlns="http://www.w3.org/2000/svg">
<g clip-path="url(#clip0_151_1093)">
<path d="M12 24C18.6274 24 24 18.6274 24 12C24 5.37258 18.6274 0 12 0C5.37258 0 0 5.37258 0 12C0 18.6274 5.37258 24 12 24Z" fill="#F0F0F0"/>
<path d="M17.8217 1.50525C16.0974 0.54675 14.1127 0 12 0C5.37309 0 0.00084375 5.37178 0 11.9986L8.34783 7.82611L17.8217 1.50525Z" fill="#0052B4"/>
<path d="M0 12.001C0.00084375 18.6278 5.37309 23.9996 12 23.9996C14.1127 23.9996 16.0974 23.4529 17.8217 22.4943L8.34783 16.1735L0 12.001Z" fill="#0052B4"/>
<path d="M18.8217 2.1277C18.4994 1.90462 18.1654 1.69716 17.8213 1.50586L0 11.999V12.0004C0 12.0004 0 12.0014 0 12.0018L17.8213 22.4949C18.1655 22.3036 18.4994 22.0962 18.8218 21.8731L2.05416 12.0004L18.8217 2.1277Z" fill="#D80027"/>
<path d="M20.8694 11.5526H19.44C19.8117 11.1063 19.7888 10.4424 19.3701 10.0238C19.8136 9.58029 19.8136 8.86118 19.3701 8.4176L19.3433 8.44441C19.7868 8.00093 19.8136 7.25501 19.3701 6.81152L12.9456 13.236C13.3891 13.6796 14.0956 13.6743 14.5391 13.2308L14.6627 13.1178L17.739 12.8381V14.1612H18.7825V12.7432L20.3477 12.601L20.8694 11.5526Z" fill="#A2001D"/>
<path d="M13.0439 14.6089L12 14.0872L13.0439 13.5654H19.8264V14.6089H13.0439Z" fill="#FFDA44"/>
</g>
<defs>
<clipPath id="clip0_151_1093">
<rect width="24" height="24" fill="white"/>
</clipPath>
</defs>
</svg>
