<svg width="24" height="24" viewBox="0 0 24 24" fill="none" xmlns="http://www.w3.org/2000/svg">
<g clip-path="url(#clip0_151_1101)">
<path d="M6.7825 22.8093C8.36012 23.5721 10.13 24 11.9999 24C13.8698 24 15.6396 23.5721 17.2172 22.8093L18.2607 12L17.2172 1.19072C15.6396 0.427875 13.8698 0 11.9999 0C10.13 0 8.36012 0.427875 6.7825 1.19072L5.73901 12L6.7825 22.8093Z" fill="#FFDA44"/>
<path d="M17.2173 22.8091C21.2312 20.8682 23.9999 16.7577 23.9999 12.0003C23.9999 7.24278 21.2312 3.13231 17.2173 1.19141V22.8091Z" fill="#D80027"/>
<path d="M6.78263 22.8091V1.19141C2.76867 3.13231 0 7.24273 0 12.0003C0 16.7578 2.76867 20.8682 6.78263 22.8091Z" fill="#0052B4"/>
<path d="M12 16.1739C12 14.259 12 12 12 12H15.1305V13.5652C15.1305 13.8371 14.6087 14.8335 13.3209 15.6522C12.8332 15.9623 12.3283 16.062 12 16.1739Z" fill="#D80027"/>
<path d="M8.86963 8.86914H12.0001V11.9996H8.86963V8.86914Z" fill="#D80027"/>
<path d="M13.565 7.82571C13.565 7.24938 13.0978 6.78223 12.5215 6.78223C12.3312 6.78223 12.1534 6.83398 11.9998 6.92295C11.8462 6.83398 11.6684 6.78223 11.4781 6.78223C10.9018 6.78223 10.4346 7.24938 10.4346 7.82571H7.82593V13.043C7.82593 14.9854 9.3684 16.1086 10.578 16.6909C10.4875 16.8455 10.4346 17.0249 10.4346 17.217C10.4346 17.7934 10.9018 18.2605 11.4781 18.2605C11.6684 18.2605 11.8463 18.2088 11.9998 18.1198C12.1534 18.2088 12.3312 18.2605 12.5215 18.2605C13.0978 18.2605 13.565 17.7934 13.565 17.217C13.565 17.0249 13.5121 16.8455 13.4216 16.6909C14.6312 16.1086 16.1737 14.9854 16.1737 13.043V7.82571H13.565ZM14.6085 13.043C14.6085 13.315 14.6085 14.1424 13.3208 14.9611C12.833 15.2712 12.3281 15.4723 11.9998 15.5841C11.6715 15.4723 11.1667 15.2712 10.6789 14.9611C9.39113 14.1424 9.39113 13.315 9.39113 13.043V9.39091H14.6085V13.043Z" fill="#FF9811"/>
</g>
<defs>
<clipPath id="clip0_151_1101">
<rect width="24" height="24" fill="white"/>
</clipPath>
</defs>
</svg>
