<svg width="24" height="24" viewBox="0 0 24 24" fill="none" xmlns="http://www.w3.org/2000/svg">
<g clip-path="url(#clip0_151_1109)">
<path d="M0 12C0 5.37262 5.37262 0 12 0C18.6274 0 24 5.37262 24 12C23.4783 12 12 13.5652 12 13.5652L0 12Z" fill="#D80027"/>
<path d="M24 12C24 18.6274 18.6274 24 12 24C5.37262 24 0 18.6274 0 12" fill="black"/>
<path d="M10.3547 9.54414L11.372 10.2824L10.9844 11.4781L12.0009 10.7386L13.0183 11.4769L12.6291 10.2816L13.6455 9.54217L12.3886 9.54292L11.9994 8.34766L11.6117 9.54334L10.3547 9.54414Z" fill="#FFDA44"/>
<path d="M15.0001 6.80381C14.0545 6.25785 13.0206 6.00018 12.0001 6.00196V7.56684C12.7544 7.56548 13.5186 7.75579 14.2175 8.15938C16.3352 9.38207 17.0634 12.0997 15.8407 14.2174C14.6181 16.3351 11.9005 17.0633 9.78273 15.8406C9.16576 15.4844 8.66771 15.0008 8.30058 14.4426L6.9939 15.3053C7.49063 16.0604 8.16544 16.7142 9.00015 17.1961C11.8653 18.8503 15.5421 17.8651 17.1962 14.9999C18.8505 12.1348 17.8653 8.45802 15.0001 6.80381Z" fill="#FFDA44"/>
<path d="M8.5402 10.9561C8.12536 11.7144 8.40389 12.6656 9.16223 13.0804L14.2458 15.8582C13.9001 16.4902 14.0837 17.2593 14.7156 17.605L16.0888 18.3562C16.7207 18.702 17.5134 18.4698 17.8591 17.8379L18.6103 16.4647L8.5402 10.9561Z" fill="#FFDA44"/>
</g>
<defs>
<clipPath id="clip0_151_1109">
<rect width="24" height="24" fill="white"/>
</clipPath>
</defs>
</svg>
