<svg width="24" height="24" viewBox="0 0 24 24" fill="none" xmlns="http://www.w3.org/2000/svg">
<g clip-path="url(#clip0_151_1139)">
<path d="M12 24C18.6274 24 24 18.6274 24 12C24 5.37258 18.6274 0 12 0C5.37258 0 0 5.37258 0 12C0 18.6274 5.37258 24 12 24Z" fill="#F0F0F0"/>
<path d="M12 0C7.24242 0 3.13167 2.76867 1.19067 6.78263H22.8092C20.8682 2.76867 16.7574 0 12 0Z" fill="#338AF3"/>
<path d="M12 24.0004C16.7574 24.0004 20.8682 21.2317 22.8092 17.2178H1.19067C3.13167 21.2317 7.24242 24.0004 12 24.0004Z" fill="#338AF3"/>
<path d="M15.5866 11.9998L14.1211 12.6892L14.9015 14.1085L13.3101 13.804L13.1084 15.4117L12 14.2293L10.8915 15.4117L10.6899 13.804L9.09845 14.1085L9.87883 12.6891L8.41333 11.9998L9.87888 11.3104L9.09845 9.89111L10.6898 10.1955L10.8915 8.58789L12 9.77027L13.1085 8.58789L13.3101 10.1955L14.9015 9.89111L14.1211 11.3104L15.5866 11.9998Z" fill="#FFDA44"/>
</g>
<defs>
<clipPath id="clip0_151_1139">
<rect width="24" height="24" fill="white"/>
</clipPath>
</defs>
</svg>
