<svg width="24" height="24" viewBox="0 0 24 24" fill="none" xmlns="http://www.w3.org/2000/svg">
<g clip-path="url(#clip0_151_1149)">
<path d="M11.9998 24C18.6272 24 23.9998 18.6274 23.9998 12C23.9998 5.37258 18.6272 0 11.9998 0C5.37234 0 -0.000244141 5.37258 -0.000244141 12C-0.000244141 18.6274 5.37234 24 11.9998 24Z" fill="#FFDA44"/>
<path d="M11.9997 24.0001C15.6368 24.0001 18.8957 22.3818 21.0963 19.8262H2.90308C5.10372 22.3818 8.36261 24.0001 11.9997 24.0001Z" fill="#338AF3"/>
<path d="M23.9998 12C23.9998 5.37262 18.6271 0 11.9998 0C5.37238 0 -0.000244141 5.37262 -0.000244141 12C-0.000244141 13.0831 0.144131 14.1323 0.413146 15.1305H23.5864C23.8554 14.1323 23.9998 13.0831 23.9998 12Z" fill="#338AF3"/>
<path d="M0.953613 16.6953C1.18494 17.2389 1.45536 17.7616 1.76104 18.2605H22.2385C22.5441 17.7616 22.8146 17.2388 23.046 16.6953H0.953613Z" fill="#338AF3"/>
<path d="M5.49904 7.56819L3.15454 6.53347L5.49904 5.49875L6.53371 3.1543L7.56838 5.49875L9.91284 6.53347L7.56838 7.56819L6.53371 9.91264L5.49904 7.56819Z" fill="#F0F0F0"/>
<path d="M6.53375 4.44727L7.1727 5.89519L8.62067 6.53424L7.1727 7.17323L6.53375 8.62116L5.8947 7.17323L4.44678 6.53424L5.8947 5.89519L6.53375 4.44727Z" fill="#D80027"/>
</g>
<defs>
<clipPath id="clip0_151_1149">
<rect width="24" height="24" fill="white"/>
</clipPath>
</defs>
</svg>
