<svg width="24" height="24" viewBox="0 0 24 24" fill="none" xmlns="http://www.w3.org/2000/svg">
<g clip-path="url(#clip0_151_1157)">
<path d="M24.0002 12C24.0002 18.6274 18.6276 24 12.0002 24C5.37287 24 0.000244141 18.6274 0.000244141 12C0.000244141 12.0028 12.0002 0.00135937 12.0002 0C18.6276 0 24.0002 5.37262 24.0002 12Z" fill="#0052B4"/>
<path d="M11.9683 11.9999H12.0004C12.0004 11.989 12.0004 11.9786 12.0004 11.9678C11.9897 11.9785 11.979 11.9892 11.9683 11.9999Z" fill="#F0F0F0"/>
<path d="M12.0002 6.26086C12.0002 4.14937 12.0002 2.76577 12.0002 0H11.9982C5.37174 0.00107812 0.000244141 5.37319 0.000244141 12H6.2611V8.47439L9.78667 12H11.9682C11.9789 11.9893 11.9896 11.9786 12.0003 11.9678C12.0003 11.1594 12.0003 10.438 12.0003 9.78647L8.47468 6.26086H12.0002Z" fill="#F0F0F0"/>
<path d="M6.071 1.56543C4.19417 2.63413 2.63389 4.19441 1.56519 6.07124V12.0002H4.69564V4.69593V4.69588H12C12 3.70855 12 2.76796 12 1.56543H6.071Z" fill="#D80027"/>
<path d="M12.0001 10.5241L7.73666 6.26076H6.26099C6.26099 6.26072 6.26099 6.26076 6.26099 6.26076L12 11.9998H12.0001C12.0001 11.9998 12.0001 10.9824 12.0001 10.5241Z" fill="#D80027"/>
<path d="M7.23729 14.0869L7.89588 15.464L9.38309 15.1203L8.71709 16.4938L9.91305 17.4422L8.42398 17.7779L8.42815 19.3043L7.23729 18.3493L6.04648 19.3043L6.05065 17.7779L4.56152 17.4422L5.75754 16.4938L5.09145 15.1203L6.57874 15.464L7.23729 14.0869Z" fill="#F0F0F0"/>
<path d="M17.9665 16.6963L18.2958 17.3848L19.0394 17.2129L18.7064 17.8997L19.3044 18.3739L18.5599 18.5418L18.5619 19.305L17.9665 18.8275L17.3711 19.305L17.3732 18.5418L16.6287 18.3739L17.2266 17.8997L16.8936 17.2129L17.6372 17.3848L17.9665 16.6963Z" fill="#F0F0F0"/>
<path d="M14.9031 9.3916L15.2323 10.0802L15.976 9.90826L15.643 10.595L16.241 11.0693L15.4964 11.2371L15.4985 12.0003L14.9031 11.5228L14.3077 12.0003L14.3097 11.2371L13.5652 11.0693L14.1632 10.595L13.8302 9.90826L14.5738 10.0802L14.9031 9.3916Z" fill="#F0F0F0"/>
<path d="M17.9665 5.21777L18.2958 5.90637L19.0394 5.73448L18.7064 6.42124L19.3044 6.89543L18.5599 7.06329L18.5619 7.82651L17.9665 7.34899L17.3711 7.82651L17.3732 7.06329L16.6287 6.89543L17.2266 6.42124L16.8936 5.73448L17.6372 5.90637L17.9665 5.21777Z" fill="#F0F0F0"/>
<path d="M20.6421 8.34863L20.9714 9.03723L21.715 8.86529L21.382 9.55205L21.98 10.0263L21.2354 10.1941L21.2375 10.9573L20.6421 10.4799L20.0467 10.9573L20.0487 10.1941L19.3042 10.0263L19.9022 9.55205L19.5692 8.86529L20.3128 9.03723L20.6421 8.34863Z" fill="#F0F0F0"/>
<path d="M18.7288 12L18.9878 12.7972H19.826L19.1479 13.2899L19.4069 14.087L18.7288 13.5943L18.0507 14.087L18.3097 13.2899L17.6316 12.7972H18.4698L18.7288 12Z" fill="#F0F0F0"/>
</g>
<defs>
<clipPath id="clip0_151_1157">
<rect width="24" height="24" fill="white"/>
</clipPath>
</defs>
</svg>
