<svg width="24" height="24" viewBox="0 0 24 24" fill="none" xmlns="http://www.w3.org/2000/svg">
<g clip-path="url(#clip0_151_1178)">
<path d="M23.9998 12.0003C23.9998 10.5325 23.7358 9.12639 23.2534 7.82645L11.9998 7.30469L0.746147 7.82641C0.263803 9.12639 -0.000244141 10.5325 -0.000244141 12.0003C-0.000244141 13.4682 0.263803 14.8743 0.746147 16.1742L11.9998 16.696L23.2534 16.1743C23.7358 14.8743 23.9998 13.4682 23.9998 12.0003Z" fill="#D80027"/>
<path d="M11.9999 23.9999C17.1595 23.9999 21.558 20.7434 23.2536 16.1738H0.746338C2.44185 20.7434 6.84037 23.9999 11.9999 23.9999Z" fill="#6DA544"/>
<path d="M0.746338 7.82611H23.2536C21.558 3.2565 17.1595 0 11.9999 0C6.84037 0 2.44185 3.2565 0.746338 7.82611Z" fill="#338AF3"/>
<path d="M12.2607 15.3914C10.3878 15.3914 8.86939 13.873 8.86939 12.0001C8.86939 10.1272 10.3878 8.6088 12.2607 8.6088C12.8447 8.6088 13.3942 8.75645 13.8739 9.01642C13.1213 8.28044 12.0921 7.82617 10.9564 7.82617C8.65114 7.82617 6.78247 9.69489 6.78247 12.0001C6.78247 14.3052 8.65119 16.174 10.9564 16.174C12.0921 16.174 13.1213 15.7197 13.8739 14.9837C13.3942 15.2438 12.8447 15.3914 12.2607 15.3914Z" fill="#F0F0F0"/>
<path d="M14.8693 9.65234L15.3185 10.9157L16.5295 10.34L15.9538 11.5509L17.2171 12.0002L15.9538 12.4494L16.5295 13.6604L15.3185 13.0847L14.8693 14.348L14.4202 13.0847L13.2091 13.6604L13.7849 12.4494L12.5215 12.0002L13.7849 11.5509L13.2091 10.34L14.4202 10.9157L14.8693 9.65234Z" fill="#F0F0F0"/>
</g>
<defs>
<clipPath id="clip0_151_1178">
<rect width="24" height="24" fill="white"/>
</clipPath>
</defs>
</svg>
