<svg width="24" height="24" viewBox="0 0 24 24" fill="none" xmlns="http://www.w3.org/2000/svg">
<g clip-path="url(#clip0_151_1185)">
<path d="M12 24C18.6274 24 24 18.6274 24 12C24 5.37258 18.6274 0 12 0C5.37258 0 0 5.37258 0 12C0 18.6274 5.37258 24 12 24Z" fill="#F0F0F0"/>
<path d="M0 11.9999C0 16.5484 2.53078 20.5056 6.26086 22.5408V1.45898C2.53078 3.4942 0 7.45139 0 11.9999Z" fill="#D80027"/>
<path d="M0 11.9997C0 17.544 3.76036 22.2093 8.86955 23.5863V0.413086C3.76036 1.79009 0 6.45537 0 11.9997Z" fill="#0052B4"/>
<path d="M4.3042 4.17383V6.13034C4.3042 7.10286 5.09254 7.8912 6.06506 7.8912C7.03757 7.8912 7.82592 7.10286 7.82592 6.13034V4.17383H4.3042Z" fill="#D80027"/>
<path d="M6.06503 6.84818C5.66945 6.84818 5.34766 6.52638 5.34766 6.1308V5.21777H6.78245V6.1308C6.78245 6.52638 6.46061 6.84818 6.06503 6.84818Z" fill="#F0F0F0"/>
<path d="M13.0434 12.522H9.91298C9.91298 11.9457 9.44578 11.4785 8.86949 11.4785C8.29321 11.4785 7.82601 11.9457 7.82601 12.522H4.69556C4.69556 13.0983 5.19754 13.5655 5.77378 13.5655H5.73904C5.73904 14.1418 6.20615 14.609 6.78253 14.609C6.78253 15.1853 7.24963 15.6525 7.82601 15.6525H9.91298C10.4893 15.6525 10.9565 15.1853 10.9565 14.609C11.5327 14.609 11.9999 14.1418 11.9999 13.5655H11.9652C12.5414 13.5655 13.0434 13.0983 13.0434 12.522Z" fill="#FFDA44"/>
<path d="M13.4723 10.8518L13.1984 11.2904L13.5307 11.6864L13.0289 11.5615L12.7549 11.9999L12.7188 11.4841L12.217 11.359L12.6966 11.1653L12.6605 10.6494L12.9929 11.0456L13.4723 10.8518Z" fill="#FFDA44"/>
<path d="M11.8737 9.51074L11.7663 10.0166L12.2141 10.2751L11.6998 10.3294L11.5923 10.8351L11.3819 10.3626L10.8677 10.4166L11.252 10.0706L11.0417 9.5983L11.4895 9.85682L11.8737 9.51074Z" fill="#FFDA44"/>
<path d="M9.9129 8.79688L9.98486 9.30898L10.4941 9.39875L10.0293 9.62544L10.1013 10.1375L9.74214 9.76555L9.27733 9.99223L9.52009 9.53562L9.16089 9.16372L9.67019 9.25344L9.9129 8.79688Z" fill="#FFDA44"/>
<path d="M7.82603 8.79688L8.06884 9.25344L8.57804 9.16367L8.21884 9.53572L8.46161 9.99228L7.99689 9.76555L7.63764 10.1375L7.70964 9.62544L7.24487 9.3988L7.75408 9.30898L7.82603 8.79688Z" fill="#FFDA44"/>
<path d="M5.86517 9.51074L6.24945 9.85682L6.6972 9.5983L6.48701 10.0708L6.87115 10.4167L6.35698 10.3626L6.14656 10.8351L6.03921 10.3293L5.5249 10.2753L5.97265 10.0166L5.86517 9.51074Z" fill="#FFDA44"/>
<path d="M4.26676 10.8518L4.74634 11.0456L5.07854 10.6494L5.04264 11.1654L5.52203 11.3591L5.02023 11.4841L4.98404 11.9999L4.71025 11.5615L4.2085 11.6865L4.54089 11.2904L4.26676 10.8518Z" fill="#FFDA44"/>
</g>
<defs>
<clipPath id="clip0_151_1185">
<rect width="24" height="24" fill="white"/>
</clipPath>
</defs>
</svg>
