<svg width="24" height="24" viewBox="0 0 24 24" fill="none" xmlns="http://www.w3.org/2000/svg">
<g clip-path="url(#clip0_151_1268)">
<path d="M24.0001 12C24.0001 18.6274 18.6275 24 12.0001 24C5.37275 24 0.00012207 18.6274 0.00012207 12C0.00012207 12.0029 12.0001 0.0013125 12.0001 0C18.6275 0 24.0001 5.37262 24.0001 12Z" fill="#D80027"/>
<path d="M12.0002 5.73926V9.78659L7.82629 5.73926H12.0002Z" fill="#0052B4"/>
<path d="M6.26098 12.0003H9.78649L6.26098 7.30469L5.73926 10.9569L6.26098 12.0003Z" fill="#0052B4"/>
<path d="M11.9681 11.9999H12.0002C12.0002 11.9891 12.0002 11.9786 12.0002 11.9678C11.9896 11.9785 11.9789 11.9892 11.9681 11.9999Z" fill="#F0F0F0"/>
<path d="M12.0002 6.26086C12.0002 4.14937 12.0002 2.76586 12.0002 0H11.9982C5.3717 0.001125 0.000244141 5.37323 0.000244141 12H6.2611V8.47448L9.78662 12H11.9682C11.9789 11.9893 11.9896 11.9786 12.0003 11.9679C12.0003 11.1594 12.0003 10.4381 12.0003 9.78647L8.47468 6.26086H12.0002Z" fill="#F0F0F0"/>
<path d="M6.07112 1.56543C4.19429 2.63413 2.63396 4.19441 1.56531 6.07124V12.5219H4.69576V4.69598V4.69588H12.5218C12.5218 3.70855 12.5218 2.76796 12.5218 1.56543H6.07112Z" fill="#D80027"/>
<path d="M12.4772 11.0012L7.73661 6.26074H6.26099V6.26084L12.477 12.4769H12.4771C12.4772 12.4769 12.4772 11.4594 12.4772 11.0012Z" fill="#D80027"/>
<path d="M13.5653 6.26074V11.9998C13.5653 14.7955 20.8697 14.7955 20.8697 11.9998V6.26074H13.5653Z" fill="#F3F3F3"/>
<path d="M13.5653 12V12C13.5653 14.7956 17.2175 15.6522 17.2175 15.6522C17.2175 15.6522 20.8697 14.7956 20.8697 12V12H13.5653Z" fill="#6DA544"/>
<path d="M17.2175 9.7041L15.5219 10.4346V11.9998L17.2175 13.0432L18.9132 11.9998V10.4346L17.2175 9.7041Z" fill="#A2001D"/>
<path d="M15.5219 8.86914H18.9132V10.4343H15.5219V8.86914Z" fill="#338AF3"/>
</g>
<defs>
<clipPath id="clip0_151_1268">
<rect width="24" height="24" fill="white"/>
</clipPath>
</defs>
</svg>
