<svg width="24" height="24" viewBox="0 0 24 24" fill="none" xmlns="http://www.w3.org/2000/svg">
<g clip-path="url(#clip0_151_1254)">
<path d="M24 12.0002C24 7.88174 21.9249 4.24832 18.7635 2.0872L12 1.56543L5.23655 2.08715C2.07516 4.24832 0 7.88179 0 12.0002C0 16.1188 2.07516 19.7521 5.23655 21.9133L12 22.435L18.7635 21.9133C21.9249 19.7521 24 16.1188 24 12.0002Z" fill="#0052B4"/>
<path d="M18.7632 2.08697C16.8374 0.770437 14.5087 0 11.9998 0C9.49089 0 7.16219 0.770437 5.23633 2.08697H18.7632Z" fill="#A2001D"/>
<path d="M5.23633 21.9131C7.16214 23.2296 9.49089 24.0001 11.9998 24.0001C14.5087 24.0001 16.8374 23.2296 18.7632 21.9131H5.23633Z" fill="#A2001D"/>
<path d="M12 17.739C15.1696 17.739 17.7391 15.1695 17.7391 11.9999C17.7391 8.83024 15.1696 6.26074 12 6.26074C8.83036 6.26074 6.26086 8.83024 6.26086 11.9999C6.26086 15.1695 8.83036 17.739 12 17.739Z" fill="#F0F0F0"/>
<path d="M12 16.696C14.5933 16.696 16.6956 14.5937 16.6956 12.0003C16.6956 9.407 14.5933 7.30469 12 7.30469C9.40664 7.30469 7.30432 9.407 7.30432 12.0003C7.30432 14.5937 9.40664 16.696 12 16.696Z" fill="#6DA544"/>
<path d="M12 15.13C13.7289 15.13 15.1304 13.7285 15.1304 11.9996C15.1304 10.2707 13.7289 8.86914 12 8.86914C10.2711 8.86914 8.86951 10.2707 8.86951 11.9996C8.86951 13.7285 10.2711 15.13 12 15.13Z" fill="#F0F0F0"/>
<path d="M12 11.2178L10.3043 12.0004V13.3047L12 14.3482L13.6956 13.3047V12.0004L12 11.2178Z" fill="#0052B4"/>
<path d="M10.3043 10.4346H13.6956V11.9998H10.3043V10.4346Z" fill="#FFDA44"/>
</g>
<defs>
<clipPath id="clip0_151_1254">
<rect width="24" height="24" fill="white"/>
</clipPath>
</defs>
</svg>
