<svg width="24" height="24" viewBox="0 0 24 24" fill="none" xmlns="http://www.w3.org/2000/svg">
<g clip-path="url(#clip0_151_1646)">
<path d="M12.0002 24C18.6277 24 24.0002 18.6274 24.0002 12C24.0002 5.37258 18.6277 0 12.0002 0C5.37283 0 0.000244141 5.37258 0.000244141 12C0.000244141 18.6274 5.37283 24 12.0002 24Z" fill="#F0F0F0"/>
<path d="M10.9567 12C10.9567 12 3.52192 20.487 3.51489 20.4853C5.68642 22.6568 8.68647 24 12.0002 24C18.6276 24 24.0002 18.6274 24.0002 12H10.9567Z" fill="#D80027"/>
<path d="M3.51471 3.51465C-1.17157 8.20093 -1.17157 15.7989 3.51471 20.4853C5.45126 18.5487 7.31374 16.6862 12 12L3.51471 3.51465Z" fill="#0052B4"/>
</g>
<defs>
<clipPath id="clip0_151_1646">
<rect width="24" height="24" fill="white"/>
</clipPath>
</defs>
</svg>
