<svg width="24" height="24" viewBox="0 0 24 24" fill="none" xmlns="http://www.w3.org/2000/svg">
<g clip-path="url(#clip0_151_2823)">
<path d="M17.7392 1.45908C16.0343 0.528891 14.0789 0 12 0C9.92113 0 7.96578 0.528891 6.26089 1.45908L5.21741 12L6.26089 22.5409C7.96578 23.4711 9.92113 24 12 24C14.0789 24 16.0343 23.4711 17.7392 22.5409L18.7827 12L17.7392 1.45908Z" fill="#FFDA44"/>
<path d="M6.26086 22.5408V1.45898C2.53073 3.4943 0 7.45144 0 12C0 16.5485 2.53073 20.5056 6.26086 22.5408Z" fill="#338AF3"/>
<path d="M23.9999 12C23.9999 7.45144 21.4691 3.4943 17.739 1.45898V22.5408C21.4691 20.5056 23.9999 16.5485 23.9999 12Z" fill="#6DA544"/>
<path d="M9.39122 15.13L7.3042 11.9996L9.39117 8.86914L11.4782 11.9996L9.39122 15.13Z" fill="#6DA544"/>
<path d="M14.6086 15.13L12.5216 11.9996L14.6086 8.86914L16.6955 11.9996L14.6086 15.13Z" fill="#6DA544"/>
<path d="M11.9999 19.3038L9.91296 16.1734L11.9999 13.043L14.0869 16.1734L11.9999 19.3038Z" fill="#6DA544"/>
</g>
<defs>
<clipPath id="clip0_151_2823">
<rect width="24" height="24" fill="white"/>
</clipPath>
</defs>
</svg>
