<svg width="24" height="24" viewBox="0 0 24 24" fill="none" xmlns="http://www.w3.org/2000/svg">
<g clip-path="url(#clip0_151_2560)">
<path d="M11.9998 24C18.6272 24 23.9998 18.6274 23.9998 12C23.9998 5.37258 18.6272 0 11.9998 0C5.37234 0 -0.000244141 5.37258 -0.000244141 12C-0.000244141 18.6274 5.37234 24 11.9998 24Z" fill="#FFDA44"/>
<path d="M13.8249 23.862C15.7766 23.5643 17.5732 22.7957 19.0963 21.6768L12 12L13.8249 23.862Z" fill="#D80027"/>
<path d="M10.175 0.137695C8.22335 0.435445 6.42681 1.20401 4.90356 2.32287L12 11.9997L10.175 0.137695Z" fill="#D80027"/>
<path d="M4.90356 21.6768C6.42672 22.7957 8.22325 23.5642 10.1749 23.8621L12 12L4.90356 21.6768Z" fill="#D80027"/>
<path d="M2.32311 4.90332C1.20421 6.42657 0.435736 8.22305 0.137939 10.1747L12 11.9997L2.32311 4.90332Z" fill="#D80027"/>
<path d="M0.137939 13.8249C0.435689 15.7766 1.20425 17.5732 2.32316 19.0963L12 12L0.137939 13.8249Z" fill="#D80027"/>
<path d="M23.862 10.1747C23.5642 8.22305 22.7957 6.42652 21.6768 4.90332L12 11.9997L23.862 10.1747Z" fill="#D80027"/>
<path d="M19.0963 2.32282C17.5731 1.20396 15.7766 0.435445 13.8249 0.137695L12 11.9997L19.0963 2.32282Z" fill="#D80027"/>
<path d="M21.6769 19.0964C22.7958 17.5732 23.5643 15.7766 23.8621 13.825L12 12L21.6769 19.0964Z" fill="#D80027"/>
<path d="M12.0001 16.174C14.3052 16.174 16.174 14.3052 16.174 12.0001C16.174 9.69489 14.3052 7.82617 12.0001 7.82617C9.69489 7.82617 7.82617 9.69489 7.82617 12.0001C7.82617 14.3052 9.69489 16.174 12.0001 16.174Z" fill="#D80027"/>
<path d="M12.0001 15.13C13.729 15.13 15.1305 13.7285 15.1305 11.9996C15.1305 10.2707 13.729 8.86914 12.0001 8.86914C10.2712 8.86914 8.86963 10.2707 8.86963 11.9996C8.86963 13.7285 10.2712 15.13 12.0001 15.13Z" fill="#FFDA44"/>
</g>
<defs>
<clipPath id="clip0_151_2560">
<rect width="24" height="24" fill="white"/>
</clipPath>
</defs>
</svg>
