<svg width="24" height="24" viewBox="0 0 24 24" fill="none" xmlns="http://www.w3.org/2000/svg">
<g clip-path="url(#clip0_151_2353)">
<path d="M11.9998 24C18.6272 24 23.9998 18.6274 23.9998 12C23.9998 5.37258 18.6272 0 11.9998 0C5.37234 0 -0.000244141 5.37258 -0.000244141 12C-0.000244141 18.6274 5.37234 24 11.9998 24Z" fill="#F0F0F0"/>
<path d="M23.9292 13.3045C23.9292 13.3044 23.9293 13.3043 23.9293 13.3041L10.7693 0.0625C10.1757 0.123016 9.59475 0.226797 9.02986 0.370656C3.83897 1.6923 0 12.0001 0 12.0001C0 12.0001 16.7999 23.2424 18.7165 21.9453C19.1 21.6858 19.4677 21.4047 19.8177 21.1038L12.0185 13.3045H23.9292Z" fill="#0052B4"/>
<path d="M20.8693 11.9996L9.19874 0.329102C3.92263 1.59084 -0.000244141 6.33674 -0.000244141 11.9996C-0.000244141 18.627 5.37238 23.9996 11.9998 23.9996C14.5136 23.9996 16.8465 23.2261 18.7746 21.9048L8.8693 11.9996H20.8693Z" fill="#D80027"/>
<path d="M11.4126 17.7186L9.94704 17.0292L10.7275 15.6099L9.13605 15.9144L8.9344 14.3066L7.82595 15.4891L6.71749 14.3066L6.51579 15.9144L4.92443 15.6099L5.70485 17.0292L4.23926 17.7186L5.70485 18.4079L4.92443 19.8273L6.51588 19.5228L6.71745 21.1305L7.82595 19.948L8.9344 21.1305L9.13605 19.5228L10.7274 19.8273L9.94699 18.408L11.4126 17.7186Z" fill="#F0F0F0"/>
<path d="M10.4347 6.65539L9.36877 6.15406L9.93638 5.12173L8.77889 5.34317L8.63222 4.17383L7.82602 5.03384L7.01982 4.17383L6.8731 5.34317L5.71561 5.12173L6.28327 6.15406L5.21729 6.65539L7.82602 7.1772L10.4347 6.65539Z" fill="#F0F0F0"/>
<path d="M10.9565 6.65527C10.9565 8.38416 9.5549 9.78573 7.82601 9.78573C6.09712 9.78573 4.69556 8.38416 4.69556 6.65527" fill="#F0F0F0"/>
</g>
<defs>
<clipPath id="clip0_151_2353">
<rect width="24" height="24" fill="white"/>
</clipPath>
</defs>
</svg>
