<svg width="24" height="24" viewBox="0 0 24 24" fill="none" xmlns="http://www.w3.org/2000/svg">
<g clip-path="url(#clip0_151_1951)">
<path d="M12.0002 24C18.6277 24 24.0002 18.6274 24.0002 12C24.0002 5.37258 18.6277 0 12.0002 0C5.37283 0 0.000244141 5.37258 0.000244141 12C0.000244141 18.6274 5.37283 24 12.0002 24Z" fill="#F0F0F0"/>
<path d="M12.0002 24.0004C16.7577 24.0004 20.8685 21.2317 22.8095 17.2178H1.19092C3.13192 21.2317 7.24267 24.0004 12.0002 24.0004Z" fill="#338AF3"/>
<path d="M12.0002 0C7.24267 0 3.13192 2.76867 1.19092 6.78263H22.8094C20.8685 2.76867 16.7577 0 12.0002 0Z" fill="#338AF3"/>
<path d="M7.38516 7.82617L7.77366 9.02191H9.0309L8.0138 9.76084L8.40235 10.9566L7.38516 10.2176L6.36797 10.9566L6.75652 9.76084L5.73938 9.02191H6.99661L7.38516 7.82617Z" fill="#338AF3"/>
<path d="M7.38516 13.0439L7.77366 14.2397H9.0309L8.0138 14.9787L8.40235 16.1744L7.38516 15.4354L6.36797 16.1744L6.75652 14.9787L5.73938 14.2397H6.99661L7.38516 13.0439Z" fill="#338AF3"/>
<path d="M16.6153 7.82617L17.0038 9.02191H18.261L17.2439 9.76084L17.6325 10.9566L16.6153 10.2176L15.5981 10.9566L15.9866 9.76084L14.9695 9.02191H16.2268L16.6153 7.82617Z" fill="#338AF3"/>
<path d="M16.6153 13.0439L17.0038 14.2397H18.261L17.2439 14.9787L17.6325 16.1744L16.6153 15.4354L15.5981 16.1744L15.9866 14.9787L14.9695 14.2397H16.2268L16.6153 13.0439Z" fill="#338AF3"/>
<path d="M12.0002 10.4346L12.3887 11.6304H13.6459L12.6288 12.3693L13.0173 13.565L12.0002 12.826L10.983 13.565L11.3715 12.3693L10.3544 11.6304H11.6116L12.0002 10.4346Z" fill="#338AF3"/>
</g>
<defs>
<clipPath id="clip0_151_1951">
<rect width="24" height="24" fill="white"/>
</clipPath>
</defs>
</svg>
