<svg width="24" height="24" viewBox="0 0 24 24" fill="none" xmlns="http://www.w3.org/2000/svg">
<g clip-path="url(#clip0_151_1572)">
<path d="M24 12C24 18.6274 18.6274 24 12 24C5.37262 24 0 18.6274 0 12C0 12.0029 12 0.0013125 12 0C18.6274 0 24 5.37262 24 12Z" fill="#0052B4"/>
<path d="M11.9678 11.9999H11.9999C11.9999 11.9891 11.9999 11.9786 11.9999 11.9678C11.9892 11.9785 11.9785 11.9892 11.9678 11.9999Z" fill="#F0F0F0"/>
<path d="M12 6.26086C12 4.14937 12 2.76586 12 0H11.998C5.37145 0.001125 0 5.37323 0 12H6.26086V8.47448L9.78638 12H11.9679C11.9786 11.9893 11.9893 11.9786 12 11.9679C12 11.1594 12 10.4381 12 9.78647L8.47444 6.26086H12Z" fill="#F0F0F0"/>
<path d="M6.07075 1.56543C4.19393 2.63413 2.6336 4.19441 1.56494 6.07124V12.0002H4.69539V4.69598V4.69588H11.9997C11.9997 3.70855 11.9997 2.76796 11.9997 1.56543H6.07075Z" fill="#D80027"/>
<path d="M11.9999 10.5242L7.73637 6.26074H6.26074V6.26084L11.9998 11.9998H11.9999C11.9999 11.9998 11.9999 10.9823 11.9999 10.5242Z" fill="#D80027"/>
<path d="M16.1733 12L16.3954 12.6832H17.1137L16.5326 13.1055L16.7546 13.7888L16.1733 13.3665L15.5921 13.7888L15.8141 13.1055L15.2329 12.6832H15.9513L16.1733 12Z" fill="#F0F0F0"/>
<path d="M13.2219 13.2229L13.862 13.549L14.37 13.041L14.2576 13.7506L14.8977 14.0768L14.1881 14.1891L14.0758 14.8988L13.7496 14.2586L13.04 14.371L13.5481 13.863L13.2219 13.2229Z" fill="#F0F0F0"/>
<path d="M11.9995 16.1737L12.6828 15.9517L12.6829 15.2334L13.105 15.8145L13.7883 15.5925L13.366 16.1737L13.7883 16.755L13.105 16.533L12.6829 17.1142V16.3958L11.9995 16.1737Z" fill="#F0F0F0"/>
<path d="M13.2219 19.125L13.548 18.4849L13.04 17.977L13.7496 18.0893L14.0758 17.4492L14.1881 18.1588L14.8977 18.2711L14.2576 18.5973L14.37 19.307L13.862 18.7988L13.2219 19.125Z" fill="#F0F0F0"/>
<path d="M16.1733 20.3474L15.9513 19.6641H15.2329L15.8141 19.2418L15.5921 18.5586L16.1733 18.9808L16.7546 18.5586L16.5326 19.2418L17.1138 19.6641H16.3954L16.1733 20.3474Z" fill="#F0F0F0"/>
<path d="M19.1246 19.125L18.4844 18.799L17.9765 19.307L18.0889 18.5973L17.4487 18.2712L18.1583 18.1588L18.2707 17.4492L18.5968 18.0893L19.3064 17.977L18.7984 18.485L19.1246 19.125Z" fill="#F0F0F0"/>
<path d="M20.3474 16.1737L19.6641 16.3958V17.1142L19.2418 16.533L18.5586 16.755L18.9809 16.1737L18.5586 15.5925L19.2418 15.8145L19.6641 15.2334V15.9517L20.3474 16.1737Z" fill="#F0F0F0"/>
<path d="M19.125 13.2229L18.799 13.863L19.3069 14.371L18.5973 14.2585L18.2712 14.8987L18.1588 14.189L17.4492 14.0767L18.0893 13.7506L17.977 13.041L18.485 13.549L19.125 13.2229Z" fill="#F0F0F0"/>
</g>
<defs>
<clipPath id="clip0_151_1572">
<rect width="24" height="24" fill="white"/>
</clipPath>
</defs>
</svg>
