<svg width="24" height="24" viewBox="0 0 24 24" fill="none" xmlns="http://www.w3.org/2000/svg">
<g clip-path="url(#clip0_151_2831)">
<path d="M1.1906 6.78274C0.427753 8.36037 -0.00012207 10.1302 -0.00012207 12.0001C-0.00012207 13.87 0.427753 15.6399 1.1906 17.2175L11.9999 18.261L22.8092 17.2175C23.572 15.6399 23.9999 13.87 23.9999 12.0001C23.9999 10.1302 23.572 8.36037 22.8092 6.78274L11.9999 5.73926L1.1906 6.78274Z" fill="#F0F0F0"/>
<path d="M1.19104 17.2178C3.13195 21.2317 7.24237 24.0004 11.9999 24.0004C16.7574 24.0004 20.8678 21.2317 22.8088 17.2178H1.19104Z" fill="black"/>
<path d="M1.19104 6.78263H22.8088C20.8678 2.76867 16.7574 0 11.9999 0C7.24237 0 3.13195 2.76867 1.19104 6.78263Z" fill="#D80027"/>
<path d="M3.51459 3.51465C-1.17169 8.20093 -1.17169 15.7989 3.51459 20.4853C5.45114 18.5487 7.31362 16.6862 11.9999 12L3.51459 3.51465Z" fill="#496E2D"/>
</g>
<defs>
<clipPath id="clip0_151_2831">
<rect width="24" height="24" fill="white"/>
</clipPath>
</defs>
</svg>
