<svg width="24" height="24" viewBox="0 0 24 24" fill="none" xmlns="http://www.w3.org/2000/svg">
<g clip-path="url(#clip0_151_2510)">
<path d="M12.0002 24C18.6277 24 24.0002 18.6274 24.0002 12C24.0002 5.37258 18.6277 0 12.0002 0C5.37283 0 0.000244141 5.37258 0.000244141 12C0.000244141 18.6274 5.37283 24 12.0002 24Z" fill="#F0F0F0"/>
<path d="M23.9999 11.9997C23.9999 6.84013 20.7434 2.44156 16.1738 0.746094V23.2534C20.7434 21.5578 23.9999 17.1593 23.9999 11.9997Z" fill="#D80027"/>
<path d="M0.000244141 11.9997C0.000244141 17.1593 3.25674 21.5577 7.82635 23.2533V0.746094C3.25674 2.44156 0.000244141 6.84012 0.000244141 11.9997Z" fill="#D80027"/>
</g>
<defs>
<clipPath id="clip0_151_2510">
<rect width="24" height="24" fill="white"/>
</clipPath>
</defs>
</svg>
