<svg width="24" height="24" viewBox="0 0 24 24" fill="none" xmlns="http://www.w3.org/2000/svg">
<g clip-path="url(#clip0_151_2367)">
<path d="M24 12C24 18.6274 18.6274 24 12 24C5.37262 24 0 18.6274 0 12C0 12.0029 12 0.0013125 12 0C18.6274 0 24 5.37262 24 12Z" fill="#0052B4"/>
<path d="M11.9678 11.9999H11.9999C11.9999 11.9891 11.9999 11.9786 11.9999 11.9678C11.9892 11.9785 11.9785 11.9892 11.9678 11.9999Z" fill="#F0F0F0"/>
<path d="M12 6.26086C12 4.14937 12 2.76586 12 0H11.998C5.3715 0.001125 0 5.37323 0 12H6.26086V8.47448L9.78642 12H11.9679C11.9786 11.9893 11.9894 11.9786 12 11.9679C12 11.1594 12 10.4381 12 9.78647L8.47444 6.26086H12Z" fill="#F0F0F0"/>
<path d="M6.07124 1.56543C4.19441 2.63413 2.63413 4.19441 1.56543 6.07124V12.0002H4.69588V4.69598V4.69588H12.0002C12.0002 3.70855 12.0002 2.76796 12.0002 1.56543H6.07124Z" fill="#D80027"/>
<path d="M12.0003 10.5242L7.7369 6.26074C7.7369 6.26074 6.26123 6.26084 6.26123 6.26074V6.26084L12.0003 11.9998H12.0003C12.0003 11.9998 12.0003 10.9823 12.0003 10.5242Z" fill="#D80027"/>
<path d="M20.7813 8.9043L21.0403 9.70145H21.8785L21.2004 10.1941L21.4594 10.9912L20.7813 10.4986L20.1032 10.9912L20.3622 10.1941L19.6841 9.70145H20.5223L20.7813 8.9043Z" fill="#D80027"/>
<path d="M17.7852 14.6436L18.1737 15.8393H19.431L18.4138 16.5783L18.8024 17.774L17.7852 17.035L16.768 17.774L17.1566 16.5783L16.1394 15.8393H17.3966L17.7852 14.6436Z" fill="#D80027"/>
<path d="M17.8983 5.25195L18.2221 6.24847H19.2698L18.4221 6.86417L18.7459 7.86064L17.8983 7.24475L17.0507 7.86064L17.3744 6.86417L16.5269 6.24847H17.5745L17.8983 5.25195Z" fill="#D80027"/>
<path d="M15.0152 8.87012L15.4037 10.0659H16.6609L15.6438 10.8048L16.0324 12.0006L15.0152 11.2616L13.998 12.0006L14.3866 10.8048L13.3694 10.0659H14.6266L15.0152 8.87012Z" fill="#D80027"/>
</g>
<defs>
<clipPath id="clip0_151_2367">
<rect width="24" height="24" fill="white"/>
</clipPath>
</defs>
</svg>
