<svg width="24" height="24" viewBox="0 0 24 24" fill="none" xmlns="http://www.w3.org/2000/svg">
<g clip-path="url(#clip0_151_2322)">
<path d="M23.2539 16.1735C23.7362 14.8736 24.0002 13.4674 24.0002 11.9996C24.0002 10.5318 23.7362 9.12565 23.2539 7.82571L12.0002 6.78223L0.746635 7.82571C0.264291 9.12565 0.000244141 10.5318 0.000244141 11.9996C0.000244141 13.4674 0.264291 14.8736 0.746635 16.1735L12.0002 17.217L23.2539 16.1735Z" fill="#6DA544"/>
<path d="M23.2538 7.82611C21.5583 3.2565 17.1598 0 12.0002 0C6.84061 0 2.4421 3.2565 0.746582 7.82611H23.2538Z" fill="#FFDA44"/>
<path d="M12.0002 23.9999C17.1598 23.9999 21.5583 20.7434 23.2538 16.1738H0.746582C2.4421 20.7434 6.84061 23.9999 12.0002 23.9999Z" fill="#D80027"/>
<path d="M20.229 10.1524H13.9427L12.0001 4.17383L10.0575 10.1524H3.77124L8.85694 13.8474L6.91435 19.826L12.0001 16.1738L17.0858 19.826L15.1433 13.8473L20.229 10.1524Z" fill="#F0F0F0"/>
</g>
<defs>
<clipPath id="clip0_151_2322">
<rect width="24" height="24" fill="white"/>
</clipPath>
</defs>
</svg>
