<svg width="24" height="24" viewBox="0 0 24 24" fill="none" xmlns="http://www.w3.org/2000/svg">
<g clip-path="url(#clip0_151_2858)">
<path d="M12 24C18.6274 24 24 18.6274 24 12C24 5.37258 18.6274 0 12 0C5.37258 0 0 5.37258 0 12C0 18.6274 5.37258 24 12 24Z" fill="#FFDA44"/>
<path d="M9.39153 10.4348H23.8986C23.1316 4.54697 18.0971 0 12.0002 0C11.1042 0 10.2314 0.0990469 9.39148 0.285234V10.4348H9.39153Z" fill="#0052B4"/>
<path d="M6.26097 10.4347V1.45898C2.96593 3.25683 0.607138 6.55453 0.101685 10.4347H6.26097V10.4347Z" fill="#0052B4"/>
<path d="M6.26092 13.5654H0.101685C0.607138 17.4456 2.96593 20.7433 6.26097 22.5411L6.26092 13.5654Z" fill="#0052B4"/>
<path d="M9.39148 13.5655V23.715C10.2314 23.9012 11.1042 24.0002 12.0002 24.0002C18.0971 24.0002 23.1316 19.4533 23.8986 13.5654H9.39148V13.5655Z" fill="#0052B4"/>
</g>
<defs>
<clipPath id="clip0_151_2858">
<rect width="24" height="24" fill="white"/>
</clipPath>
</defs>
</svg>
