<svg width="24" height="24" viewBox="0 0 24 24" fill="none" xmlns="http://www.w3.org/2000/svg">
<g clip-path="url(#clip0_151_2802)">
<path d="M11.9997 24C18.6271 24 23.9997 18.6274 23.9997 12C23.9997 5.37257 18.6271 0 11.9997 0C5.37233 0 -0.000244141 5.37257 -0.000244141 12C-0.000244141 18.6274 5.37233 24 11.9997 24Z" fill="#FFDA44"/>
<path d="M9.39125 2.08691H5.23648C5.05235 2.21277 4.87216 2.34379 4.69559 2.4794L3.6521 11.9999L4.69559 21.5204C4.87216 21.6561 5.05235 21.7871 5.23648 21.9129H9.39125V2.08691Z" fill="#FF9811"/>
<path d="M0.000244141 12.0001C0.000244141 15.8787 1.84094 19.327 4.69591 21.5206V2.47949C1.84094 4.67315 0.000244141 8.12138 0.000244141 12.0001Z" fill="#6DA544"/>
<path d="M19.3044 7.31543V7.61566L19.3156 7.61735L19.3044 7.31543Z" fill="#FFDA44"/>
<path d="M23.0435 15.1304H20.7826L19.8261 16.1739V18.2608H17.7391V17.2174H18.7826V15.1304H14.087V16.4347H13.0435V13.9489C12.7233 13.6623 12.5217 13.246 12.5217 12.7825V5.99995C12.5217 5.13553 13.2225 4.43475 14.087 4.43475V14.0869H16.1739L16.89 13.4902C16.7649 13.1923 16.6956 12.8651 16.6956 12.5217V10.9565H15.1304V7.82611H18.2609C18.2609 7.30439 19.0435 6.78263 19.0435 6.78263C19.0435 6.78263 19.8261 7.30435 19.8261 7.82611V8.60874V10.9566C20.4066 10.9635 21.3288 10.9484 22.3251 10.9566C22.0634 10.4991 21.913 9.95621 21.913 9.39137C21.913 8.47069 22.3105 7.64297 22.9433 7.07016C22.0313 5.04914 20.576 3.32592 18.7634 2.08691H10.9565V21.913H18.7635C20.9675 20.4064 22.6433 18.184 23.4563 15.5807L23.0435 15.1304Z" fill="#A2001D"/>
</g>
<defs>
<clipPath id="clip0_151_2802">
<rect width="24" height="24" fill="white"/>
</clipPath>
</defs>
</svg>
