<svg width="24" height="24" viewBox="0 0 24 24" fill="none" xmlns="http://www.w3.org/2000/svg">
<g clip-path="url(#clip0_151_1305)">
<path d="M0.566625 8.34789C0.199031 9.49956 -4.68667e-05 10.7264 8.276e-09 12.0001C-4.68667e-05 13.2736 0.199031 14.5005 0.566672 15.6522L12 16.174L23.4333 15.6522C23.8008 14.5005 24 13.2736 24 12.0001C24 10.7265 23.8009 9.49956 23.4333 8.34789L12 7.82617L0.566625 8.34789Z" fill="#F0F0F0"/>
<path d="M23.9998 12.0001C23.9998 11.2882 23.9374 10.5909 23.8185 9.91309H0.181068C0.0620996 10.5909 -0.000244141 11.2881 -0.000244141 12.0001C-0.000244141 12.712 0.0621465 13.4092 0.181068 14.087H23.8185C23.9374 13.4092 23.9998 12.7119 23.9998 12.0001Z" fill="black"/>
<path d="M12.0002 24.0002C17.3541 24.0002 21.8883 20.4938 23.4335 15.6523H0.566895C2.11213 20.4938 6.6464 24.0001 12.0002 24.0002Z" fill="#338AF3"/>
<path d="M12 1.87984e-09C6.6462 1.87984e-09 2.11198 3.50639 0.56665 8.34773L23.4332 8.34778C21.8881 3.50639 17.3538 -9.37481e-05 12 1.87984e-09Z" fill="#338AF3"/>
</g>
<defs>
<clipPath id="clip0_151_1305">
<rect width="24" height="24" fill="white"/>
</clipPath>
</defs>
</svg>
