<svg width="24" height="24" viewBox="0 0 24 24" fill="none" xmlns="http://www.w3.org/2000/svg">
<g clip-path="url(#clip0_151_1733)">
<path d="M12.0002 24C18.6277 24 24.0002 18.6274 24.0002 12C24.0002 5.37258 18.6277 0 12.0002 0C5.37283 0 0.000244141 5.37258 0.000244141 12C0.000244141 18.6274 5.37283 24 12.0002 24Z" fill="#F0F0F0"/>
<path d="M23.8987 10.4348H13.5655H13.5655V0.101578C13.0531 0.034875 12.5307 0 12.0002 0C11.4698 0 10.9474 0.034875 10.435 0.101578V10.4347V10.4347H0.101822C0.0351191 10.9471 0.000244141 11.4694 0.000244141 12C0.000244141 12.5306 0.0351191 13.0529 0.101822 13.5652H10.4349H10.435V23.8984C10.9474 23.9651 11.4698 24 12.0002 24C12.5307 24 13.0531 23.9652 13.5654 23.8984V13.5653V13.5653H23.8987C23.9654 13.0529 24.0002 12.5306 24.0002 12C24.0002 11.4694 23.9654 10.9471 23.8987 10.4348Z" fill="#D80027"/>
</g>
<defs>
<clipPath id="clip0_151_1733">
<rect width="24" height="24" fill="white"/>
</clipPath>
</defs>
</svg>
