<svg width="24" height="24" viewBox="0 0 24 24" fill="none" xmlns="http://www.w3.org/2000/svg">
<g clip-path="url(#clip0_151_2546)">
<path d="M12 24C18.6274 24 24 18.6274 24 12C24 5.37258 18.6274 0 12 0C5.37258 0 0 5.37258 0 12C0 18.6274 5.37258 24 12 24Z" fill="#F0F0F0"/>
<path d="M11.9997 0C8.07381 0 4.58842 1.88545 2.39917 4.8H21.6002C19.4109 1.88545 15.9256 0 11.9997 0Z" fill="#D80027"/>
<path d="M11.9997 24.0002C15.9256 24.0002 19.4109 22.1147 21.6002 19.2002H2.39917C4.58842 22.1147 8.07381 24.0002 11.9997 24.0002Z" fill="#D80027"/>
<path d="M-0.000244141 12.0006C-0.000244141 12.8225 0.0826309 13.6251 0.240084 14.4006H23.7595C23.917 13.6251 23.9998 12.8225 23.9998 12.0006C23.9998 11.1786 23.9169 10.376 23.7595 9.60059H0.240084C0.0826309 10.376 -0.000244141 11.1786 -0.000244141 12.0006H-0.000244141Z" fill="#D80027"/>
<path d="M3.51471 3.51465C-1.17157 8.20093 -1.17157 15.7989 3.51471 20.4853C5.45126 18.5487 7.31374 16.6862 12 12L3.51471 3.51465Z" fill="#0052B4"/>
<path d="M4.8567 8.86914L5.63365 11.2605H8.14831L6.11403 12.7386L6.89094 15.13L4.8567 13.652L2.82237 15.13L3.59947 12.7386L1.56519 11.2605H4.07965L4.8567 8.86914Z" fill="#F0F0F0"/>
</g>
<defs>
<clipPath id="clip0_151_2546">
<rect width="24" height="24" fill="white"/>
</clipPath>
</defs>
</svg>
