<svg width="24" height="24" viewBox="0 0 24 24" fill="none" xmlns="http://www.w3.org/2000/svg">
<g clip-path="url(#clip0_151_2881)">
<path d="M1.19072 6.78274C0.427875 8.36037 0 10.1303 0 12.0001C0 13.87 0.427875 15.6399 1.19072 17.2175L12 18.261L22.8093 17.2175C23.5721 15.6399 24 13.87 24 12.0001C24 10.1303 23.5721 8.36037 22.8093 6.78274L12 5.73926L1.19072 6.78274Z" fill="#F0F0F0"/>
<path d="M1.19092 17.2178C3.13187 21.2317 7.24229 24.0004 11.9998 24.0004C16.7573 24.0004 20.8677 21.2317 22.8086 17.2178H1.19092Z" fill="#6DA544"/>
<path d="M1.19092 6.78263H22.8086C20.8677 2.76872 16.7573 0 11.9998 0C7.24229 0 3.13187 2.76872 1.19092 6.78263Z" fill="#D80027"/>
<path d="M9.91284 15.1302H14.0868V13.3563L13.252 13.7737L11.9998 12.5215L10.7476 13.7737L9.91284 13.3563V15.1302Z" fill="#FFDA44"/>
<path d="M7.52479 13.043L7.71909 13.6408H8.34769L7.83909 14.0103L8.03339 14.6082L7.52479 14.2387L7.0162 14.6082L7.2105 14.0103L6.7019 13.6408H7.3305L7.52479 13.043Z" fill="#FFDA44"/>
<path d="M8.12709 10.9561L8.32139 11.5539H8.94998L8.44139 11.9234L8.63564 12.5213L8.12709 12.1518L7.6185 12.5213L7.81279 11.9234L7.3042 11.5539H7.93279L8.12709 10.9561Z" fill="#FFDA44"/>
<path d="M9.84877 9.39062L10.0431 9.98847H10.6716L10.1631 10.358L10.3573 10.9558L9.84877 10.5864L9.34022 10.9558L9.53447 10.358L9.02588 9.98847H9.65452L9.84877 9.39062Z" fill="#FFDA44"/>
<path d="M16.475 13.043L16.2807 13.6408H15.6521L16.1607 14.0103L15.9664 14.6082L16.475 14.2387L16.9835 14.6082L16.7893 14.0103L17.2979 13.6408H16.6693L16.475 13.043Z" fill="#FFDA44"/>
<path d="M15.8727 10.9561L15.6784 11.5539H15.0498L15.5584 11.9234L15.3641 12.5213L15.8727 12.1518L16.3813 12.5213L16.187 11.9234L16.6956 11.5539H16.067L15.8727 10.9561Z" fill="#FFDA44"/>
<path d="M14.1507 9.39062L13.9564 9.98847H13.3279L13.8364 10.358L13.6421 10.9558L14.1507 10.5864L14.6593 10.9558L14.465 10.358L14.9736 9.98847H14.345L14.1507 9.39062Z" fill="#FFDA44"/>
<path d="M11.9999 8.6084L12.1942 9.20624H12.8228L12.3142 9.57576L12.5085 10.1736L11.9999 9.80413L11.4913 10.1736L11.6856 9.57576L11.177 9.20624H11.8056L11.9999 8.6084Z" fill="#FFDA44"/>
</g>
<defs>
<clipPath id="clip0_151_2881">
<rect width="24" height="24" fill="white"/>
</clipPath>
</defs>
</svg>
