<svg width="24" height="24" viewBox="0 0 24 24" fill="none" xmlns="http://www.w3.org/2000/svg">
<g clip-path="url(#clip0_151_2599)">
<path d="M1.19047 6.78274C0.427631 8.36037 -0.000244141 10.1302 -0.000244141 12.0001C-0.000244141 13.87 0.427631 15.6399 1.19047 17.2175L11.9998 18.261L22.809 17.2175C23.5719 15.6399 23.9998 13.87 23.9998 12.0001C23.9998 10.1302 23.5719 8.36037 22.809 6.78274L11.9998 5.73926L1.19047 6.78274Z" fill="#F0F0F0"/>
<path d="M1.19092 17.2178C3.13182 21.2317 7.24229 24.0004 11.9998 24.0004C16.7573 24.0004 20.8677 21.2317 22.8086 17.2178H1.19092Z" fill="#496E2D"/>
<path d="M1.19092 6.78263H22.8086C20.8677 2.76867 16.7573 0 11.9998 0C7.24225 0 3.13182 2.76867 1.19092 6.78263Z" fill="black"/>
<path d="M3.51471 3.51465C-1.17157 8.20093 -1.17157 15.7989 3.51471 20.4853C5.45126 18.5487 7.31374 16.6862 12 12L3.51471 3.51465Z" fill="#D80027"/>
<path d="M15.1304 11.9998C15.1304 10.2515 16.3592 8.79091 18 8.43259C17.7478 8.37752 17.4861 8.34766 17.2174 8.34766C15.2003 8.34766 13.5652 9.98275 13.5652 11.9998C13.5652 14.0169 15.2003 15.652 17.2174 15.652C17.4861 15.652 17.7477 15.6221 18 15.5671C16.3592 15.2087 15.1304 13.7482 15.1304 11.9998Z" fill="#D80027"/>
<path d="M18.1535 9.65234L18.6716 11.2468H20.3479L18.9918 12.232L19.5098 13.8263L18.1535 12.841L16.7974 13.8263L17.3155 12.232L15.9592 11.2468H17.6355L18.1535 9.65234Z" fill="#D80027"/>
</g>
<defs>
<clipPath id="clip0_151_2599">
<rect width="24" height="24" fill="white"/>
</clipPath>
</defs>
</svg>
