<svg width="24" height="24" viewBox="0 0 24 24" fill="none" xmlns="http://www.w3.org/2000/svg">
<g clip-path="url(#clip0_151_2144)">
<path d="M23.9998 11.9998C23.9998 18.6271 18.6271 23.9998 11.9998 23.9998C5.37238 23.9998 -0.000244141 18.6271 -0.000244141 11.9998C0.521475 11.9998 11.9998 10.4346 11.9998 10.4346L23.9998 11.9998Z" fill="#D80027"/>
<path d="M-0.000244141 12C-0.000244141 5.37262 5.37238 0 11.9998 0C18.6271 0 23.9998 5.37262 23.9998 12" fill="#0052B4"/>
<path d="M8.8695 8.34748C8.8695 7.48306 8.16872 6.78228 7.3043 6.78228C6.90328 6.78228 6.5378 6.93322 6.26081 7.18114V6.26052H6.78253V5.21703H6.26081V4.69531H5.21733V5.21703H4.69561V6.26052H5.21733V7.18114C4.94035 6.93322 4.57486 6.78228 4.17385 6.78228C3.30942 6.78228 2.60864 7.48306 2.60864 8.34748C2.60864 8.81094 2.81025 9.22719 3.13036 9.51383V10.4345H8.34774V9.51383C8.66794 9.22719 8.8695 8.81094 8.8695 8.34748Z" fill="#FFDA44"/>
</g>
<defs>
<clipPath id="clip0_151_2144">
<rect width="24" height="24" fill="white"/>
</clipPath>
</defs>
</svg>
