<svg width="24" height="24" viewBox="0 0 24 24" fill="none" xmlns="http://www.w3.org/2000/svg">
<g clip-path="url(#clip0_151_2875)">
<path d="M23.9998 12C23.9998 18.6274 18.6271 24 11.9998 24C5.37238 24 -0.000244141 18.6274 -0.000244141 12C4.12147 7.87828 7.61713 4.38263 11.9998 0C18.6271 0 23.9998 5.37262 23.9998 12Z" fill="#D80027"/>
<path d="M11.9998 12C11.9998 5.37262 11.9998 4.59131 11.9998 0C5.37238 0 -0.000244141 5.37262 -0.000244141 12H11.9998Z" fill="#0052B4"/>
<path d="M10.4348 7.02317L8.96921 7.71261L9.74958 9.13194L8.15822 8.82744L7.95652 10.4351L6.84811 9.25273L5.73961 10.4351L5.53801 8.82744L3.9466 9.13184L4.72697 7.71251L3.26147 7.02317L4.72702 6.33387L3.9466 4.9145L5.53796 5.21895L5.73966 3.61133L6.84811 4.7937L7.95657 3.61133L8.15822 5.21895L9.74963 4.9145L8.96921 6.33392L10.4348 7.02317Z" fill="#F0F0F0"/>
<path d="M6.84848 9.25653C8.08214 9.25653 9.08222 8.25645 9.08222 7.0228C9.08222 5.78914 8.08214 4.78906 6.84848 4.78906C5.61482 4.78906 4.61475 5.78914 4.61475 7.0228C4.61475 8.25645 5.61482 9.25653 6.84848 9.25653Z" fill="#0052B4"/>
<path d="M6.84816 8.21253C6.19186 8.21253 5.65796 7.67858 5.65796 7.02228C5.65796 6.36598 6.19191 5.83203 6.84816 5.83203C7.50446 5.83203 8.03841 6.36598 8.03841 7.02228C8.03836 7.67858 7.50436 8.21253 6.84816 8.21253Z" fill="#F0F0F0"/>
</g>
<defs>
<clipPath id="clip0_151_2875">
<rect width="24" height="24" fill="white"/>
</clipPath>
</defs>
</svg>
