<svg width="24" height="24" viewBox="0 0 24 24" fill="none" xmlns="http://www.w3.org/2000/svg">
<g clip-path="url(#clip0_151_1744)">
<path d="M10.9566 10.9561C10.9566 10.9561 3.5218 20.4865 3.51477 20.4848C5.6863 22.6564 8.68635 23.9995 12.0001 23.9995C18.6275 23.9995 24.0001 18.6269 24.0001 11.9995L10.9566 10.9561Z" fill="#338AF3"/>
<path d="M10.9566 12C10.9566 12 3.5218 3.51305 3.51477 3.51473C5.6863 1.34316 8.68635 0 12.0001 0C18.6275 0 24.0001 5.37262 24.0001 12H10.9566Z" fill="#6DA544"/>
<path d="M3.51459 3.51465C-1.17169 8.20093 -1.17169 15.7989 3.51459 20.4853C3.51426 20.4872 23.9999 12 23.9999 12L3.51459 3.51465Z" fill="#D80027"/>
<path d="M6.26093 7.04395C3.95941 7.04395 2.08704 8.91637 2.08704 11.2178V12.783C2.08704 15.0846 3.95946 16.9569 6.26093 16.9569C8.5624 16.9569 10.4348 15.0845 10.4348 12.783V11.2178C10.4349 8.91637 8.56244 7.04395 6.26093 7.04395ZM8.86961 12.7831C8.86961 13.949 8.10077 14.9384 7.0435 15.2717V13.5657L8.15088 12.4583L7.04411 11.3516L7.0435 10.9577V10.4353H5.47835V12.0005L4.37172 13.107L5.47835 14.2136V15.2717C4.42108 14.9385 3.65224 13.949 3.65224 12.7831V11.2179C3.65224 9.77948 4.82252 8.60924 6.26093 8.60924C7.69933 8.60924 8.86961 9.77952 8.86961 11.2179V12.7831Z" fill="#FFDA44"/>
</g>
<defs>
<clipPath id="clip0_151_1744">
<rect width="24" height="24" fill="white"/>
</clipPath>
</defs>
</svg>
