<svg width="24" height="24" viewBox="0 0 24 24" fill="none" xmlns="http://www.w3.org/2000/svg">
<g clip-path="url(#clip0_151_2346)">
<path d="M11.9998 24C18.6272 24 23.9998 18.6274 23.9998 12C23.9998 5.37258 18.6272 0 11.9998 0C5.37234 0 -0.000244141 5.37258 -0.000244141 12C-0.000244141 18.6274 5.37234 24 11.9998 24Z" fill="#0052B4"/>
<path d="M11.9998 24C18.6272 24 23.9998 18.6274 23.9998 12C23.9998 5.37258 18.6272 0 11.9998 0C5.37234 0 -0.000244141 5.37258 -0.000244141 12C-0.000244141 18.6274 5.37234 24 11.9998 24Z" fill="#FFDA44"/>
<path d="M11.9997 0C5.72389 0 0.574301 4.81786 0.0454102 10.9565H23.954C23.4251 4.81786 18.2755 0 11.9997 0Z" fill="#0052B4"/>
<path d="M11.9997 24.0005C18.2755 24.0005 23.4251 19.1826 23.954 13.0439H0.0454102C0.574301 19.1826 5.72389 24.0005 11.9997 24.0005Z" fill="#0052B4"/>
<path d="M9.91312 16.1744L8.56846 16.8069L9.28448 18.1091L7.82437 17.8298L7.63936 19.3048L6.62231 18.22L5.60531 19.3048L5.42029 17.8298L3.96014 18.1091L4.6762 16.8068L3.33154 16.1744L4.67625 15.5419L3.96014 14.2397L5.42025 14.519L5.60536 13.0439L6.62231 14.1288L7.6394 13.0439L7.82437 14.519L9.28453 14.2397L8.56851 15.5419L9.91312 16.1744Z" fill="#F0F0F0"/>
</g>
<defs>
<clipPath id="clip0_151_2346">
<rect width="24" height="24" fill="white"/>
</clipPath>
</defs>
</svg>
