<svg width="24" height="24" viewBox="0 0 24 24" fill="none" xmlns="http://www.w3.org/2000/svg">
<g clip-path="url(#clip0_151_1650)">
<path d="M22.6675 6.49714C22.113 5.42281 21.3862 4.41444 20.4856 3.51388C19.585 2.61327 18.5766 1.88647 17.5023 1.33203L9.04847 9.04794L1.33252 17.5018C1.887 18.5761 2.6138 19.5845 3.51436 20.4851C4.41493 21.3857 5.42335 22.1125 6.49763 22.667L14.9515 14.951L22.6675 6.49714Z" fill="#FFDA44"/>
<path d="M3.51431 20.4858C4.0177 20.9892 4.55484 21.4381 5.11823 21.8334L21.8331 5.11848C21.4379 4.55509 20.9889 4.01795 20.4855 3.51455C19.9821 3.01116 19.445 2.56224 18.8816 2.16699L2.16675 18.8819C2.56195 19.4452 3.01087 19.9824 3.51431 20.4858Z" fill="#D80027"/>
<path d="M3.51417 3.51431C-0.271786 7.30026 -0.998583 12.9861 1.33232 17.5023L17.5021 1.33251C12.9859 -0.998347 7.30007 -0.271457 3.51417 3.51431Z" fill="#338AF3"/>
<path d="M20.4855 20.486C24.2714 16.7001 24.9981 11.0142 22.6674 6.49805L6.49756 22.6678C11.0137 24.9987 16.6996 24.2719 20.4855 20.486Z" fill="#338AF3"/>
<path d="M6.39498 3.65137L7.04251 5.64435H9.13801L7.44273 6.87604L8.09026 8.86898L6.39498 7.63724L4.69961 8.86898L5.34723 6.87604L3.65186 5.64435H5.74736L6.39498 3.65137Z" fill="#FFDA44"/>
</g>
<defs>
<clipPath id="clip0_151_1650">
<rect width="24" height="24" fill="white"/>
</clipPath>
</defs>
</svg>
