<svg width="24" height="24" viewBox="0 0 24 24" fill="none" xmlns="http://www.w3.org/2000/svg">
<g clip-path="url(#clip0_151_2045)">
<path d="M12 24C18.6274 24 24 18.6274 24 12C24 5.37258 18.6274 0 12 0C5.37258 0 0 5.37258 0 12C0 18.6274 5.37258 24 12 24Z" fill="#338AF3"/>
<path d="M18.7825 12.1309H5.21729C5.21729 13.0674 6.03296 13.8265 6.96938 13.8265H6.91294C6.91294 14.763 7.67208 15.5222 8.6086 15.5222C8.6086 16.4587 9.36774 17.2178 10.3043 17.2178H13.6956C14.6321 17.2178 15.3912 16.4587 15.3912 15.5222C16.3277 15.5222 17.0869 14.763 17.0869 13.8265H17.0304C17.9668 13.8265 18.7825 13.0674 18.7825 12.1309Z" fill="#FFDA44"/>
<path d="M16.6958 9.91309C16.6958 12.5064 14.5934 14.6087 12.0001 14.6087C9.40674 14.6087 7.30444 12.5064 7.30444 9.91309" fill="#338AF3"/>
<path d="M15.5866 9.91287L14.1211 10.6023L14.9015 12.0216L13.3101 11.7172L13.1084 13.3248L12 12.1424L10.8915 13.3248L10.6899 11.7172L9.09845 12.0215L9.87883 10.6022L8.41333 9.91287L9.87888 9.22352L9.09845 7.8042L10.6898 8.1086L10.8915 6.50098L12 7.6834L13.1085 6.50098L13.3101 8.1086L14.9015 7.8042L14.1211 9.22357L15.5866 9.91287Z" fill="#FFDA44"/>
</g>
<defs>
<clipPath id="clip0_151_2045">
<rect width="24" height="24" fill="white"/>
</clipPath>
</defs>
</svg>
