<svg width="24" height="24" viewBox="0 0 24 24" fill="none" xmlns="http://www.w3.org/2000/svg">
<g clip-path="url(#clip0_151_2089)">
<path d="M12 24C18.6274 24 24 18.6274 24 12C24 5.37258 18.6274 0 12 0C5.37258 0 0 5.37258 0 12C0 18.6274 5.37258 24 12 24Z" fill="#D80027"/>
<path d="M17.8686 11.9996L15.4707 13.1275L16.7476 15.45L14.1436 14.9518L13.8137 17.5822L11.9999 15.6477L10.1862 17.5822L9.85627 14.9518L7.25246 15.4499L8.52933 13.1274L6.13135 11.9996L8.52933 10.8718L7.25246 8.5492L9.85618 9.04748L10.1863 6.41699L11.9999 8.35157L13.8138 6.41699L14.1436 9.04748L16.7477 8.5492L15.4707 10.8719L17.8686 11.9996Z" fill="#FFDA44"/>
<path d="M11.9999 15.652C14.017 15.652 15.6521 14.0169 15.6521 11.9998C15.6521 9.98279 14.017 8.34766 11.9999 8.34766C9.98291 8.34766 8.34778 9.98279 8.34778 11.9998C8.34778 14.0169 9.98291 15.652 11.9999 15.652Z" fill="#D80027"/>
<path d="M10.1738 12C10.0858 12 9.99894 12.0045 9.91321 12.013C9.91635 12.5189 10.0993 12.9818 10.4016 13.3415C10.5628 12.9076 10.8036 12.5119 11.1072 12.1733C10.8172 12.0618 10.5027 12 10.1738 12Z" fill="#FFDA44"/>
<path d="M11.298 13.9656C11.5173 14.044 11.7536 14.0869 11.9999 14.0869C12.2463 14.0869 12.4825 14.044 12.7019 13.9656C12.5823 13.4963 12.3354 13.0773 11.9999 12.748C11.6644 13.0773 11.4176 13.4963 11.298 13.9656Z" fill="#FFDA44"/>
<path d="M13.8072 10.9569C13.4463 10.3332 12.7724 9.91309 11.9999 9.91309C11.2274 9.91309 10.5535 10.3331 10.1926 10.9569C10.8505 10.9602 11.4673 11.1391 11.9999 11.448C12.5324 11.1391 13.1492 10.9602 13.8072 10.9569Z" fill="#FFDA44"/>
<path d="M12.8925 12.1733C13.1961 12.5119 13.4368 12.9075 13.5981 13.3415C13.9003 12.9818 14.0833 12.5189 14.0865 12.013C14.0007 12.0045 13.9138 12 13.8259 12C13.4971 12 13.1825 12.0617 12.8925 12.1733Z" fill="#FFDA44"/>
</g>
<defs>
<clipPath id="clip0_151_2089">
<rect width="24" height="24" fill="white"/>
</clipPath>
</defs>
</svg>
