<svg width="24" height="24" viewBox="0 0 24 24" fill="none" xmlns="http://www.w3.org/2000/svg">
<g clip-path="url(#clip0_151_2098)">
<path d="M22.8092 6.78263C20.8682 2.76867 16.7575 0 12 0C7.24242 0 3.13167 2.76867 1.19067 6.78263L12 7.82611L22.8092 6.78263Z" fill="#D80027"/>
<path d="M1.19067 17.2173C3.13167 21.2313 7.24242 23.9999 12 23.9999C16.7575 23.9999 20.8682 21.2313 22.8092 17.2173L12 16.1738L1.19067 17.2173Z" fill="#D80027"/>
<path d="M22.8092 6.78223H1.1906C0.427753 8.3598 -0.00012207 10.1297 -0.00012207 11.9996C-0.00012207 13.8695 0.427753 15.6394 1.1906 17.217H22.8091C23.572 15.6394 23.9999 13.8695 23.9999 11.9996C23.9999 10.1297 23.5721 8.3598 22.8092 6.78223Z" fill="#0052B4"/>
<path d="M11.9999 16.174C14.3051 16.174 16.1738 14.3052 16.1738 12.0001C16.1738 9.69489 14.3051 7.82617 11.9999 7.82617C9.69476 7.82617 7.82605 9.69489 7.82605 12.0001C7.82605 14.3052 9.69476 16.174 11.9999 16.174Z" fill="#F0F0F0"/>
</g>
<defs>
<clipPath id="clip0_151_2098">
<rect width="24" height="24" fill="white"/>
</clipPath>
</defs>
</svg>
