<svg width="24" height="24" viewBox="0 0 24 24" fill="none" xmlns="http://www.w3.org/2000/svg">
<g clip-path="url(#clip0_151_2011)">
<path d="M12.0002 24C18.6277 24 24.0002 18.6274 24.0002 12C24.0002 5.37258 18.6277 0 12.0002 0C5.37283 0 0.000244141 5.37258 0.000244141 12C0.000244141 18.6274 5.37283 24 12.0002 24Z" fill="#F0F0F0"/>
<path d="M16.5185 9.39091H13.5062L12.0001 6.78223L10.4941 9.39091H7.48169L8.98797 11.9996L7.48169 14.6083H10.4941L12.0001 17.217L13.5062 14.6083H16.5185L15.0123 11.9996L16.5185 9.39091ZM13.8505 11.9996L12.9254 13.6022H11.075L10.1497 11.9996L11.0749 10.397H12.9253L13.8505 11.9996ZM12.0001 8.79443L12.3445 9.39087H11.6559L12.0001 8.79443ZM9.22446 10.397H9.91314L9.5688 10.9935L9.22446 10.397ZM9.22446 13.6022L9.56885 13.0057L9.91319 13.6022H9.22446ZM12.0001 15.2047L11.6558 14.6083H12.3445L12.0001 15.2047ZM14.7758 13.6022H14.0871L14.4315 13.0057L14.7758 13.6022ZM14.0871 10.397H14.7758L14.4314 10.9935L14.0871 10.397Z" fill="#0052B4"/>
<path d="M19.4701 2.6084H4.53033C3.43519 3.48065 2.49601 4.54012 1.76147 5.73885H22.2389C21.5043 4.54016 20.5651 3.48065 19.4701 2.6084Z" fill="#0052B4"/>
<path d="M4.53033 21.3912H19.47C20.5651 20.5189 21.5043 19.4595 22.2389 18.2607H1.76147C2.49605 19.4594 3.43524 20.5189 4.53033 21.3912Z" fill="#0052B4"/>
</g>
<defs>
<clipPath id="clip0_151_2011">
<rect width="24" height="24" fill="white"/>
</clipPath>
</defs>
</svg>
