<svg width="24" height="24" viewBox="0 0 24 24" fill="none" xmlns="http://www.w3.org/2000/svg">
<g clip-path="url(#clip0_151_1720)">
<path d="M11.9998 24C18.6272 24 23.9998 18.6274 23.9998 12C23.9998 5.37258 18.6272 0 11.9998 0C5.37234 0 -0.000244141 5.37258 -0.000244141 12C-0.000244141 18.6274 5.37234 24 11.9998 24Z" fill="#F0F0F0"/>
<path d="M11.9999 0C6.84037 0 2.44185 3.2565 0.746338 7.82611H23.2536C21.558 3.2565 17.1595 0 11.9999 0Z" fill="#D80027"/>
<path d="M11.9999 23.9999C17.1595 23.9999 21.558 20.7434 23.2536 16.1738H0.746338C2.44185 20.7434 6.84037 23.9999 11.9999 23.9999Z" fill="black"/>
<path d="M16.1738 10.6958H13.0434C13.0434 10.1195 12.5761 9.65234 11.9999 9.65234C11.4236 9.65234 10.9564 10.1195 10.9564 10.6958H7.82593C7.82593 11.2722 8.32791 11.7393 8.90419 11.7393H8.86941C8.86941 12.3156 9.33657 12.7828 9.9129 12.7828C9.9129 13.3591 10.3801 13.8263 10.9564 13.8263H13.0434C13.6197 13.8263 14.0868 13.3591 14.0868 12.7828C14.6632 12.7828 15.1303 12.3156 15.1303 11.7393H15.0956C15.6719 11.7393 16.1738 11.2722 16.1738 10.6958Z" fill="#FF9811"/>
</g>
<defs>
<clipPath id="clip0_151_1720">
<rect width="24" height="24" fill="white"/>
</clipPath>
</defs>
</svg>
