<svg width="24" height="24" viewBox="0 0 24 24" fill="none" xmlns="http://www.w3.org/2000/svg">
<g clip-path="url(#clip0_151_1489)">
<path d="M12 24C18.6274 24 24 18.6274 24 12C24 5.37258 18.6274 0 12 0C5.37258 0 0 5.37258 0 12C0 18.6274 5.37258 24 12 24Z" fill="#F0F0F0"/>
<path d="M22.5408 6.26121C20.9902 3.41923 18.3238 1.2738 15.1304 0.413086L14.6086 6.26121H22.5408Z" fill="#0052B4"/>
<path d="M1.45898 6.26121H9.39117L8.86945 0.413086C5.676 1.2738 3.00966 3.41927 1.45898 6.26121Z" fill="#0052B4"/>
<path d="M14.6089 12V17.7391H22.5411C23.4713 16.0342 24.0002 14.0789 24.0002 12H14.6089Z" fill="#6DA544"/>
<path d="M9.39156 12H0.000244141C0.000244141 14.0789 0.529135 16.0342 1.45932 17.7391H9.39151V12H9.39156Z" fill="#6DA544"/>
<path d="M1.45898 17.7393C3.00966 20.5812 5.676 22.7267 8.86945 23.5874L9.39117 18.4729L1.45898 17.7393Z" fill="#FFDA44"/>
<path d="M15.1304 23.5874C18.3238 22.7267 20.9902 20.5812 22.5408 17.7393L14.6086 18.4728L15.1304 23.5874Z" fill="#FFDA44"/>
<path d="M14.6086 18.4728L22.5409 17.7393H14.6086V18.4728Z" fill="#FFDA44"/>
<path d="M9.39122 17.7393H1.45898L9.39122 18.4728V17.7393Z" fill="#FFDA44"/>
<path d="M12.0001 0C10.9169 0 9.86779 0.144375 8.86963 0.413391V23.5867C9.86779 23.8556 10.9169 24 12.0001 24C13.0832 24 14.1324 23.8556 15.1305 23.5866V0.413391C14.1324 0.144375 13.0832 0 12.0001 0V0Z" fill="#D80027"/>
<path d="M6.45463 2.6084L6.77835 3.60482H7.82614L6.97855 4.22066L7.30231 5.21709L6.45463 4.60129L5.60699 5.21709L5.93085 4.22066L5.08325 3.60482H6.13095L6.45463 2.6084Z" fill="#FFDA44"/>
</g>
<defs>
<clipPath id="clip0_151_1489">
<rect width="24" height="24" fill="white"/>
</clipPath>
</defs>
</svg>
