<svg width="24" height="24" viewBox="0 0 24 24" fill="none" xmlns="http://www.w3.org/2000/svg">
<g clip-path="url(#clip0_151_1625)">
<path d="M0.000173974 2.08691H0V21.913H0.000173974V12V2.08691Z" fill="#FF9811"/>
<path d="M12 23.9999C18.6273 23.9999 23.9999 18.6273 23.9999 12C23.9999 5.37256 18.6273 0 12 0C5.37256 0 0 5.37256 0 12C0 18.6273 5.37256 23.9999 12 23.9999Z" fill="#F0F0F0"/>
<path d="M12.0002 0C8.0743 0 4.58895 1.88545 2.39966 4.8H21.6006C19.4114 1.88541 15.926 0 12.0002 0Z" fill="#0052B4"/>
<path d="M12.0002 24.0002C15.926 24.0002 19.4114 22.1147 21.6007 19.2002H2.39966C4.58891 22.1148 8.0743 24.0002 12.0002 24.0002Z" fill="#0052B4"/>
<path d="M0.000244141 11.9996C0.000244141 12.8216 0.0831191 13.6242 0.240572 14.3996H23.76C23.9174 13.6242 24.0002 12.8216 24.0002 11.9996C24.0002 11.1777 23.9174 10.3751 23.76 9.59961H0.240572C0.0831191 10.3751 0.000244141 11.1777 0.000244141 11.9996Z" fill="#0052B4"/>
<path d="M3.51492 3.51465C-1.17131 8.20088 -1.17131 15.7989 3.51492 20.4852C5.45147 18.5487 7.3139 16.6862 12.0002 12L3.51492 3.51465Z" fill="#D80027"/>
<path d="M4.8567 8.87012L5.63361 11.2614H8.14826L6.11403 12.7395L6.89093 15.1309L4.8567 13.6529L2.82237 15.1309L3.59947 12.7395L1.56519 11.2614H4.07965L4.8567 8.87012Z" fill="#F0F0F0"/>
</g>
<defs>
<clipPath id="clip0_151_1625">
<rect width="24" height="24" fill="white"/>
</clipPath>
</defs>
</svg>
