<svg width="24" height="24" viewBox="0 0 24 24" fill="none" xmlns="http://www.w3.org/2000/svg">
<g clip-path="url(#clip0_151_2452)">
<path d="M12 24C18.6274 24 24 18.6274 24 12C24 5.37258 18.6274 0 12 0C5.37258 0 0 5.37258 0 12C0 18.6274 5.37258 24 12 24Z" fill="#F0F0F0"/>
<path d="M0.00012207 11.9999C0.00012207 16.5484 2.5309 20.5056 6.26098 22.5408V1.45898C2.5309 3.4942 0.00012207 7.45139 0.00012207 11.9999Z" fill="#D80027"/>
<path d="M23.2538 16.174C23.7361 14.874 24.0001 13.4679 24.0001 12.0001C24.0001 10.5322 23.7361 9.12611 23.2538 7.82617H0.74656C0.264169 9.12611 0.00012207 10.5322 0.00012207 12.0001C0.00012207 13.4679 0.264169 14.874 0.74656 16.174L12.0001 17.2174L23.2538 16.174Z" fill="#D80027"/>
<path d="M12 23.9999C17.1596 23.9999 21.5581 20.7434 23.2537 16.1738H0.74646C2.44193 20.7434 6.84049 23.9999 12 23.9999Z" fill="#6DA544"/>
<path d="M0 11.9997C0 17.544 3.76036 22.2093 8.86955 23.5863V0.413086C3.76036 1.79009 0 6.45537 0 11.9997Z" fill="#D80027"/>
<path d="M7.34135 5.28059L6.23458 4.17383L5.49677 4.91173L4.75896 4.17383L3.65219 5.28059L4.39005 6.01845L3.6521 6.75636L4.75887 7.86313L5.49672 7.12522L6.23458 7.86313L7.34135 6.75636L6.60349 6.01845L7.34135 5.28059Z" fill="#F0F0F0"/>
</g>
<defs>
<clipPath id="clip0_151_2452">
<rect width="24" height="24" fill="white"/>
</clipPath>
</defs>
</svg>
