<svg width="24" height="24" viewBox="0 0 24 24" fill="none" xmlns="http://www.w3.org/2000/svg">
<g clip-path="url(#clip0_151_2063)">
<path d="M-0.000244141 12C-0.000244141 5.37262 5.37238 0 11.9998 0C18.6271 0 23.9998 5.37262 23.9998 12" fill="#D80027"/>
<path d="M16.1735 11.16L14.4679 11.9622L15.3762 13.614L13.5242 13.2597L13.2895 15.1305L11.9996 13.7545L10.7096 15.1305L10.475 13.2597L8.62298 13.6139L9.53118 11.9622L7.82568 11.16L9.53118 10.3577L8.62298 8.70605L10.4749 9.06023L10.7096 7.18945L11.9996 8.56537L13.2896 7.18945L13.5242 9.06023L15.3762 8.70605L14.4681 10.3578L16.1735 11.16Z" fill="#FFDA44"/>
<path d="M15.13 3.91348H12.7822C12.7822 3.48134 12.4318 3.13086 11.9996 3.13086C11.5674 3.13086 11.217 3.4813 11.217 3.91348H8.86914C8.86914 4.34567 9.24564 4.69611 9.67783 4.69611H9.65172C9.65172 5.1283 10.0021 5.47873 10.4343 5.47873C10.4343 5.91092 10.7847 6.26136 11.217 6.26136H12.7822C13.2143 6.26136 13.5648 5.91097 13.5648 5.47873C13.9969 5.47873 14.3474 5.12834 14.3474 4.69611H14.3213C14.7535 4.69611 15.13 4.34572 15.13 3.91348Z" fill="#FFDA44"/>
<path d="M23.9998 12C23.9998 18.6274 18.6271 24 11.9998 24C5.37238 24 -0.000244141 18.6274 -0.000244141 12H23.9998Z" fill="#F0F0F0"/>
<path d="M11.9999 24C15.751 24 19.0994 22.2785 21.3 19.583C20.9042 19.3132 20.6905 18.877 19.9998 18.877C18.9998 18.877 18.9998 19.7913 17.9998 19.7913C16.9999 19.7913 16.9999 18.877 15.9999 18.877C14.9999 18.877 14.9999 19.7913 13.9999 19.7913C12.9999 19.7913 12.9998 18.877 11.9998 18.877C10.9998 18.877 10.9998 19.7913 9.99983 19.7913C8.99999 19.7913 8.99999 18.877 8 18.877C6.99993 18.877 6.99993 19.7913 5.99985 19.7913C4.99977 19.7913 4.99977 18.877 3.99969 18.877C3.30904 18.877 3.09533 19.3131 2.69971 19.5829C4.90021 22.2785 8.24886 24 11.9999 24Z" fill="#0052B4"/>
<path d="M21.9996 13.5306C20.9996 13.5306 20.9996 12.6162 19.9996 12.6162C18.9996 12.6162 18.9996 13.5306 17.9997 13.5306C16.9997 13.5306 16.9997 12.6162 15.9998 12.6162C14.9998 12.6162 14.9998 13.5306 13.9997 13.5306C12.9997 13.5306 12.9997 12.6162 11.9996 12.6162C10.9996 12.6162 10.9996 13.5306 9.99966 13.5306C8.99982 13.5306 8.99982 12.6162 7.99983 12.6162C6.99976 12.6162 6.99976 13.5306 5.99968 13.5306C4.9996 13.5306 4.9996 12.6162 3.99952 12.6162C2.99968 12.6162 2.99968 13.5306 1.99969 13.5306C1.0051 13.5306 0.999334 12.6263 0.0153809 12.6166C0.043084 13.1655 0.108615 13.7044 0.207709 14.2314C1.00477 14.3485 1.07457 15.1305 1.99974 15.1305C2.99972 15.1305 2.99972 14.2163 3.99957 14.2163C4.99965 14.2163 4.99965 15.1305 5.99972 15.1305C6.9998 15.1305 6.9998 14.2163 7.99988 14.2163C8.99987 14.2163 8.99986 15.1305 9.99971 15.1305C10.9997 15.1305 10.9997 14.2163 11.9996 14.2163C12.9997 14.2163 12.9997 15.1305 13.9998 15.1305C14.9999 15.1305 14.9999 14.2163 15.9998 14.2163C16.9998 14.2163 16.9998 15.1305 17.9997 15.1305C18.9997 15.1305 18.9997 14.2163 19.9996 14.2163C20.9997 14.2163 20.9997 15.1305 21.9997 15.1305C22.9249 15.1305 22.9947 14.3486 23.7918 14.2314C23.891 13.7044 23.9564 13.1656 23.9843 12.6167C23.0001 12.6264 22.9943 13.5306 21.9996 13.5306Z" fill="#0052B4"/>
<path d="M19.9998 15.7471C18.9998 15.7471 18.9998 16.6614 17.9998 16.6614C16.9999 16.6614 16.9999 15.7471 15.9999 15.7471C14.9999 15.7471 14.9999 16.6614 13.9999 16.6614C12.9998 16.6614 12.9998 15.7471 11.9997 15.7471C10.9998 15.7471 10.9998 16.6614 9.99983 16.6614C8.99998 16.6614 8.99998 15.7471 8 15.7471C6.99992 15.7471 6.99992 16.6614 5.99984 16.6614C4.99977 16.6614 4.99977 15.7471 3.99969 15.7471C2.99984 15.7471 2.99984 16.6614 1.99986 16.6614C1.28534 16.6614 1.08125 16.1947 0.658203 15.9281C0.939828 16.7418 1.3062 17.5159 1.74744 18.2394C1.82417 18.2536 1.9077 18.2614 1.99986 18.2614C2.99984 18.2614 2.99984 17.3471 3.99969 17.3471C4.99977 17.3471 4.99977 18.2614 5.99984 18.2614C6.99992 18.2614 6.99992 17.3471 8 17.3471C8.99998 17.3471 8.99998 18.2614 9.99983 18.2614C10.9998 18.2614 10.9998 17.3471 11.9997 17.3471C12.9998 17.3471 12.9998 18.2614 13.9999 18.2614C15 18.2614 15 17.3471 15.9999 17.3471C16.9999 17.3471 16.9999 18.2614 17.9998 18.2614C18.9998 18.2614 18.9998 17.3471 19.9998 17.3471C20.9998 17.3471 20.9998 18.2614 21.9998 18.2614C22.092 18.2614 22.1756 18.2536 22.2523 18.2394C22.6935 17.5159 23.0599 16.7418 23.3416 15.9281C22.9185 16.1946 22.7144 16.6614 21.9998 16.6614C20.9998 16.6614 20.9998 15.7471 19.9998 15.7471Z" fill="#0052B4"/>
<path d="M23.9625 11.0518C23.0002 11.0745 22.9869 11.9651 21.9996 11.9651C20.9996 11.9651 20.9996 11.0508 19.9996 11.0508C18.9996 11.0508 18.9996 11.9651 17.9997 11.9651C16.9997 11.9651 16.9997 11.0508 15.9997 11.0508C14.9998 11.0508 14.9998 11.9651 13.9997 11.9651C12.9997 11.9651 12.9996 11.0508 11.9996 11.0508C10.9996 11.0508 10.9996 11.9651 9.99965 11.9651C8.9998 11.9651 8.9998 11.0508 7.99982 11.0508C6.99974 11.0508 6.99974 11.9651 5.99966 11.9651C4.99958 11.9651 4.99958 11.0508 3.99951 11.0508C2.99966 11.0508 2.99966 11.9651 1.99968 11.9651C1.01254 11.9651 0.999178 11.0746 0.0369277 11.0518C0.0125059 11.3647 -0.000244141 11.6808 -0.000244141 11.9999C-0.000244141 12.2184 0.00594336 12.4356 0.0176152 12.6513C0.999318 12.6623 1.00583 13.5651 1.99972 13.5651C2.99971 13.5651 2.99971 12.6508 3.99955 12.6508C4.99963 12.6508 4.99963 13.5651 5.99971 13.5651C6.99979 13.5651 6.99979 12.6508 7.99987 12.6508C8.99985 12.6508 8.99985 13.5651 9.99969 13.5651C10.9997 13.5651 10.9997 12.6508 11.9996 12.6508C12.9997 12.6508 12.9997 13.5651 13.9998 13.5651C14.9998 13.5651 14.9999 12.6508 15.9998 12.6508C16.9998 12.6508 16.9998 13.5651 17.9997 13.5651C18.9996 13.5651 18.9997 12.6508 19.9996 12.6508C20.9997 12.6508 20.9997 13.5651 21.9996 13.5651C22.9936 13.5651 23.0001 12.6623 23.982 12.6513C23.9936 12.4356 23.9998 12.2184 23.9998 11.9999C23.9998 11.6808 23.987 11.3647 23.9625 11.0518Z" fill="#F0F0F0"/>
</g>
<defs>
<clipPath id="clip0_151_2063">
<rect width="24" height="24" fill="white"/>
</clipPath>
</defs>
</svg>
