<svg width="24" height="24" viewBox="0 0 24 24" fill="none" xmlns="http://www.w3.org/2000/svg">
<g clip-path="url(#clip0_151_2115)">
<path d="M0 11.9999C0 13.8697 0.427828 15.6396 1.19072 17.2173L12 17.739L22.8093 17.2173C23.5722 15.6396 24 13.8697 24 11.9999C24 10.13 23.5722 8.36013 22.8093 6.78251L12 6.26074L1.19072 6.78246C0.427828 8.36013 0 10.13 0 11.9999H0Z" fill="#F0F0F0"/>
<path d="M12 24.0004C16.7574 24.0004 20.8682 21.2317 22.8092 17.2178H1.19067C3.13167 21.2317 7.24242 24.0004 12 24.0004Z" fill="#6DA544"/>
<path d="M12 0C7.24242 0 3.13167 2.76867 1.19067 6.78263H22.8092C20.8682 2.76867 16.7574 0 12 0Z" fill="#0052B4"/>
<path d="M12.7826 11.7387V8.86914H11.2174V11.7387L9.3269 13.6292C9.8767 14.5292 10.8682 15.13 12 15.13C13.1318 15.13 14.1232 14.5292 14.6731 13.6292L12.7826 11.7387Z" fill="black"/>
</g>
<defs>
<clipPath id="clip0_151_2115">
<rect width="24" height="24" fill="white"/>
</clipPath>
</defs>
</svg>
