<svg width="24" height="24" viewBox="0 0 24 24" fill="none" xmlns="http://www.w3.org/2000/svg">
<g clip-path="url(#clip0_151_1239)">
<path d="M12.0002 24C18.6277 24 24.0002 18.6274 24.0002 12C24.0002 5.37258 18.6277 0 12.0002 0C5.37283 0 0.000244141 5.37258 0.000244141 12C0.000244141 18.6274 5.37283 24 12.0002 24Z" fill="#FCFCFC"/>
<path d="M4.95657 11.1302L3.65222 8.76384L4.95657 6.43457L6.26091 8.76384L4.95657 11.1302Z" fill="#A2001D"/>
<path d="M2.34792 11.1302L1.04358 8.76384L2.34792 6.43457L3.65227 8.76384L2.34792 11.1302Z" fill="#A2001D"/>
<path d="M4.95657 17.5648L3.65222 15.1984L4.95657 12.8691L6.26091 15.1984L4.95657 17.5648Z" fill="#A2001D"/>
<path d="M2.34792 17.5648L1.04358 15.1984L2.34792 12.8691L3.65227 15.1984L2.34792 17.5648Z" fill="#A2001D"/>
<path d="M6.26089 2.32936L5.89161 1.66992C5.22927 2.06236 4.60804 2.51672 4.03564 3.02503L4.95655 4.6957L6.26089 2.32936Z" fill="#A2001D"/>
<path d="M4.95666 19.3047L4.026 20.9667C4.59788 21.4757 5.21869 21.9307 5.88075 22.324L6.26105 21.634L4.95666 19.3047Z" fill="#A2001D"/>
<path d="M7.30432 15.1309V23.0463C8.74662 23.6602 10.3335 24.0004 12 24.0004C17.1596 24.0004 21.5581 20.7439 23.2536 16.1743L7.30432 15.1309Z" fill="#6DA544"/>
<path d="M23.2536 16.1739C23.736 14.8739 24 13.4678 24 12C24 5.37262 18.6274 0 12 0C10.3336 0 8.74662 0.339984 7.30432 0.953812V16.1739H23.2536V16.1739Z" fill="#A2001D"/>
</g>
<defs>
<clipPath id="clip0_151_1239">
<rect width="24" height="24" fill="white"/>
</clipPath>
</defs>
</svg>
