<svg width="24" height="24" viewBox="0 0 24 24" fill="none" xmlns="http://www.w3.org/2000/svg">
<g clip-path="url(#clip0_151_1894)">
<path d="M5.23633 21.9126C7.16214 23.2291 9.49089 23.9996 11.9998 23.9996C14.5087 23.9996 16.8374 23.2291 18.7632 21.9126L11.9998 20.8691L5.23633 21.9126Z" fill="#D80027"/>
<path d="M18.7632 2.08697C16.8374 0.770484 14.5087 0 11.9998 0C9.49089 0 7.16214 0.770484 5.23633 2.08697L11.9998 3.13045L18.7632 2.08697Z" fill="#D80027"/>
<path d="M24 11.9999C24 8.02916 21.6227 4.04151 18.7635 2.08691H5.23655C2.07516 4.24804 0 7.88151 0 11.9999C0 16.1185 2.07516 19.7519 5.23655 21.913H18.7635C21.9249 19.7519 24 16.1185 24 11.9999Z" fill="#0052B4"/>
<path d="M11.321 19.5746C11.1571 19.434 7.30444 16.0848 7.30444 11.9997C7.30444 7.91462 11.157 4.56545 11.321 4.42487L12.0001 3.84277L12.6792 4.42482C12.8431 4.56545 16.6958 7.91457 16.6958 11.9997C16.6958 16.0849 12.8432 19.4341 12.6792 19.5746L12.0001 20.1567L11.321 19.5746Z" fill="#D80027"/>
<path d="M15.6522 12.0004C15.6522 8.34823 12.0001 5.21777 12.0001 5.21777C12.0001 5.21777 8.3479 8.34832 8.3479 12.0004C8.3479 13.1177 8.68995 14.1859 9.16442 15.1309H14.8357C15.3102 14.1859 15.6522 13.1177 15.6522 12.0004Z" fill="#338AF3"/>
<path d="M15.6522 12C15.6522 13.1173 15.3102 14.1855 14.8357 15.1305L12.0001 15.6522L9.16442 15.1305C8.68995 14.1855 8.3479 13.1173 8.3479 12H15.6522Z" fill="#0052B4"/>
<path d="M12 18.783C12 18.783 13.7591 17.2747 14.8356 15.1309H9.16431C10.2408 17.2747 12 18.783 12 18.783Z" fill="#FFDA44"/>
<path d="M9.6521 9.91309H14.3478L11.9999 12.2609L9.6521 9.91309Z" fill="#6DA544"/>
<path d="M11.2173 11.4785H12.7825V16.1742H11.2173V11.4785Z" fill="#A2001D"/>
</g>
<defs>
<clipPath id="clip0_151_1894">
<rect width="24" height="24" fill="white"/>
</clipPath>
</defs>
</svg>
