<svg width="24" height="24" viewBox="0 0 24 24" fill="none" xmlns="http://www.w3.org/2000/svg">
<g clip-path="url(#clip0_151_1961)">
<path d="M12 24C18.6274 24 24 18.6274 24 12C24 5.37258 18.6274 0 12 0C5.37258 0 0 5.37258 0 12C0 18.6274 5.37258 24 12 24Z" fill="#D80027"/>
<path d="M13.2392 9.07837C12.9665 10.2127 12.482 9.99637 12.2442 10.9856C10.8434 10.6488 9.9807 9.24023 10.3175 7.83937C10.6542 6.43861 12.0629 5.57592 13.4637 5.91271C12.9881 7.89117 13.4832 8.06386 13.2392 9.07837Z" fill="#F0F0F0"/>
<path d="M9.60444 9.9192C10.599 10.529 10.2435 10.9231 11.1108 11.455C10.3576 12.6832 8.75141 13.0683 7.52319 12.3151C6.29502 11.562 5.90985 9.95571 6.66304 8.72754C8.39769 9.79123 8.7148 9.37371 9.60444 9.9192Z" fill="#F0F0F0"/>
<path d="M9.28044 13.6358C10.1678 12.8784 10.4326 13.3382 11.2065 12.6777C12.1419 13.7735 12.0117 15.4202 10.916 16.3555C9.82016 17.2909 8.17353 17.1607 7.23828 16.065C8.78581 14.7439 8.4867 14.3132 9.28044 13.6358Z" fill="#F0F0F0"/>
<path d="M12.7155 15.0924C12.2692 14.0144 12.7884 13.9046 12.3994 12.9646C13.7306 12.4136 15.2565 13.0462 15.8075 14.3774C16.3584 15.7086 15.7258 17.2344 14.3946 17.7854C13.6166 15.9053 13.1146 16.0566 12.7155 15.0924Z" fill="#F0F0F0"/>
<path d="M15.1623 12.2753C13.9991 12.3665 14.055 11.8387 13.0408 11.9183C12.9282 10.4821 14.0013 9.22629 15.4376 9.11356C16.8739 9.00111 18.1297 10.0742 18.2423 11.5105C16.2137 11.6696 16.2025 12.1938 15.1623 12.2753Z" fill="#F0F0F0"/>
</g>
<defs>
<clipPath id="clip0_151_1961">
<rect width="24" height="24" fill="white"/>
</clipPath>
</defs>
</svg>
