<svg width="24" height="24" viewBox="0 0 24 24" fill="none" xmlns="http://www.w3.org/2000/svg">
<g clip-path="url(#clip0_151_2515)">
<path d="M12 24C18.6274 24 24 18.6274 24 12C24 5.37258 18.6274 0 12 0C5.37258 0 0 5.37258 0 12C0 18.6274 5.37258 24 12 24Z" fill="#F0F0F0"/>
<path d="M12 0V12L3.51465 20.4853C5.68623 22.6568 8.68623 24 12 24C18.6273 24 24 18.6274 24 12C24 5.37262 12 0 12 0Z" fill="#D80027"/>
<path d="M12 0C8.68623 0 5.68623 1.34316 3.51465 3.51469C6.45887 6.45891 7.50404 7.50412 12 12H24C24 5.37262 18.6273 0 12 0Z" fill="#0052B4"/>
<path d="M8.21674 11.9998L6.75124 11.3104L7.53166 9.89111L5.94025 10.1956L5.7386 8.58789L4.6301 9.77027L3.52164 8.58789L3.31994 10.1956L1.72858 9.89106L2.509 11.3104L1.04346 11.9998L2.509 12.6891L1.72858 14.1085L3.32008 13.804L3.5216 15.4117L4.6301 14.2293L5.7386 15.4117L5.94025 13.804L7.53157 14.1085L6.75119 12.6892L8.21674 11.9998Z" fill="#FFDA44"/>
<path d="M3.20033 4.69531L3.68802 5.37702L4.487 5.12394L3.98928 5.79837L4.47697 6.48008L3.68169 6.21519L3.18402 6.88958L3.19025 6.05145L2.39502 5.78652L3.19414 5.53344L3.20033 4.69531Z" fill="#FFDA44"/>
<path d="M3.20033 17.1094L3.68802 17.7911L4.487 17.538L3.98928 18.2124L4.47697 18.8941L3.68169 18.6292L3.18402 19.3036L3.19025 18.4655L2.39502 18.2006L3.19414 17.9475L3.20033 17.1094Z" fill="#FFDA44"/>
<path d="M10.1561 10.9023L9.66842 11.584L8.86938 11.3309L9.3671 12.0054L8.87942 12.6871L9.6747 12.4222L10.1724 13.0966L10.1661 12.2585L10.9614 11.9935L10.1623 11.7405L10.1561 10.9023Z" fill="#FFDA44"/>
</g>
<defs>
<clipPath id="clip0_151_2515">
<rect width="24" height="24" fill="white"/>
</clipPath>
</defs>
</svg>
