<svg width="24" height="24" viewBox="0 0 24 24" fill="none" xmlns="http://www.w3.org/2000/svg">
<g clip-path="url(#clip0_151_2199)">
<path d="M16.1737 0.746391C14.8738 0.264047 13.4677 0 11.9998 0C10.532 0 9.12594 0.264047 7.82596 0.746391L6.78247 12L7.82596 23.2536C9.12594 23.736 10.532 24 11.9998 24C13.4677 24 14.8738 23.736 16.1737 23.2536L17.2172 12L16.1737 0.746391Z" fill="#FFDA44"/>
<path d="M23.9999 11.9997C23.9999 6.84013 20.7434 2.44156 16.1738 0.746094V23.2534C20.7434 21.5578 23.9999 17.1593 23.9999 11.9997Z" fill="#D80027"/>
<path d="M0 11.9997C0 17.1593 3.2565 21.5577 7.82611 23.2533V0.746094C3.2565 2.44156 0 6.84012 0 11.9997Z" fill="#6DA544"/>
</g>
<defs>
<clipPath id="clip0_151_2199">
<rect width="24" height="24" fill="white"/>
</clipPath>
</defs>
</svg>
