<svg width="24" height="24" viewBox="0 0 24 24" fill="none" xmlns="http://www.w3.org/2000/svg">
<g clip-path="url(#clip0_151_1634)">
<path d="M11.9998 24C18.6272 24 23.9998 18.6274 23.9998 12C23.9998 5.37258 18.6272 0 11.9998 0C5.37234 0 -0.000244141 5.37258 -0.000244141 12C-0.000244141 18.6274 5.37234 24 11.9998 24Z" fill="#FFDA44"/>
<path d="M11.9997 23.9996C15.9372 23.9996 19.4317 22.1031 21.6199 19.1738H2.37964C4.56776 22.1031 8.06225 23.9996 11.9997 23.9996Z" fill="#0052B4"/>
<path d="M23.9998 12C23.9998 5.37262 18.6271 0 11.9998 0C5.37238 0 -0.000244141 5.37262 -0.000244141 12C-0.000244141 13.419 0.24674 14.7803 0.698943 16.0439H23.3005C23.7528 14.7803 23.9998 13.419 23.9998 12Z" fill="#0052B4"/>
<path d="M8.21335 7.69629L8.86083 9.68904H10.9563L9.2611 10.9208L9.90858 12.9137L8.21335 11.682L6.51812 12.9137L7.16569 10.9208L5.47046 9.68904H7.56586L8.21335 7.69629Z" fill="#F0F0F0"/>
<path d="M4.61493 5.60938L5.00343 6.80506H6.26075L5.24361 7.54409L5.63211 8.73983L4.61493 8.0008L3.59778 8.73983L3.98633 7.54409L2.96924 6.80506H4.22652L4.61493 5.60938Z" fill="#F0F0F0"/>
</g>
<defs>
<clipPath id="clip0_151_1634">
<rect width="24" height="24" fill="white"/>
</clipPath>
</defs>
</svg>
