<svg width="24" height="24" viewBox="0 0 24 24" fill="none" xmlns="http://www.w3.org/2000/svg">
<g clip-path="url(#clip0_151_2964)">
<path d="M11.9997 0C11.1038 0 10.231 0.0990469 9.3911 0.285234L8.86938 12L9.3911 23.7147C10.2311 23.9009 11.1038 24 11.9997 24C18.6272 24 23.9997 18.6274 23.9997 12C23.9997 5.37258 18.6272 0 11.9997 0V0Z" fill="#496E2D"/>
<path d="M3.13016 3.91699C1.1856 6.04962 -0.000244141 8.88602 -0.000244141 11.9996C-0.000244141 15.1131 1.18565 17.9495 3.13021 20.0822L3.65193 11.9996L3.13016 3.91699Z" fill="#496E2D"/>
<path d="M17.5507 9.05131C18.1411 7.40572 17.4778 5.61598 16.0543 4.72461C16.3104 4.75794 16.5667 4.81822 16.8196 4.90892C18.7182 5.59011 19.7051 7.6813 19.0239 9.57983C18.3427 11.4785 16.2516 12.4653 14.353 11.7841C14.1 11.6934 13.8638 11.5769 13.645 11.4399C15.3105 11.6568 16.9603 10.6969 17.5507 9.05131Z" fill="#F0F0F0"/>
<path d="M14.2761 4.27344L13.7631 4.93634L12.9742 4.65327L13.4461 5.34598L12.9331 6.0088L13.7377 5.77414L14.2097 6.46677L14.235 5.62902L15.0396 5.39431L14.2508 5.11133L14.2761 4.27344Z" fill="#F0F0F0"/>
<path d="M15.6614 6.43359L15.1484 7.09645L14.3595 6.81338L14.8314 7.50609L14.3184 8.16891L15.123 7.93416L15.5949 8.62692L15.6203 7.78912L16.4249 7.55438L15.636 7.27134L15.6614 6.43359Z" fill="#F0F0F0"/>
<path d="M11.834 5.06055L11.3209 5.72336L10.5321 5.44037L11.004 6.13305L10.491 6.79591L11.2955 6.5612L11.7675 7.25388L11.7929 6.41612L12.5975 6.18142L11.8086 5.89834L11.834 5.06055Z" fill="#F0F0F0"/>
<path d="M11.7776 7.53418L11.2646 8.19704L10.4757 7.91401L10.9477 8.60673L10.4346 9.26954L11.2393 9.03488L11.7112 9.72751L11.7365 8.88976L12.5412 8.65505L11.7522 8.37198L11.7776 7.53418Z" fill="#F0F0F0"/>
<path d="M14.1321 8.37891L13.6191 9.04172L12.8302 8.75869L13.3022 9.45141L12.7891 10.1142L13.5938 9.87952L14.0657 10.5722L14.091 9.73439L14.8957 9.49973L14.1067 9.2167L14.1321 8.37891Z" fill="#F0F0F0"/>
<path d="M3.13037 3.91731V20.0825C4.76537 21.8756 6.93709 23.1706 9.39123 23.7146V0.285156C6.93704 0.829188 4.76542 2.12411 3.13037 3.91731Z" fill="#D80027"/>
<path d="M5.51961 6.31822L4.47144 5.53737V4.43314L5.51961 3.65234H7.00203L8.0502 4.43314V5.53737L7.00203 6.31822H5.51961Z" fill="#F0F0F0"/>
<path d="M6.26084 3.65234H5.51961L4.47144 4.43314V4.973H6.26084V3.65234Z" fill="#FF9811"/>
<path d="M6.26074 6.31777H7.00193L8.0501 5.53693V4.97363H6.26074V6.31777Z" fill="#FF9811"/>
<path d="M5.51961 20.3475L4.47144 19.5667V18.4625L5.51961 17.6816H7.00203L8.0502 18.4625V19.5667L7.00203 20.3475H5.51961Z" fill="#F0F0F0"/>
<path d="M6.26084 17.6816H5.51961L4.47144 18.4625V19.0023H6.26084V17.6816Z" fill="#FF9811"/>
<path d="M6.26074 20.348H7.00193L8.0501 19.5672V19.0039H6.26074V20.348Z" fill="#FF9811"/>
<path d="M5.51936 13.3338L4.47119 12.553V11.4488L5.51936 10.668H7.00179L8.04996 11.4488V12.553L7.00179 13.3338H5.51936Z" fill="#496E2D"/>
<path d="M8.0867 15.0511H7.63013V14.5946H6.82787L6.26059 14.0273L5.69335 14.5946H4.89109V15.0511H4.43457V15.9642H4.89109V16.4207H5.6933L6.26063 16.988L6.82787 16.4207H7.63013V15.9642H8.0867V15.0511Z" fill="#496E2D"/>
<path d="M8.0867 8.03654H7.63013V7.57998H6.82787L6.26059 7.0127L5.69335 7.57998H4.89109V8.03654H4.43457V8.94957H4.89109V9.40609H5.6933L6.26063 9.97346L6.82787 9.40609H7.63013V8.94957H8.0867V8.03654Z" fill="#496E2D"/>
<path d="M5.73877 11.4785H6.78225V12.522H5.73877V11.4785Z" fill="#D80027"/>
<path d="M6.26049 9.01414C6.54863 9.01414 6.78221 8.78056 6.78221 8.49242C6.78221 8.20428 6.54863 7.9707 6.26049 7.9707C5.97235 7.9707 5.73877 8.20428 5.73877 8.49242C5.73877 8.78056 5.97235 9.01414 6.26049 9.01414Z" fill="#D80027"/>
<path d="M6.26049 16.0298C6.54863 16.0298 6.78221 15.7962 6.78221 15.508C6.78221 15.2199 6.54863 14.9863 6.26049 14.9863C5.97235 14.9863 5.73877 15.2199 5.73877 15.508C5.73877 15.7962 5.97235 16.0298 6.26049 16.0298Z" fill="#D80027"/>
</g>
<defs>
<clipPath id="clip0_151_2964">
<rect width="24" height="24" fill="white"/>
</clipPath>
</defs>
</svg>
