<svg width="24" height="24" viewBox="0 0 24 24" fill="none" xmlns="http://www.w3.org/2000/svg">
<g clip-path="url(#clip0_151_2395)">
<path d="M12 24C18.6274 24 24 18.6274 24 12C24 5.37258 18.6274 0 12 0C5.37258 0 0 5.37258 0 12C0 18.6274 5.37258 24 12 24Z" fill="#F0F0F0"/>
<path d="M0.000244141 11.9997C0.000244141 17.1593 3.25674 21.5577 7.82635 23.2533V0.746094C3.25674 2.44156 0.000244141 6.84012 0.000244141 11.9997Z" fill="#6DA544"/>
<path d="M24.0002 11.9997C24.0002 6.84013 20.7437 2.44156 16.1741 0.746094V23.2534C20.7437 21.5578 24.0002 17.1593 24.0002 11.9997Z" fill="#6DA544"/>
</g>
<defs>
<clipPath id="clip0_151_2395">
<rect width="24" height="24" fill="white"/>
</clipPath>
</defs>
</svg>
