<svg width="24" height="24" viewBox="0 0 24 24" fill="none" xmlns="http://www.w3.org/2000/svg">
<g clip-path="url(#clip0_151_1725)">
<path d="M11.9999 24C18.6273 24 23.9999 18.6274 23.9999 12C23.9999 5.37258 18.6273 0 11.9999 0C5.37246 0 -0.00012207 5.37258 -0.00012207 12C-0.00012207 18.6274 5.37246 24 11.9999 24Z" fill="#F0F0F0"/>
<path d="M11.9998 0C7.2423 0 3.13155 2.76867 1.19055 6.78263H22.8091C20.8681 2.76867 16.7573 0 11.9998 0Z" fill="#0052B4"/>
<path d="M11.9998 24.0004C16.7573 24.0004 20.8681 21.2317 22.8091 17.2178H1.19055C3.13155 21.2317 7.2423 24.0004 11.9998 24.0004Z" fill="#0052B4"/>
<path d="M9.58997 12.5215L11.9998 8.34766L14.4097 12.5215H9.58997Z" fill="#FFDA44"/>
<path d="M15.1303 13.8994L11.9998 15.4647L8.86938 13.8994V11.8125H15.1303V13.8994Z" fill="#6DA544"/>
<path d="M14.9513 8.52734L13.8445 9.63411C14.3166 10.1062 14.6086 10.7584 14.6086 11.4787C14.6086 12.9195 13.4406 14.0874 11.9999 14.0874C10.5592 14.0874 9.39125 12.9194 9.39125 11.4787C9.39125 10.7584 9.68328 10.1062 10.1554 9.63411L9.0486 8.52734C8.29321 9.28259 7.82605 10.3261 7.82605 11.4787C7.82605 13.784 9.69477 15.6526 11.9999 15.6526C14.3051 15.6526 16.1738 13.7839 16.1738 11.4787C16.1738 10.3261 15.7066 9.28259 14.9513 8.52734Z" fill="#FFDA44"/>
</g>
<defs>
<clipPath id="clip0_151_1725">
<rect width="24" height="24" fill="white"/>
</clipPath>
</defs>
</svg>
