<svg width="24" height="24" viewBox="0 0 24 24" fill="none" xmlns="http://www.w3.org/2000/svg">
<g clip-path="url(#clip0_151_2624)">
<path d="M11.9998 24C18.6272 24 23.9998 18.6274 23.9998 12C23.9998 5.37258 18.6272 0 11.9998 0C5.37234 0 -0.000244141 5.37258 -0.000244141 12C-0.000244141 18.6274 5.37234 24 11.9998 24Z" fill="#FFDA44"/>
<path d="M7.30425 7.82611H23.2535C21.558 3.2565 17.1594 0 11.9999 0C8.68612 0 5.68645 1.34339 3.51501 3.51511L7.30425 7.82611Z" fill="#6DA544"/>
<path d="M7.30425 16.1738H23.2535C21.558 20.7434 17.1594 23.9999 11.9999 23.9999C8.68612 23.9999 5.68645 22.6565 3.51501 20.4848L7.30425 16.1738Z" fill="#6DA544"/>
<path d="M3.51459 3.51465C-1.17169 8.20093 -1.17169 15.7989 3.51459 20.4853C5.45114 18.5487 7.31362 16.6862 11.9999 12L3.51459 3.51465Z" fill="#D80027"/>
<path d="M15.2378 9.91309L15.7558 11.5074H17.4322L16.076 12.4927L16.594 14.087L15.2378 13.1017L13.8816 14.087L14.3996 12.4927L13.0435 11.5074H14.7198L15.2378 9.91309Z" fill="black"/>
<path d="M20.4553 9.91309L20.9732 11.5074H22.6496L21.2934 12.4927L21.8114 14.087L20.4553 13.1017L19.099 14.087L19.6171 12.4927L18.2609 11.5074H19.9372L20.4553 9.91309Z" fill="black"/>
</g>
<defs>
<clipPath id="clip0_151_2624">
<rect width="24" height="24" fill="white"/>
</clipPath>
</defs>
</svg>
