<svg width="24" height="24" viewBox="0 0 24 24" fill="none" xmlns="http://www.w3.org/2000/svg">
<g clip-path="url(#clip0_151_2120)">
<path d="M11.9998 24C18.6272 24 23.9998 18.6274 23.9998 12C23.9998 5.37258 18.6272 0 11.9998 0C5.37234 0 -0.000244141 5.37258 -0.000244141 12C-0.000244141 18.6274 5.37234 24 11.9998 24Z" fill="#F0F0F0"/>
<path d="M2.74268 4.36344H21.2568C20.573 3.53539 19.7799 2.80109 18.9001 2.18164H5.09941C4.21961 2.801 3.42654 3.53534 2.74268 4.36344Z" fill="#F0F0F0"/>
<path d="M-0.000244141 12.0001C-0.000244141 12.3679 0.0172402 12.7315 0.0496309 13.091H23.9499C23.9823 12.7315 23.9998 12.3679 23.9998 12.0001C23.9998 11.6322 23.9823 11.2686 23.9499 10.9092H0.0496309C0.0172402 11.2686 -0.000244141 11.6322 -0.000244141 12.0001H-0.000244141Z" fill="#F0F0F0"/>
<path d="M1.30835 17.4542H22.6912C23.0446 16.763 23.3328 16.0331 23.5479 15.2725H0.45166C0.66677 16.0331 0.955051 16.763 1.30835 17.4542Z" fill="#F0F0F0"/>
<path d="M5.09941 21.8185H18.9C19.7798 21.1991 20.5729 20.4648 21.2568 19.6367H2.74268C3.42654 20.4647 4.21961 21.1991 5.09941 21.8185Z" fill="#F0F0F0"/>
<path d="M0.45166 8.7277H23.548C23.3328 7.96701 23.0446 7.23707 22.6913 6.5459H1.30839C0.955098 7.23707 0.666816 7.96701 0.45166 8.7277Z" fill="#F0F0F0"/>
<path d="M5.73901 2.1818H18.9002C16.9483 0.807515 14.5685 0 11.9999 0C10.4347 0 7.69089 0.807515 5.73901 2.1818Z" fill="#D80027"/>
<path d="M11.4783 6.54508H22.6914C22.2924 5.76447 21.8104 5.03327 21.2571 4.36328H11.4783V6.54508Z" fill="#D80027"/>
<path d="M11.4783 10.9093H23.9501C23.8826 10.1602 23.747 9.43062 23.5482 8.72754H11.4783V10.9093Z" fill="#D80027"/>
<path d="M0.451805 15.2726H23.5481C23.7469 14.5696 23.8826 13.84 23.9501 13.0908H0.0498047C0.117305 13.84 0.252961 14.5695 0.451805 15.2726Z" fill="#D80027"/>
<path d="M2.74272 19.6359H21.2568C21.8102 18.9658 22.2922 18.2347 22.6912 17.4541H1.30835C1.7074 18.2347 2.18937 18.9659 2.74272 19.6359Z" fill="#D80027"/>
<path d="M11.9999 24.0002C14.5685 24.0002 16.9484 23.1926 18.9003 21.8184H5.09961C7.05148 23.1926 9.43133 24.0002 11.9999 24.0002Z" fill="#D80027"/>
<path d="M0.451758 8.72728C0.252914 9.43041 0.117305 10.1599 0.0498047 10.9091H11.9999V0C6.50712 0 1.87638 3.69056 0.451758 8.72728Z" fill="#0052B4"/>
<path d="M7.14308 3.13086L7.92003 5.52219H10.4347L8.40041 7.00025L9.17731 9.39172L7.14308 7.91375L5.10875 9.39172L5.88584 7.00025L3.85156 5.52219H6.36608L7.14308 3.13086Z" fill="#F0F0F0"/>
</g>
<defs>
<clipPath id="clip0_151_2120">
<rect width="24" height="24" fill="white"/>
</clipPath>
</defs>
</svg>
