<svg width="24" height="24" viewBox="0 0 24 24" fill="none" xmlns="http://www.w3.org/2000/svg">
<g clip-path="url(#clip0_151_1376)">
<path d="M24 12C24 18.6274 18.6274 24 12 24C5.37262 24 0 18.6274 0 12C0 12.0029 12 0.0013125 12 0C18.6274 0 24 5.37262 24 12Z" fill="#0052B4"/>
<path d="M11.9678 11.9999H11.9999C11.9999 11.9891 11.9999 11.9786 11.9999 11.9678C11.9892 11.9785 11.9785 11.9892 11.9678 11.9999Z" fill="#F0F0F0"/>
<path d="M11.9998 6.26086C11.9998 4.14937 11.9998 2.76586 11.9998 0H11.9977C5.37121 0.001125 -0.000244141 5.37323 -0.000244141 12H6.26062V8.47448L9.78613 12H11.9677C11.9784 11.9893 11.9891 11.9786 11.9998 11.9679C11.9998 11.1594 11.9998 10.4381 11.9998 9.78647L8.47419 6.26086H11.9998Z" fill="#F0F0F0"/>
<path d="M6.071 1.56543C4.19417 2.63413 2.63384 4.19441 1.56519 6.07124V12.0002H4.69564V4.69598V4.69588H12C12 3.70855 12 2.76796 12 1.56543H6.071Z" fill="#D80027"/>
<path d="M17.2173 12L13.9739 15.2434C14.5818 16.4158 15.8056 17.2174 17.2173 17.2174C18.629 17.2174 19.8528 16.4158 20.4607 15.2434L17.2173 12Z" fill="#FFDA44"/>
<path d="M11.9999 10.5242L7.73637 6.26074H6.26074V6.26084L11.9998 11.9998H11.9999C11.9999 11.9998 11.9999 10.9823 11.9999 10.5242Z" fill="#D80027"/>
<path d="M13.5652 6.26074V11.9998V11.9999C13.5652 14.7955 17.2174 15.6521 17.2174 15.6521C17.2174 15.6521 20.8695 14.7955 20.8695 11.9999V11.9998V6.26074H13.5652Z" fill="#6DA544"/>
<path d="M16.4348 8.86914H18V13.043H16.4348V8.86914Z" fill="#F0F0F0"/>
<path d="M17.2172 9.65216C17.6494 9.65216 17.9998 9.30177 17.9998 8.86954C17.9998 8.43731 17.6494 8.08691 17.2172 8.08691C16.785 8.08691 16.4346 8.43731 16.4346 8.86954C16.4346 9.30177 16.785 9.65216 17.2172 9.65216Z" fill="#A2001D"/>
<path d="M14.6086 7.30469H15.6521V8.34817H14.6086V7.30469Z" fill="#FFDA44"/>
<path d="M14.6086 9.65234H15.6521V10.6958H14.6086V9.65234Z" fill="#FFDA44"/>
<path d="M14.6086 12H15.6521V13.0435H14.6086V12Z" fill="#FFDA44"/>
<path d="M18.7825 7.30469H19.826V8.34817H18.7825V7.30469Z" fill="#FFDA44"/>
<path d="M18.7825 9.65234H19.826V10.6958H18.7825V9.65234Z" fill="#FFDA44"/>
<path d="M18.7825 12H19.826V13.0435H18.7825V12Z" fill="#FFDA44"/>
</g>
<defs>
<clipPath id="clip0_151_1376">
<rect width="24" height="24" fill="white"/>
</clipPath>
</defs>
</svg>
