<svg width="24" height="24" viewBox="0 0 24 24" fill="none" xmlns="http://www.w3.org/2000/svg">
<g clip-path="url(#clip0_151_2137)">
<path d="M1.19072 6.78274C0.427875 8.36037 0 10.1302 0 12.0001C0 13.87 0.427875 15.6399 1.19072 17.2175L12 18.261L22.8093 17.2175C23.5721 15.6399 24 13.87 24 12.0001C24 10.1302 23.5721 8.36037 22.8093 6.78274L12 5.73926L1.19072 6.78274Z" fill="black"/>
<path d="M1.19092 17.2178C3.13182 21.2317 7.24225 24.0004 11.9998 24.0004C16.7573 24.0004 20.8677 21.2317 22.8086 17.2178H1.19092Z" fill="#496E2D"/>
<path d="M1.19092 6.78263H22.8086C20.8677 2.76867 16.7573 0 11.9998 0C7.24225 0 3.13182 2.76867 1.19092 6.78263Z" fill="#D80027"/>
<path d="M14.7929 9.80566L15.7775 11.1625L17.372 10.6454L16.3859 12.0011L17.3704 13.3578L15.7764 12.8388L14.7903 14.1944L14.7913 12.5181L13.1973 11.9991L14.7919 11.4821L14.7929 9.80566Z" fill="#F0F0F0"/>
<path d="M12.1059 15.3914C10.233 15.3914 8.71461 13.873 8.71461 12.0001C8.71461 10.1272 10.233 8.6088 12.1059 8.6088C12.6899 8.6088 13.2394 8.75645 13.7191 9.01642C12.9665 8.28044 11.9373 7.82617 10.8016 7.82617C8.49636 7.82617 6.62769 9.69489 6.62769 12.0001C6.62769 14.3052 8.4964 16.174 10.8016 16.174C11.9374 16.174 12.9665 15.7197 13.7191 14.9837C13.2394 15.2438 12.6899 15.3914 12.1059 15.3914Z" fill="#F0F0F0"/>
</g>
<defs>
<clipPath id="clip0_151_2137">
<rect width="24" height="24" fill="white"/>
</clipPath>
</defs>
</svg>
