<svg width="24" height="24" viewBox="0 0 24 24" fill="none" xmlns="http://www.w3.org/2000/svg">
<g clip-path="url(#clip0_151_2327)">
<path d="M12 24C18.6274 24 24 18.6274 24 12C24 5.37258 18.6274 0 12 0C5.37258 0 0 5.37258 0 12C0 18.6274 5.37258 24 12 24Z" fill="#F0F0F0"/>
<path d="M3.51475 20.485C4.01814 20.9884 4.55524 21.4374 5.11863 21.8326L21.8328 5.11838C21.4376 4.55499 20.9887 4.0179 20.4852 3.51451C19.9818 3.01112 19.4448 2.56224 18.8814 2.16699L2.16724 18.8812C2.56244 19.4445 3.01136 19.9816 3.51475 20.485Z" fill="#A2001D"/>
<path d="M3.51477 3.51514C-0.271044 7.30096 -0.997794 12.9865 1.33297 17.5026L17.5021 1.33344C12.9861 -0.997326 7.30049 -0.270482 3.51477 3.51514Z" fill="#0052B4"/>
<path d="M20.4852 20.4855C24.2709 16.6997 24.9976 11.0141 22.667 6.49805L6.4978 22.6672C11.0138 24.998 16.6994 24.2712 20.4852 20.4855Z" fill="#496E2D"/>
<path d="M9.91307 6.7828L8.56842 7.41528L9.28448 8.71756L7.82437 8.43828L7.63931 9.9132L6.62231 8.82838L5.60526 9.9132L5.42029 8.43828L3.96014 8.71752L4.67615 7.41523L3.33154 6.7828L4.6762 6.15027L3.96014 4.84808L5.42025 5.12736L5.60531 3.65234L6.62231 4.73722L7.63936 3.65234L7.82437 5.12736L9.28448 4.84808L8.56851 6.15031L9.91307 6.7828Z" fill="#FFDA44"/>
</g>
<defs>
<clipPath id="clip0_151_2327">
<rect width="24" height="24" fill="white"/>
</clipPath>
</defs>
</svg>
