<svg width="24" height="24" viewBox="0 0 24 24" fill="none" xmlns="http://www.w3.org/2000/svg">
<g clip-path="url(#clip0_151_1284)">
<path d="M20.4853 20.4855C15.799 25.1718 8.20104 25.1718 3.51471 20.4855C-1.17157 15.7992 -1.17157 8.20118 3.51471 3.51485C3.5164 3.51485 14.2987 0.328895 18.985 5.01518C23.6713 9.70146 20.4885 20.4822 20.4853 20.4855Z" fill="#FFDA44"/>
<path d="M20.4852 20.4854C25.1715 15.7991 25.1715 8.20106 20.4852 3.51473C15.7989 -1.1716 8.20098 -1.17155 3.51465 3.51473L20.4852 20.4854Z" fill="#D80027"/>
<path d="M15.1367 15.138C14.6438 15.3316 14.071 15.3111 13.5741 15.0322C12.6961 14.5395 12.3827 13.4241 12.8756 12.546L12.726 12.4621C14.2293 12.0996 15.3415 10.7351 15.322 9.12483C15.3099 8.12372 14.8626 7.22808 14.1629 6.61523L13.0673 7.7377C13.4815 8.0678 13.75 8.57414 13.7569 9.14381C13.7691 10.1507 12.9599 10.9798 11.9531 10.9919L11.9552 11.1633C10.8896 10.0427 9.15187 9.76181 7.76714 10.5838C6.90623 11.0949 6.35432 11.9301 6.17334 12.8425L7.69321 13.2301C7.77201 12.7064 8.07618 12.2206 8.56607 11.9298C9.4319 11.4158 10.5545 11.7021 11.0684 12.5679L11.216 12.4804C10.7783 13.9634 11.4038 15.6089 12.8082 16.3971C13.6813 16.8871 14.6804 16.9476 15.5611 16.6481L15.1367 15.138ZM11.9657 12.0352L11.9656 12.0352L11.9657 12.0352Z" fill="#FF9811"/>
<path d="M16.4431 8.12741L15.5949 11.1542L13.0501 10.6843L11.412 7.30762L6.98665 8.87798L6.63767 7.89454L5.47986 7.7519L6.35225 10.2104L9.39767 9.43157L10.2631 11.8704L8.15787 14.9774L11.7305 18.0245L11.0533 18.8184L11.5087 19.8926L13.2018 17.9077L11.0045 15.6597L12.6839 13.6908L16.4273 13.9605L17.2799 9.34288L18.306 9.5324L19.0086 8.60099L16.4431 8.12741ZM11.9991 12.0818V12.0819V12.0818Z" fill="#FFEACF"/>
</g>
<defs>
<clipPath id="clip0_151_1284">
<rect width="24" height="24" fill="white"/>
</clipPath>
</defs>
</svg>
