<svg width="24" height="24" viewBox="0 0 24 24" fill="none" xmlns="http://www.w3.org/2000/svg">
<g clip-path="url(#clip0_151_2947)">
<path d="M6.49763 1.33203C5.42335 1.88652 4.41493 2.61331 3.51436 3.51388C2.61375 4.41448 1.88696 5.42291 1.33252 6.49719L9.04847 14.951L17.5023 22.667C18.5767 22.1125 19.5851 21.3857 20.4856 20.4852C21.3863 19.5846 22.113 18.5762 22.6675 17.5019L14.9515 9.04799L6.49763 1.33203Z" fill="#F0F0F0"/>
<path d="M20.4856 20.4859C20.989 19.9825 21.438 19.4454 21.8332 18.882L5.11828 2.16699C4.55489 2.5622 4.01775 3.01116 3.51436 3.51455C3.01097 4.01795 2.562 4.55509 2.16675 5.11852L18.8817 21.8334C19.445 21.4382 19.9822 20.9893 20.4856 20.4859Z" fill="black"/>
<path d="M3.51431 20.4861C7.30026 24.272 12.9861 24.9988 17.5023 22.6679L1.33251 6.49805C-0.998347 11.0143 -0.271457 16.7001 3.51431 20.4861Z" fill="#D80027"/>
<path d="M20.4855 3.51437C16.6996 -0.271537 11.0138 -0.998287 6.49756 1.33248L22.6673 17.5024C24.9982 12.9862 24.2715 7.30027 20.4855 3.51437Z" fill="#D80027"/>
</g>
<defs>
<clipPath id="clip0_151_2947">
<rect width="24" height="24" fill="white"/>
</clipPath>
</defs>
</svg>
