<svg width="24" height="24" viewBox="0 0 24 24" fill="none" xmlns="http://www.w3.org/2000/svg">
<g clip-path="url(#clip0_151_2843)">
<path d="M22.8092 17.2173C23.572 15.6397 23.9999 13.8697 23.9999 11.9999C23.9999 10.13 23.572 8.36009 22.8092 6.78251L11.9999 6.26074L1.1906 6.78246C0.427753 8.36009 -0.00012207 10.13 -0.00012207 11.9999C-0.00012207 13.8697 0.427753 15.6397 1.1906 17.2173L11.9999 17.739L22.8092 17.2173Z" fill="#FFDA44"/>
<path d="M11.9998 0C7.2423 0 3.13155 2.76867 1.19055 6.78263H22.8091C20.8681 2.76867 16.7573 0 11.9998 0Z" fill="black"/>
<path d="M11.9998 24.0004C7.2423 24.0004 3.13155 21.2317 1.19055 17.2178H22.8091C20.8681 21.2317 16.7573 24.0004 11.9998 24.0004Z" fill="#0052B4"/>
<path d="M23.4332 8.34766H0.56655C0.198956 9.49933 -0.00012207 10.7263 -0.00012207 11.9998C-0.00012207 13.2734 0.198956 14.5003 0.56655 15.652H23.4332C23.8008 14.5003 23.9999 13.2734 23.9999 11.9998C23.9999 10.7263 23.8008 9.49933 23.4332 8.34766Z" fill="#A2001D"/>
<path d="M4.17371 11.4785H19.8259V12.522H4.17371V11.4785Z" fill="#FFDA44"/>
<path d="M6.26062 9.3916H17.7389V10.4351H6.26062V9.3916Z" fill="#FFDA44"/>
<path d="M17.8135 11.9996C17.8135 11.9996 15.1302 15.13 11.9998 15.13C8.86943 15.13 8.86938 11.9996 8.86938 11.9996C8.86938 11.9996 8.86939 8.86914 11.9998 8.86914C15.1303 8.86914 17.8135 11.9996 17.8135 11.9996Z" fill="#F0F0F0"/>
<path d="M11.9998 15.13C8.86938 15.13 6.18616 11.9996 6.18616 11.9996C6.18616 11.9996 8.86938 8.86914 11.9998 8.86914" fill="black"/>
<path d="M9.91284 10.957H10.9563V13.044H9.91284V10.957Z" fill="#F0F0F0"/>
<path d="M13.0433 10.957H14.0868V13.044H13.0433V10.957Z" fill="black"/>
<path d="M4.17373 13.043C4.75003 13.043 5.21722 12.5758 5.21722 11.9995C5.21722 11.4232 4.75003 10.9561 4.17373 10.9561C3.59743 10.9561 3.13025 11.4232 3.13025 11.9995C3.13025 12.5758 3.59743 13.043 4.17373 13.043Z" fill="#0052B4"/>
<path d="M19.826 13.043C20.4023 13.043 20.8694 12.5758 20.8694 11.9995C20.8694 11.4232 20.4023 10.9561 19.826 10.9561C19.2497 10.9561 18.7825 11.4232 18.7825 11.9995C18.7825 12.5758 19.2497 13.043 19.826 13.043Z" fill="#0052B4"/>
</g>
<defs>
<clipPath id="clip0_151_2843">
<rect width="24" height="24" fill="white"/>
</clipPath>
</defs>
</svg>
