<svg width="24" height="24" viewBox="0 0 24 24" fill="none" xmlns="http://www.w3.org/2000/svg">
<g clip-path="url(#clip0_151_1811)">
<path d="M12 24C18.6274 24 24 18.6274 24 12C24 5.37258 18.6274 0 12 0C5.37258 0 0 5.37258 0 12C0 18.6274 5.37258 24 12 24Z" fill="#F0F0F0"/>
<path d="M1.45923 6.26086H22.541C20.5058 2.53073 16.5487 0 12.0001 0C7.45163 0 3.49449 2.53073 1.45923 6.26086Z" fill="#D80027"/>
<path d="M12.0002 24.0001C16.5487 24.0001 20.5058 21.4694 22.5411 17.7393H1.45923C3.49449 21.4694 7.45163 24.0001 12.0002 24.0001Z" fill="#D80027"/>
<path d="M16.174 12.0001C16.174 14.3053 14.3052 15.6522 12.0001 15.6522C9.69489 15.6522 7.82617 14.3053 7.82617 12.0001C7.82617 9.69484 9.69489 7.82617 12.0001 7.82617C14.3052 7.82617 16.174 9.69484 16.174 12.0001Z" fill="#FFDA44"/>
<path d="M16.174 12C16.174 14.3052 14.3052 16.1739 12.0001 16.1739C9.69489 16.1739 7.82617 14.3052 7.82617 12" fill="#0052B4"/>
<path d="M9.39136 10.957H10.4348V13.044H9.39136V10.957Z" fill="#D80027"/>
<path d="M13.5654 10.957H14.6089V13.044H13.5654V10.957Z" fill="#D80027"/>
<path d="M11.4783 9.3916H12.5218V13.0438H11.4783V9.3916Z" fill="#D80027"/>
</g>
<defs>
<clipPath id="clip0_151_1811">
<rect width="24" height="24" fill="white"/>
</clipPath>
</defs>
</svg>
