<svg width="24" height="24" viewBox="0 0 24 24" fill="none" xmlns="http://www.w3.org/2000/svg">
<g clip-path="url(#clip0_151_2050)">
<path d="M11.9998 24C18.6272 24 23.9998 18.6274 23.9998 12C23.9998 5.37258 18.6272 0 11.9998 0C5.37234 0 -0.000244141 5.37258 -0.000244141 12C-0.000244141 18.6274 5.37234 24 11.9998 24Z" fill="#F0F0F0"/>
<path d="M12 0C7.24242 0 3.13167 2.76867 1.19067 6.78263H22.8092C20.8682 2.76867 16.7574 0 12 0Z" fill="black"/>
<path d="M12 24.0004C7.24242 24.0004 3.13167 21.2317 1.19067 17.2178H22.8092C20.8682 21.2317 16.7574 24.0004 12 24.0004Z" fill="#496E2D"/>
<path d="M23.4333 8.34766H0.566672C0.199078 9.49933 0 10.7263 0 11.9998C0 13.2734 0.199078 14.5003 0.566672 15.652H23.4333C23.8009 14.5003 24 13.2734 24 11.9998C24 10.7263 23.8009 9.49933 23.4333 8.34766Z" fill="#A2001D"/>
<path d="M15.7365 5.54557L14.3154 4.88965L11.9998 10.1327L9.68429 4.88965L8.26318 5.54557L11.1379 12.0002L8.26318 18.4549L9.68429 19.1108L11.9998 13.8678L14.3154 19.1108L15.7365 18.4549L12.8617 12.0002L15.7365 5.54557Z" fill="#F0F0F0"/>
<path d="M12.9651 6.16395C12.4149 5.56315 11.9999 5.21777 11.9999 5.21777C11.9999 5.21777 11.5848 5.5631 11.0347 6.16395V17.8368C11.5848 18.4376 11.9999 18.783 11.9999 18.783C11.9999 18.783 12.4149 18.4377 12.9651 17.8368V6.16395Z" fill="#F0F0F0"/>
<path d="M9.39111 8.4019V15.5978C9.97246 16.6279 10.684 17.4722 11.2172 18.0319V5.96777C10.684 6.52751 9.97241 7.37187 9.39111 8.4019Z" fill="#A2001D"/>
<path d="M14.6086 8.4019C14.0272 7.37182 13.3157 6.52751 12.7825 5.96777V18.0319C13.3157 17.4722 14.0272 16.6279 14.6086 15.5978V8.4019Z" fill="#A2001D"/>
<path d="M14.6086 8.40234V15.5982C15.1972 14.5553 15.6521 13.3221 15.6521 12.0003C15.6521 10.6786 15.1972 9.44531 14.6086 8.40234Z" fill="black"/>
<path d="M9.39114 8.40234V15.5982C8.80263 14.5553 8.34766 13.3221 8.34766 12.0003C8.34766 10.6786 8.80263 9.44531 9.39114 8.40234Z" fill="black"/>
</g>
<defs>
<clipPath id="clip0_151_2050">
<rect width="24" height="24" fill="white"/>
</clipPath>
</defs>
</svg>
