<svg width="24" height="24" viewBox="0 0 24 24" fill="none" xmlns="http://www.w3.org/2000/svg">
<g clip-path="url(#clip0_151_2632)">
<path d="M11.9999 24C18.6273 24 23.9999 18.6274 23.9999 12C23.9999 5.37258 18.6273 0 11.9999 0C5.37246 0 -0.00012207 5.37258 -0.00012207 12C-0.00012207 18.6274 5.37246 24 11.9999 24Z" fill="#F0F0F0"/>
<path d="M23.8983 10.4348H13.5652H13.5651V0.101578C13.0527 0.034875 12.5304 0 11.9999 0C11.4694 0 10.947 0.034875 10.4347 0.101578V10.4347V10.4347H0.101456C0.0347529 10.9471 -0.00012207 11.4695 -0.00012207 12C-0.00012207 12.5305 0.0347529 13.0529 0.101456 13.5652H10.4346H10.4346V23.8984C10.947 23.9651 11.4694 24 11.9999 24C12.5304 24 13.0527 23.9652 13.5651 23.8984V13.5653V13.5653H23.8983C23.965 13.0529 23.9999 12.5305 23.9999 12C23.9999 11.4695 23.965 10.9471 23.8983 10.4348Z" fill="#D80027"/>
<path d="M17.7391 4.17383C16.7666 4.17383 15.9496 4.83894 15.7179 5.73903L17.7391 6.26075L19.7603 5.73903C19.5286 4.83898 18.7116 4.17383 17.7391 4.17383Z" fill="black"/>
<path d="M15.6521 8.86943L18.2608 9.39115V8.28195C18.9941 8.09313 19.5714 7.51577 19.7601 6.78246L17.7391 6.26074H15.1304L15.6521 7.82594V8.86943Z" fill="black"/>
<path d="M19.7603 5.73926H15.1304V6.78274V7.82623H15.6521V6.78274H19.7601C19.8031 6.61601 19.826 6.44116 19.826 6.26102C19.826 6.08084 19.8032 5.90599 19.7603 5.73926Z" fill="#ACABB1"/>
<path d="M6.78243 4.17383C5.80996 4.17383 4.99289 4.83894 4.76123 5.73903L6.78243 6.26075L8.80364 5.73903C8.57198 4.83898 7.7549 4.17383 6.78243 4.17383Z" fill="black"/>
<path d="M4.69559 8.86943L7.30428 9.39115V8.28195C8.03764 8.09313 8.61486 7.51577 8.80363 6.78246L6.78256 6.26074H4.17383L4.69555 7.82594V8.86943H4.69559Z" fill="black"/>
<path d="M8.80377 5.73926H4.17383V6.78274V7.82623H4.69555V6.78274H8.80358C8.84652 6.61601 8.86948 6.44116 8.86948 6.26102C8.86948 6.08084 8.8467 5.90599 8.80377 5.73926Z" fill="#ACABB1"/>
<path d="M17.7391 14.6084C16.7666 14.6084 15.9496 15.2735 15.7179 16.1736L17.7391 16.6953L19.7603 16.1736C19.5286 15.2735 18.7116 14.6084 17.7391 14.6084Z" fill="black"/>
<path d="M15.6521 19.304L18.2608 19.8257V18.7165C18.9941 18.5277 19.5714 17.9503 19.7601 17.217L17.7391 16.6953H15.1304L15.6521 18.2605V19.304Z" fill="black"/>
<path d="M19.7603 16.1738H15.1304V17.2173V18.2608H15.6521V17.2173H19.7601C19.8031 17.0506 19.826 16.8757 19.826 16.6956C19.826 16.5155 19.8032 16.3406 19.7603 16.1738Z" fill="#ACABB1"/>
<path d="M6.78243 14.6084C5.80996 14.6084 4.99289 15.2735 4.76123 16.1736L6.78243 16.6953L8.80364 16.1736C8.57198 15.2735 7.7549 14.6084 6.78243 14.6084Z" fill="black"/>
<path d="M4.69559 19.304L7.30428 19.8257V18.7165C8.03764 18.5277 8.61486 17.9503 8.80363 17.217L6.78256 16.6953H4.17383L4.69555 18.2605V19.304H4.69559Z" fill="black"/>
<path d="M8.80377 16.1738H4.17383V17.2173V18.2608H4.69555V17.2173H8.80358C8.84652 17.0506 8.86948 16.8757 8.86948 16.6956C8.86948 16.5155 8.8467 16.3406 8.80377 16.1738Z" fill="#ACABB1"/>
</g>
<defs>
<clipPath id="clip0_151_2632">
<rect width="24" height="24" fill="white"/>
</clipPath>
</defs>
</svg>
