<svg width="24" height="24" viewBox="0 0 24 24" fill="none" xmlns="http://www.w3.org/2000/svg">
<g clip-path="url(#clip0_151_2074)">
<path d="M12.0002 24C18.6277 24 24.0002 18.6274 24.0002 12C24.0002 5.37258 18.6277 0 12.0002 0C5.37283 0 0.000244141 5.37258 0.000244141 12C0.000244141 18.6274 5.37283 24 12.0002 24Z" fill="#0052B4"/>
<path d="M5.27111 7.30469L5.53014 8.10194H6.36826L5.69022 8.59455L5.9492 9.39166L5.27111 8.89905L4.59297 9.39166L4.85204 8.59455L4.17395 8.10194H5.01203L5.27111 7.30469Z" fill="#F0F0F0"/>
<path d="M7.87982 6.52148L8.13886 7.31869H8.97698L8.29893 7.8113L8.55792 8.60841L7.87982 8.1158L7.20173 8.60841L7.46076 7.8113L6.78271 7.31869H7.62084L7.87982 6.52148Z" fill="#F0F0F0"/>
<path d="M10.4885 5.73926L10.7475 6.53646H11.5856L10.9076 7.02912L11.1666 7.82623L10.4885 7.33357L9.81037 7.82623L10.0694 7.02912L9.39136 6.53646H10.2295L10.4885 5.73926Z" fill="#F0F0F0"/>
<path d="M18.729 7.30469L18.47 8.10194H17.6318L18.3099 8.59455L18.0509 9.39166L18.729 8.89905L19.4071 9.39166L19.1481 8.59455L19.8261 8.10194H18.988L18.729 7.30469Z" fill="#F0F0F0"/>
<path d="M16.1203 6.52148L15.8613 7.31869H15.0232L15.7013 7.8113L15.4423 8.60841L16.1203 8.1158L16.7984 8.60841L16.5394 7.8113L17.2175 7.31869H16.3793L16.1203 6.52148Z" fill="#F0F0F0"/>
<path d="M13.5116 5.73926L13.2526 6.53646H12.4144L13.0925 7.02912L12.8335 7.82623L13.5116 7.33357L14.1897 7.82623L13.9306 7.02912L14.6087 6.53646H13.7706L13.5116 5.73926Z" fill="#F0F0F0"/>
<path d="M14.087 12.5218L12.0001 9.91309L10.9566 10.4348V11.4783L9.39138 12.5218H8.3479V13.8699C9.87734 14.4892 10.9566 15.9877 10.9566 17.7392H12.0001V16.6957L13.0436 15.6522L14.087 16.6957L15.1305 15.6522V14.6087L16.174 13.0435L14.087 12.5218Z" fill="#FFDA44"/>
</g>
<defs>
<clipPath id="clip0_151_2074">
<rect width="24" height="24" fill="white"/>
</clipPath>
</defs>
</svg>
