<svg width="24" height="24" viewBox="0 0 24 24" fill="none" xmlns="http://www.w3.org/2000/svg">
<g clip-path="url(#clip0_151_2494)">
<path d="M20.4851 20.4848C15.7988 25.1711 8.20084 25.1711 3.51446 20.4848C-1.17182 15.7985 -1.17182 8.20048 3.51451 3.51415C8.20079 -1.17213 15.0609 -0.434272 19.7472 4.25206C24.4334 8.93834 25.1713 15.7985 20.4851 20.4848Z" fill="black"/>
<path d="M3.51465 3.51467C8.20093 -1.17161 15.7989 -1.17152 20.4852 3.51472C25.1715 8.201 25.1715 15.799 20.4852 20.4853" fill="#A2001D"/>
<path d="M9.17055 16.1738L9.3648 16.7717H9.99344L9.48484 17.1412L9.67914 17.7391L9.17055 17.3696L8.66195 17.7391L8.8562 17.1412L8.34766 16.7717H8.97625L9.17055 16.1738Z" fill="#F0F0F0"/>
<path d="M7.56483 10.4346L7.88869 11.431H8.93634L8.0887 12.0468L8.41247 13.0433L7.56483 12.4274L6.71723 13.0433L7.04105 12.0468L6.19336 11.431H7.24111L7.56483 10.4346Z" fill="#F0F0F0"/>
<path d="M7.56483 17.7393L7.88859 18.7357H8.93634L8.08861 19.3515L8.41247 20.3479L7.56483 19.7321L6.71723 20.3479L7.04095 19.3515L6.19336 18.7357H7.24097L7.56483 17.7393Z" fill="#F0F0F0"/>
<path d="M10.6283 13.043L10.9521 14.0394H11.9998L11.1521 14.6552L11.4759 15.6517L10.6283 15.0358L9.78066 15.6517L10.1045 14.6552L9.25684 14.0394H10.3045L10.6283 13.043Z" fill="#F0F0F0"/>
<path d="M4.5016 13.043L4.82545 14.0394H5.87306L5.02547 14.6552L5.34919 15.6517L4.5016 15.0358L3.65396 15.6517L3.97781 14.6552L3.13013 14.0394H4.17783L4.5016 13.043Z" fill="#F0F0F0"/>
<path d="M20.0881 8.88575C19.5518 8.34945 18.855 8.03262 18.1062 7.9782L20.3477 6.23478C19.455 5.34205 18.2585 4.93887 17.0909 5.02414C16.9511 4.52183 16.6846 4.04736 16.2896 3.65234L15.4042 5.42319C15.3461 5.31734 15.2726 5.21773 15.1828 5.12806C14.6734 4.61867 13.8476 4.61867 13.3382 5.12806C12.8289 5.63745 12.8288 6.4633 13.3382 6.97269C13.4279 7.06236 13.5275 7.13591 13.6334 7.19403L11.8625 8.07945C12.2577 8.47461 12.7325 8.74128 13.235 8.88097C13.1495 10.0485 13.5523 11.2449 14.445 12.1377L16.4035 9.61962C16.5508 9.47455 16.7454 9.39444 16.9524 9.39444C17.1614 9.39444 17.3579 9.47581 17.5057 9.6237C17.6536 9.7715 17.735 9.96805 17.735 10.1771C17.735 10.3861 17.6536 10.5826 17.5057 10.7305L18.2436 11.4684C18.5885 11.1235 18.7785 10.6649 18.7785 10.1771C18.7785 9.77802 18.6512 9.39861 18.4161 9.08492C18.7586 9.17637 19.0823 9.35553 19.3504 9.6237C20.1642 10.4374 20.1642 11.7614 19.3504 12.5751L20.0883 13.313C20.6795 12.7217 21.0052 11.9356 21.0052 11.0994C21.005 10.2631 20.6794 9.47703 20.0881 8.88575Z" fill="#FFDA44"/>
</g>
<defs>
<clipPath id="clip0_151_2494">
<rect width="24" height="24" fill="white"/>
</clipPath>
</defs>
</svg>
