<svg width="24" height="24" viewBox="0 0 24 24" fill="none" xmlns="http://www.w3.org/2000/svg">
<g clip-path="url(#clip0_151_1772)">
<path d="M24 12C24 18.6274 18.6274 24 12 24C5.37262 24 0 18.6274 0 12C0 12.0029 12 0.0013125 12 0C18.6274 0 24 5.37262 24 12Z" fill="#0052B4"/>
<path d="M11.9679 11.9999H12C12 11.9891 12 11.9786 12 11.9678C11.9893 11.9785 11.9786 11.9892 11.9679 11.9999Z" fill="#F0F0F0"/>
<path d="M12 6.26086C12 4.14937 12 2.76586 12 0H11.998C5.3715 0.001125 0 5.37323 0 12H6.26086V8.47448L9.78642 12H11.9679L12 11.9679C12 11.1594 12 10.4381 12 9.78647L8.47444 6.26086H12Z" fill="#F0F0F0"/>
<path d="M6.07112 1.56543C4.19429 2.63413 2.63401 4.19441 1.56531 6.07124V12.0002H4.69576V4.69598V4.69588H12.0001C12.0001 3.70855 12.0001 2.76796 12.0001 1.56543H6.07112Z" fill="#D80027"/>
<path d="M12.0001 10.5242L7.73666 6.26074H6.26099V6.26084L12 11.9998H12.0001C12.0001 11.9998 12.0001 10.9823 12.0001 10.5242Z" fill="#D80027"/>
<path d="M19.3043 14.0869V14.6086H15.1304V14.0869H13.5652V16.1738H14.6087V16.6956H19.8261V16.1738H20.8695V14.0869H19.3043Z" fill="#FFDA44"/>
<path d="M13.5652 6.26074V11.9999C13.5652 14.7955 17.2174 15.6521 17.2174 15.6521C17.2174 15.6521 20.8695 14.7955 20.8695 11.9999V6.26074H13.5652Z" fill="#338AF3"/>
<path d="M17.2171 10.541C16.3041 10.541 16.3041 11.3758 15.3912 11.3758C14.4782 11.3758 14.4782 10.541 13.5652 10.541V12.0019C14.4782 12.0019 14.4782 12.8367 15.3912 12.8367C16.3041 12.8367 16.3041 12.0019 17.2171 12.0019C18.1302 12.0019 18.1302 12.8367 19.0433 12.8367C19.9565 12.8367 19.9564 12.0019 20.8695 12.0019V10.541C19.9564 10.541 19.9565 11.3758 19.0433 11.3758C18.1302 11.3758 18.1302 10.541 17.2171 10.541Z" fill="#F3F3F3"/>
<path d="M17.2171 7.61719C16.3041 7.61719 16.3041 8.45198 15.3912 8.45198C14.4782 8.45198 14.4782 7.61719 13.5652 7.61719V9.07805C14.4782 9.07805 14.4782 9.91284 15.3912 9.91284C16.3041 9.91284 16.3041 9.07805 17.2171 9.07805C18.1302 9.07805 18.1302 9.91284 19.0433 9.91284C19.9565 9.91284 19.9564 9.07805 20.8695 9.07805V7.61719C19.9564 7.61719 19.9565 8.45198 19.0433 8.45198C18.1302 8.45198 18.1302 7.61719 17.2171 7.61719Z" fill="#F3F3F3"/>
</g>
<defs>
<clipPath id="clip0_151_1772">
<rect width="24" height="24" fill="white"/>
</clipPath>
</defs>
</svg>
