<svg width="24" height="24" viewBox="0 0 24 24" fill="none" xmlns="http://www.w3.org/2000/svg">
<g clip-path="url(#clip0_151_2942)">
<path d="M23.5868 8.86955C22.2098 3.76036 17.5445 0 12.0002 0C6.45585 0 1.79057 3.76036 0.413574 8.86955L12.0002 9.39131L23.5868 8.86955Z" fill="#A2001D"/>
<path d="M0.413574 15.1302C1.79057 20.2393 6.45585 23.9997 12.0002 23.9997C17.5445 23.9997 22.2098 20.2394 23.5868 15.1302L12.0002 14.6084L0.413574 15.1302Z" fill="#A2001D"/>
<path d="M23.5866 8.86914H0.413391C0.144375 9.86725 0 10.9165 0 11.9996C0 13.0827 0.144375 14.1319 0.413391 15.13H23.5867C23.8556 14.1319 24 13.0827 24 11.9996C24 10.9165 23.8556 9.86725 23.5866 8.86914Z" fill="#6DA544"/>
</g>
<defs>
<clipPath id="clip0_151_2942">
<rect width="24" height="24" fill="white"/>
</clipPath>
</defs>
</svg>
