<svg width="24" height="24" viewBox="0 0 24 24" fill="none" xmlns="http://www.w3.org/2000/svg">
<g clip-path="url(#clip0_151_1943)">
<path d="M11.9999 24C18.6273 24 23.9999 18.6274 23.9999 12C23.9999 5.37258 18.6273 0 11.9999 0C5.37246 0 -0.00012207 5.37258 -0.00012207 12C-0.00012207 18.6274 5.37246 24 11.9999 24Z" fill="#F0F0F0"/>
<path d="M11.9998 24C15.0428 24 17.8207 22.8668 19.936 21H4.0636C6.17893 22.8668 8.95683 24 11.9998 24Z" fill="#D80027"/>
<path d="M0.37793 14.9999C0.651914 16.0643 1.06845 17.0714 1.60563 17.9999H22.3941C22.9313 17.0714 23.3478 16.0643 23.6218 14.9999L11.9999 14.0869L0.37793 14.9999Z" fill="#0052B4"/>
<path d="M23.6218 9C23.3478 7.93566 22.9313 6.92859 22.3941 6L11.9999 5.73914C11.9999 3.64322 11.9999 1.66242 11.9999 0C11.1084 0 10.2397 0.0972656 9.40364 0.281625C9.38761 0.285187 1.56506 6.45553 1.56506 12C1.76508 12.0348 11.9999 13.0435 11.9999 13.0435C11.9999 13.0435 11.9999 10.7578 11.9999 9H23.6218Z" fill="#0052B4"/>
<path d="M11.9999 7.48677V1.48677H8.19949L9.40403 0.282227C4.45914 1.37282 0.65969 5.51301 0.0781592 10.6303C0.0270654 11.0798 -0.00012207 11.5366 -0.00012207 11.9998H6.07816V9.6081L8.49353 11.9998H12.7866L8.19944 7.48677H11.9999Z" fill="#F0F0F0"/>
<path d="M12.0054 12.0004L7.49233 7.48736H6.07816V7.48741L10.5911 12.0004H4.56508V6.00039H22.3941C21.7408 4.87103 20.9084 3.85834 19.9361 3.00039H4.56508V2.58203C3.35439 3.53908 2.33289 4.72445 1.56508 6.07323V12.0004H-0.00012207C-0.00012207 13.0363 0.131128 14.0416 0.377925 15.0004H23.6218C23.8686 14.0415 23.9999 13.0363 23.9999 12.0004H12.0054Z" fill="#D80027"/>
</g>
<defs>
<clipPath id="clip0_151_1943">
<rect width="24" height="24" fill="white"/>
</clipPath>
</defs>
</svg>
