<svg width="24" height="24" viewBox="0 0 24 24" fill="none" xmlns="http://www.w3.org/2000/svg">
<g clip-path="url(#clip0_151_2184)">
<path d="M12 24C18.6274 24 24 18.6274 24 12C24 5.37258 18.6274 0 12 0C5.37258 0 0 5.37258 0 12C0 18.6274 5.37258 24 12 24Z" fill="#F0F0F0"/>
<path d="M11.4785 11.9996H24.0002C24.0002 10.9165 23.8559 9.8673 23.5868 8.86914H11.4785V11.9996Z" fill="#D80027"/>
<path d="M11.4785 5.73885H22.239C21.5044 4.54016 20.5652 3.48065 19.4701 2.6084H11.4785V5.73885Z" fill="#D80027"/>
<path d="M12.0001 23.9993C14.8243 23.9993 17.4201 23.0232 19.47 21.3906H4.53027C6.58016 23.0232 9.17596 23.9993 12.0001 23.9993Z" fill="#D80027"/>
<path d="M1.76146 18.2603H22.2389C22.8286 17.2981 23.2859 16.2462 23.5868 15.1299H0.413574C0.714371 16.2462 1.17173 17.2981 1.76146 18.2603Z" fill="#D80027"/>
<path d="M12 12C12 5.37262 12 4.59131 12 0C5.37262 0 0 5.37262 0 12H12Z" fill="#0052B4"/>
<path d="M7.97952 10.2718C6.34068 10.2718 5.01214 8.94327 5.01214 7.30447C5.01214 5.66567 6.34072 4.33709 7.97952 4.33709C8.4905 4.33709 8.9713 4.46633 9.39107 4.69377C8.73257 4.04984 7.832 3.65234 6.83821 3.65234C4.82122 3.65234 3.18604 5.28748 3.18604 7.30452C3.18604 9.32155 4.82122 10.9567 6.83821 10.9567C7.832 10.9567 8.73257 10.5592 9.39107 9.91527C8.9713 10.1426 8.49055 10.2718 7.97952 10.2718Z" fill="#FFDA44"/>
<path d="M8.81574 5.21777L9.34256 6.31943L10.5323 6.04455L9.99952 7.14326L10.9563 7.90202L9.76505 8.17057L9.76838 9.39171L8.81574 8.62774L7.86305 9.39171L7.86633 8.17057L6.67505 7.90202L7.63186 7.14326L7.09903 6.04455L8.28886 6.31943L8.81574 5.21777Z" fill="#FFDA44"/>
</g>
<defs>
<clipPath id="clip0_151_2184">
<rect width="24" height="24" fill="white"/>
</clipPath>
</defs>
</svg>
