<svg width="24" height="24" viewBox="0 0 24 24" fill="none" xmlns="http://www.w3.org/2000/svg">
<g clip-path="url(#clip0_151_1443)">
<path d="M12.0002 24C18.6277 24 24.0002 18.6274 24.0002 12C24.0002 5.37258 18.6277 0 12.0002 0C5.37283 0 0.000244141 5.37258 0.000244141 12C0.000244141 18.6274 5.37283 24 12.0002 24Z" fill="#F0F0F0"/>
<path d="M23.9999 11.9997C23.9999 7.24218 21.2312 3.13143 17.2173 1.19043V22.8089C21.2312 20.868 23.9999 16.7572 23.9999 11.9997Z" fill="#D80027"/>
<path d="M0.000244141 11.9997C0.000244141 16.7572 2.76892 20.868 6.78287 22.809V1.19043C2.76892 3.13143 0.000244141 7.24218 0.000244141 11.9997Z" fill="#D80027"/>
<path d="M14.087 13.565L16.174 12.5215L15.1305 11.9998V10.9563L13.0435 11.9998L14.087 9.91286H13.0435L12.0001 8.34766L10.9566 9.91286H9.91309L10.9566 11.9998L8.86961 10.9563V11.9998L7.82617 12.5215L9.91309 13.565L9.39138 14.6085H11.4783V16.1737H12.5218V14.6085H14.6088L14.087 13.565Z" fill="#D80027"/>
</g>
<defs>
<clipPath id="clip0_151_1443">
<rect width="24" height="24" fill="white"/>
</clipPath>
</defs>
</svg>
