<svg width="24" height="24" viewBox="0 0 24 24" fill="none" xmlns="http://www.w3.org/2000/svg">
<g clip-path="url(#clip0_151_2195)">
<path d="M11.9998 24C18.6272 24 23.9998 18.6274 23.9998 12C23.9998 5.37258 18.6272 0 11.9998 0C5.37234 0 -0.000244141 5.37258 -0.000244141 12C-0.000244141 18.6274 5.37234 24 11.9998 24Z" fill="#D80027"/>
<path d="M4.17383 6.26074H19.826V17.739H4.17383V6.26074Z" fill="#6DA544"/>
<path d="M13.9326 15.3914C12.0596 15.3914 10.5413 13.873 10.5413 12.0001C10.5413 10.1272 12.0596 8.6088 13.9326 8.6088C14.5165 8.6088 15.0661 8.75645 15.5458 9.01642C14.7932 8.28044 13.7641 7.82617 12.6282 7.82617C10.3231 7.82617 8.45435 9.69489 8.45435 12.0001C8.45435 14.3052 10.3231 16.174 12.6282 16.174C13.7641 16.174 14.7933 15.7197 15.5458 14.9837C15.0661 15.2438 14.5165 15.3914 13.9326 15.3914Z" fill="#F0F0F0"/>
</g>
<defs>
<clipPath id="clip0_151_2195">
<rect width="24" height="24" fill="white"/>
</clipPath>
</defs>
</svg>
