<svg width="24" height="24" viewBox="0 0 24 24" fill="none" xmlns="http://www.w3.org/2000/svg">
<g clip-path="url(#clip0_151_2577)">
<path d="M16.1737 0.746344C14.8737 0.264047 13.4677 6.23894e-09 11.9998 6.23894e-09C10.532 -4.68688e-05 9.12594 0.264047 7.82596 0.746344L6.78247 12L7.82596 23.2536C9.12589 23.736 10.532 24 11.9998 24C13.4676 24 14.8738 23.736 16.1737 23.2536L17.2172 12L16.1737 0.746344Z" fill="#FFDA44"/>
<path d="M23.9999 11.9997C23.9999 6.84017 20.7434 2.44156 16.1738 0.746094V23.2534C20.7434 21.5577 23.9999 17.1593 23.9999 11.9997Z" fill="#D80027"/>
<path d="M-0.000244141 11.9996C-0.000244141 17.1593 3.25626 21.5577 7.82577 23.2533L7.82582 0.746094C3.25626 2.44156 -0.000244141 6.84003 -0.000244141 11.9996H-0.000244141Z" fill="#0052B4"/>
</g>
<defs>
<clipPath id="clip0_151_2577">
<rect width="24" height="24" fill="white"/>
</clipPath>
</defs>
</svg>
