<svg width="24" height="24" viewBox="0 0 24 24" fill="none" xmlns="http://www.w3.org/2000/svg">
<g clip-path="url(#clip0_151_1226)">
<path d="M11.9999 24C18.6273 24 23.9999 18.6274 23.9999 12C23.9999 5.37258 18.6273 0 11.9999 0C5.37246 0 -0.00012207 5.37258 -0.00012207 12C-0.00012207 18.6274 5.37246 24 11.9999 24Z" fill="#F0F0F0"/>
<path d="M0.10144 13.5654C0.380628 15.7082 1.22541 17.673 2.48058 19.3059L8.86936 13.5654H0.10144Z" fill="#D80027"/>
<path d="M10.4346 23.8988V15.1309L4.69409 21.5197C6.32708 22.7749 8.29179 23.6197 10.4346 23.8988Z" fill="#D80027"/>
<path d="M10.4346 0.101562C8.29179 0.38075 6.32708 1.22553 4.69409 2.4807L10.4346 8.86958V0.101562Z" fill="#D80027"/>
<path d="M0.10144 10.4348H8.86936L2.48053 4.69434C1.22536 6.32727 0.380581 8.29204 0.10144 10.4348Z" fill="#D80027"/>
<path d="M13.5649 0.101562V8.86953L19.3055 2.4807C17.6726 1.22563 15.7078 0.380703 13.5649 0.101562Z" fill="#D80027"/>
<path d="M23.8982 10.4349C23.619 8.29209 22.7742 6.32732 21.5191 4.69434L15.1302 10.4349H23.8982Z" fill="#D80027"/>
<path d="M15.1302 13.5654L21.5191 19.306C22.7743 17.673 23.6191 15.7082 23.8983 13.5654H15.1302Z" fill="#D80027"/>
<path d="M13.5649 23.8988C15.7077 23.6196 17.6726 22.7749 19.3055 21.5196L13.5649 15.1309V23.8988Z" fill="#D80027"/>
<path d="M21.5201 19.3064L14.2135 11.9998L14.2134 11.9997L21.5201 4.69302C21.205 4.28352 20.8602 3.88959 20.4851 3.5144C20.1101 3.1393 19.7161 2.79454 19.3065 2.47949L11.9999 9.78613H11.9998L4.69319 2.47949C4.28369 2.79459 3.88971 3.13926 3.51452 3.5144C3.13943 3.88959 2.79466 4.28352 2.47961 4.69307L9.78626 11.9997L9.7863 11.9997L2.47966 19.3064C2.79475 19.7159 3.13947 20.1098 3.51457 20.485C3.88971 20.8601 4.28369 21.2049 4.69324 21.5199L11.9998 14.2133L19.3065 21.5199C19.716 21.2048 20.11 20.8601 20.4851 20.485C20.8603 20.1098 21.205 19.7159 21.5201 19.3064Z" fill="#496E2D"/>
<path d="M13.5651 23.8984V13.5653V13.5653H23.8983C23.9651 13.0529 23.9999 12.5305 23.9999 12C23.9999 11.4696 23.965 10.9472 23.8983 10.4348H13.5652L13.5651 10.4348V0.101625C13.0528 0.0349219 12.5305 0 11.9999 0C11.4694 4.6875e-05 10.947 0.0349219 10.4347 0.101625L10.4347 10.4347V10.4348H0.101503C0.0347529 10.9471 -0.00012207 11.4695 -0.00012207 12C-7.51953e-05 12.5306 0.0347529 13.0529 0.101503 13.5652H10.4346L10.4347 23.8984C10.9471 23.9651 11.4693 24 11.9999 24C12.5305 24 13.0528 23.9651 13.5651 23.8984Z" fill="#F0F0F0"/>
</g>
<defs>
<clipPath id="clip0_151_1226">
<rect width="24" height="24" fill="white"/>
</clipPath>
</defs>
</svg>
