<svg width="24" height="24" viewBox="0 0 24 24" fill="none" xmlns="http://www.w3.org/2000/svg">
<g clip-path="url(#clip0_151_1858)">
<path d="M11.9998 24C18.6272 24 23.9998 18.6274 23.9998 12C23.9998 5.37258 18.6272 0 11.9998 0C5.37234 0 -0.000244141 5.37258 -0.000244141 12C-0.000244141 18.6274 5.37234 24 11.9998 24Z" fill="#F0F0F0"/>
<path d="M11.9998 8.86971H23.5864C23.2855 7.75343 22.8282 6.70151 22.2385 5.73926H11.9998V8.86971Z" fill="#338AF3"/>
<path d="M4.52985 21.3912H19.4695C20.5647 20.5189 21.5038 19.4595 22.2384 18.2607H1.76099C2.49556 19.4594 3.43475 20.5189 4.52985 21.3912Z" fill="#338AF3"/>
<path d="M4.1736 2.90332C3.23019 3.71571 2.41461 4.67238 1.76099 5.73907H4.1736V2.90332Z" fill="#338AF3"/>
<path d="M11.9998 11.9996C11.9998 10.7773 11.9998 9.75433 11.9998 8.86914H7.3041V11.9996H4.17365V8.86914H0.413146C0.144131 9.8673 -0.000244141 10.9165 -0.000244141 11.9996C-0.000244141 13.0827 0.144131 14.1319 0.413146 15.13H23.5864C23.8554 14.1319 23.9998 13.0827 23.9998 11.9996H11.9998Z" fill="#338AF3"/>
<path d="M11.9999 0C10.3335 0 8.74654 0.339984 7.3042 0.953812V5.73914H11.9999C11.9999 4.64639 11.9999 3.717 11.9999 2.60869H19.4697C17.4198 0.976125 14.824 0 11.9999 0Z" fill="#338AF3"/>
</g>
<defs>
<clipPath id="clip0_151_1858">
<rect width="24" height="24" fill="white"/>
</clipPath>
</defs>
</svg>
