<svg width="24" height="24" viewBox="0 0 24 24" fill="none" xmlns="http://www.w3.org/2000/svg">
<g clip-path="url(#clip0_151_1753)">
<path d="M0.00012207 11.9996C0.00012207 13.4675 0.264169 14.8736 0.74656 16.1736L12.0001 17.217L23.2537 16.1736C23.7361 14.8736 24.0001 13.4675 24.0001 11.9996C24.0001 10.5519 23.7437 9.16404 23.2738 7.87905L12.0001 6.78223L0.726403 7.8791C0.256575 9.16404 0.00012207 10.5519 0.00012207 11.9996H0.00012207Z" fill="#FFDA44"/>
<path d="M12.0001 23.9999C17.1596 23.9999 21.5582 20.7434 23.2537 16.1738H0.74646C2.44198 20.7434 6.84049 23.9999 12.0001 23.9999Z" fill="#D80027"/>
<path d="M12.0001 0C6.84049 0 2.44198 3.2565 0.74646 7.82611H23.2537C21.5582 3.2565 17.1596 0 12.0001 0Z" fill="#6DA544"/>
<path d="M12.0001 17.739C15.1698 17.739 17.7393 15.1695 17.7393 11.9999C17.7393 8.83024 15.1698 6.26074 12.0001 6.26074C8.83049 6.26074 6.26099 8.83024 6.26099 11.9999C6.26099 15.1695 8.83049 17.739 12.0001 17.739Z" fill="#0052B4"/>
<path d="M11.9988 7.55566L13.0348 10.7442H16.3928L13.6751 12.7149L14.7192 15.9129L11.9988 13.9328L9.28244 15.9092L10.3224 12.7149L7.60718 10.7442H10.9627L11.9988 7.55566Z" fill="#FFDA44"/>
<path d="M16.1308 12.7934L12.8441 11.7254L14.8753 8.92981L14.0312 8.31641L11.9999 11.1122L9.96872 8.31645L9.1245 8.92977L11.1557 11.7256L7.86914 12.7934L8.19155 13.7859L11.4782 12.718V16.1737H12.5217V12.718L15.8082 13.7859L16.1308 12.7934Z" fill="#FFDA44"/>
</g>
<defs>
<clipPath id="clip0_151_1753">
<rect width="24" height="24" fill="white"/>
</clipPath>
</defs>
</svg>
