<svg width="24" height="24" viewBox="0 0 24 24" fill="none" xmlns="http://www.w3.org/2000/svg">
<g clip-path="url(#clip0_151_3074)">
<path d="M11.9999 24C18.6273 24 23.9999 18.6274 23.9999 12C23.9999 5.37258 18.6273 0 11.9999 0C5.37246 0 -0.00012207 5.37258 -0.00012207 12C-0.00012207 18.6274 5.37246 24 11.9999 24Z" fill="#F0F0F0"/>
<path d="M11.9999 8.86971H23.5865C23.2856 7.75343 22.8283 6.70151 22.2386 5.73926H11.9999V8.86971Z" fill="#338AF3"/>
<path d="M4.53009 21.3912H19.4698C20.5649 20.5189 21.5041 19.4595 22.2386 18.2607H1.76123C2.49581 19.4594 3.435 20.5189 4.53009 21.3912Z" fill="#338AF3"/>
<path d="M12 0V2.60869H19.4699C17.42 0.976125 14.8242 0 12 0Z" fill="#338AF3"/>
<path d="M11.9998 8.86971H23.5864C23.2855 7.75343 22.8282 6.70151 22.2385 5.73926H11.9998V8.86971Z" fill="#338AF3"/>
<path d="M-0.00012207 12C-0.00012207 13.0831 0.144253 14.1323 0.413269 15.1305H23.5865C23.8555 14.1323 23.9999 13.0831 23.9999 12H-0.00012207Z" fill="#338AF3"/>
<path d="M10.4346 7.02317L8.96904 7.71256L9.74946 9.13194L8.15806 8.82753L7.9564 10.4351L6.84799 9.25273L5.73949 10.4351L5.53788 8.82753L3.94648 9.13184L4.72685 7.71251L3.26135 7.02317L4.7269 6.33387L3.94648 4.9145L5.53784 5.21891L5.73954 3.61133L6.84799 4.7937L7.95645 3.61133L8.15806 5.21891L9.74951 4.9145L8.96909 6.33392L10.4346 7.02317Z" fill="#FFDA44"/>
</g>
<defs>
<clipPath id="clip0_151_3074">
<rect width="24" height="24" fill="white"/>
</clipPath>
</defs>
</svg>
