<svg width="24" height="24" viewBox="0 0 24 24" fill="none" xmlns="http://www.w3.org/2000/svg">
<g clip-path="url(#clip0_151_2212)">
<path d="M12 24C18.6274 24 24 18.6274 24 12C24 5.37258 18.6274 0 12 0C5.37258 0 0 5.37258 0 12C0 18.6274 5.37258 24 12 24Z" fill="#F0F0F0"/>
<path d="M23.8971 10.4345C23.5661 7.9039 22.4294 5.45862 20.4852 3.51448C18.5411 1.57034 16.0958 0.43357 13.5652 0.102539L13.5652 10.4345H23.8971Z" fill="#0052B4"/>
<path d="M10.4347 0.102539C7.90414 0.43357 5.45881 1.57029 3.51467 3.51443C1.57058 5.45862 0.433814 7.90395 0.102783 10.4346L10.4348 10.4345L10.4347 0.102539Z" fill="#0052B4"/>
<path d="M0.102783 13.5654C0.433814 16.096 1.57058 18.5414 3.51467 20.4855C5.45881 22.4296 7.9041 23.5663 10.4348 23.8975L10.4347 13.5655L0.102783 13.5654Z" fill="#0052B4"/>
<path d="M13.5652 23.8973C16.0958 23.5663 18.5411 22.4296 20.4852 20.4854C22.4293 18.5413 23.5661 16.096 23.8971 13.5654H13.5652V23.8973Z" fill="#0052B4"/>
<path d="M16.0961 7.61471C16.0961 7.45515 16.2258 7.32544 16.3854 7.32544H17.0053C17.9851 7.32544 18.7823 6.52829 18.7823 5.54846C18.7823 4.56863 17.9852 3.77143 17.0053 3.77143H16.4166C16.2245 3.6271 15.9667 3.53809 15.6824 3.53809C15.0892 3.53809 14.6084 3.9227 14.6084 4.39716C14.6084 4.86704 15.0801 5.24823 15.6652 5.25563L15.665 5.25905H17.0053C17.1649 5.25905 17.2946 5.3888 17.2946 5.54837C17.2946 5.70793 17.1649 5.83763 17.0053 5.83763H16.3854C15.4055 5.83763 14.6084 6.63479 14.6084 7.61462C14.6084 8.59445 15.4055 9.39165 16.3854 9.39165H18.7823V7.90393H16.3854C16.2258 7.90398 16.0961 7.77427 16.0961 7.61471Z" fill="#F0F0F0"/>
<path d="M6.70491 7.61471C6.70491 7.45515 6.83461 7.32544 6.99422 7.32544H7.6141C8.59397 7.32544 9.39118 6.52829 9.39118 5.54846C9.39118 4.56863 8.59402 3.77143 7.6141 3.77143H7.02544C6.8333 3.6271 6.57554 3.53809 6.29119 3.53809C5.69808 3.53809 5.21729 3.9227 5.21729 4.39716C5.21729 4.86704 5.68889 5.24823 6.27408 5.25563L6.2738 5.25905H7.61414C7.77375 5.25905 7.90346 5.3888 7.90346 5.54837C7.90346 5.70793 7.77375 5.83763 7.61414 5.83763H6.99427C6.01439 5.83763 5.21729 6.63479 5.21729 7.61462C5.21729 8.59445 6.01435 9.39165 6.99427 9.39165H9.39113V7.90393H6.99422C6.83461 7.90398 6.70491 7.77427 6.70491 7.61471Z" fill="#F0F0F0"/>
<path d="M16.0961 18.686C16.0961 18.5264 16.2258 18.3967 16.3854 18.3967H17.0053C17.9852 18.3967 18.7824 17.5996 18.7824 16.6197C18.7824 15.6399 17.9852 14.8427 17.0053 14.8427H16.4166C16.2245 14.6984 15.9667 14.6094 15.6824 14.6094C15.0892 14.6094 14.6084 14.994 14.6084 15.4685C14.6084 15.9383 15.0801 16.3195 15.6652 16.3269L15.665 16.3303H17.0053C17.1649 16.3303 17.2946 16.4601 17.2946 16.6197C17.2946 16.7792 17.1649 16.9089 17.0053 16.9089H16.3854C15.4055 16.9089 14.6084 17.7061 14.6084 18.6859C14.6084 19.6657 15.4055 20.4629 16.3854 20.4629H18.7823V18.9753H16.3854C16.2258 18.9753 16.0961 18.8455 16.0961 18.686Z" fill="#F0F0F0"/>
<path d="M6.70496 18.686C6.70496 18.5264 6.83466 18.3967 6.99427 18.3967H7.61414C8.59402 18.3967 9.39122 17.5996 9.39122 16.6197C9.39122 15.6399 8.59407 14.8427 7.61414 14.8427H7.02549C6.83335 14.6984 6.57558 14.6094 6.29124 14.6094C5.69808 14.6094 5.21729 14.994 5.21729 15.4685C5.21729 15.9383 5.68889 16.3195 6.27408 16.3269L6.2738 16.3303H7.61414C7.77375 16.3303 7.90346 16.4601 7.90346 16.6197C7.90346 16.7792 7.77375 16.9089 7.61414 16.9089H6.99427C6.01439 16.9089 5.21729 17.7061 5.21729 18.6859C5.21729 19.6657 6.01435 20.4629 6.99427 20.4629H9.39118V18.9753H6.99427C6.83466 18.9753 6.70496 18.8455 6.70496 18.686Z" fill="#F0F0F0"/>
</g>
<defs>
<clipPath id="clip0_151_2212">
<rect width="24" height="24" fill="white"/>
</clipPath>
</defs>
</svg>
