<svg width="24" height="24" viewBox="0 0 24 24" fill="none" xmlns="http://www.w3.org/2000/svg">
<g clip-path="url(#clip0_151_2750)">
<path d="M23.2534 16.1735C23.7357 14.8735 23.9998 13.4674 23.9998 11.9996C23.9998 10.5318 23.7357 9.1257 23.2534 7.82571L11.9998 6.78223L0.746147 7.82571C0.263803 9.1257 -0.000244141 10.5318 -0.000244141 11.9996C-0.000244141 13.4674 0.263803 14.8735 0.746147 16.1735L11.9998 17.217L23.2534 16.1735Z" fill="#F0F0F0"/>
<path d="M12 23.9999C17.1595 23.9999 21.5581 20.7434 23.2536 16.1738H0.746338C2.4419 20.7434 6.84037 23.9999 12 23.9999Z" fill="#D80027"/>
<path d="M12 0C6.84037 0 2.4419 3.2565 0.746338 7.82611H23.2536C21.5581 3.2565 17.1595 0 12 0Z" fill="#496E2D"/>
<path d="M12 9.3916L12.6475 11.3844H14.743L13.0477 12.6161L13.6953 14.609L12 13.3774L10.3047 14.609L10.9523 12.6161L9.25708 11.3844H11.3525L12 9.3916Z" fill="black"/>
<path d="M15.565 2.34766V4.78239C15.565 5.16606 15.253 5.47806 14.8694 5.47806V6.52155C15.8284 6.52155 16.6085 5.74141 16.6085 4.78239V2.34766H15.565Z" fill="#F0F0F0"/>
<path d="M8.08679 4.78239C8.08679 5.16606 7.77474 5.47806 7.39111 5.47806V6.52155C8.35013 6.52155 9.13027 5.74141 9.13027 4.78239V2.34766H8.08679V4.78239Z" fill="#F0F0F0"/>
<path d="M13.9998 2.34766H15.0432V4.78239H13.9998V2.34766Z" fill="#F0F0F0"/>
<path d="M12.4345 3.73891C12.4345 3.83481 12.3564 3.91286 12.2606 3.91286C12.1647 3.91286 12.0866 3.83481 12.0866 3.73891V2.34766H11.0432V3.73891C11.0432 3.83481 10.9652 3.91286 10.8692 3.91286C10.7733 3.91286 10.6953 3.83481 10.6953 3.73891V2.34766H9.65186V3.73891C9.65186 4.41025 10.1979 4.95634 10.8692 4.95634C11.1278 4.95634 11.3676 4.87511 11.5649 4.73716C11.7623 4.87511 12.002 4.95634 12.2605 4.95634C12.3126 4.95634 12.3638 4.95269 12.4142 4.94627C12.3402 5.25091 12.0658 5.47806 11.7388 5.47806V6.52155C12.6978 6.52155 13.4779 5.74141 13.4779 4.78239V3.73891V2.34766H12.4344L12.4345 3.73891Z" fill="#F0F0F0"/>
<path d="M9.6521 5.47852H11.2173V6.522H9.6521V5.47852Z" fill="#F0F0F0"/>
</g>
<defs>
<clipPath id="clip0_151_2750">
<rect width="24" height="24" fill="white"/>
</clipPath>
</defs>
</svg>
