<svg width="24" height="24" viewBox="0 0 24 24" fill="none" xmlns="http://www.w3.org/2000/svg">
<g clip-path="url(#clip0_151_2277)">
<path d="M11.9999 24C13.4677 24 14.8738 23.736 16.1737 23.2536L16.6955 12L16.1738 0.746391C14.8738 0.264047 13.4677 0 11.9999 0C10.532 0 9.1259 0.264047 7.82596 0.746391L7.3042 12L7.82592 23.2536C9.1259 23.736 10.532 24 11.9999 24Z" fill="#0052B4"/>
<path d="M-0.000488281 11.9997C-0.000488281 17.1593 3.25601 21.5578 7.82562 23.2533V0.746094C3.25601 2.44161 -0.000488281 6.84012 -0.000488281 11.9997Z" fill="#A2001D"/>
<path d="M16.1738 0.746094V23.2534C20.7434 21.5578 23.9999 17.1593 23.9999 11.9997C23.9999 6.84013 20.7434 2.44161 16.1738 0.746094Z" fill="#A2001D"/>
<path d="M5.73877 12H6.78225V16.1739H5.73877V12Z" fill="#FFDA44"/>
<path d="M1.56494 12H2.60843V16.1739H1.56494V12Z" fill="#FFDA44"/>
<path d="M4.17386 14.6085C4.75016 14.6085 5.21734 14.1413 5.21734 13.565C5.21734 12.9887 4.75016 12.5215 4.17386 12.5215C3.59756 12.5215 3.13037 12.9887 3.13037 13.565C3.13037 14.1413 3.59756 14.6085 4.17386 14.6085Z" fill="#FFDA44"/>
<path d="M4.17357 10.435C4.46171 10.435 4.69529 10.2015 4.69529 9.91332C4.69529 9.62518 4.46171 9.3916 4.17357 9.3916C3.88544 9.3916 3.65186 9.62518 3.65186 9.91332C3.65186 10.2015 3.88544 10.435 4.17357 10.435Z" fill="#FFDA44"/>
<path d="M3.13037 15.1299H5.21734V16.1734H3.13037V15.1299Z" fill="#FFDA44"/>
<path d="M3.13037 10.9561H5.21734V11.9995H3.13037V10.9561Z" fill="#FFDA44"/>
<path d="M4.1736 6.26074L4.54316 7.39793H5.73885L4.77159 8.10077L5.14087 9.23796L4.1736 8.53512L3.20638 9.23796L3.57566 8.10077L2.6084 7.39793H3.80409L4.1736 6.26074Z" fill="#FFDA44"/>
</g>
<defs>
<clipPath id="clip0_151_2277">
<rect width="24" height="24" fill="white"/>
</clipPath>
</defs>
</svg>
