<svg width="24" height="24" viewBox="0 0 24 24" fill="none" xmlns="http://www.w3.org/2000/svg">
<g clip-path="url(#clip0_151_1830)">
<path d="M12 24C18.6274 24 24 18.6274 24 12C24 5.37258 18.6274 0 12 0C5.37258 0 0 5.37258 0 12C0 18.6274 5.37258 24 12 24Z" fill="#F0F0F0"/>
<path d="M12 0C7.03903 0 2.78147 3.01059 0.953857 7.30434H23.0463C21.2187 3.01059 16.9611 0 12 0Z" fill="#A2001D"/>
<path d="M12 23.9997C16.9611 23.9997 21.2187 20.9891 23.0462 16.6953H0.953857C2.78147 20.9891 7.03903 23.9997 12 23.9997Z" fill="#496E2D"/>
<path d="M23.5866 8.86914H0.413391C0.144375 9.86725 0 10.9165 0 11.9996C0 13.0827 0.144375 14.1319 0.413391 15.13H23.5867C23.8556 14.1319 24 13.0827 24 11.9996C24 10.9165 23.8556 9.86725 23.5866 8.86914Z" fill="#0052B4"/>
</g>
<defs>
<clipPath id="clip0_151_1830">
<rect width="24" height="24" fill="white"/>
</clipPath>
</defs>
</svg>
