<svg width="24" height="24" viewBox="0 0 24 24" fill="none" xmlns="http://www.w3.org/2000/svg">
<g clip-path="url(#clip0_151_1905)">
<path d="M12 24C18.6274 24 24 18.6274 24 12C24 5.37258 18.6274 0 12 0C5.37258 0 0 5.37258 0 12C0 18.6274 5.37258 24 12 24Z" fill="#F0F0F0"/>
<path d="M23.9997 11.9997C23.9997 7.24218 21.231 3.13143 17.217 1.19043V22.8089C21.231 20.868 23.9997 16.7572 23.9997 11.9997Z" fill="#338AF3"/>
<path d="M-0.000244141 11.9997C-0.000244141 16.7572 2.76843 20.868 6.78238 22.809V1.19043C2.76843 3.13143 -0.000244141 7.24218 -0.000244141 11.9997Z" fill="#338AF3"/>
<path d="M15.1357 14.0288L13.1067 11.9997L15.0381 10.0682L14.9506 9.04815L14.3977 8.49512L11.9999 10.8929L9.60215 8.49512L9.04922 9.04815L8.9617 10.0682L10.8931 11.9997L8.86401 14.0288L9.97083 15.1355L11.9999 13.1065L14.029 15.1355L15.1357 14.0288Z" fill="#ACABB1"/>
<path d="M14.9512 9.04883L13.8444 10.1556C14.3165 10.6277 14.6086 11.2798 14.6086 12.0002C14.6086 13.441 13.4406 14.6089 11.9999 14.6089C10.5592 14.6089 9.39113 13.441 9.39113 12.0002C9.39113 11.2798 9.68316 10.6277 10.1552 10.1556L9.04847 9.04883C8.29308 9.80408 7.82593 10.8476 7.82593 12.0002C7.82593 14.3054 9.69465 16.1741 11.9998 16.1741C14.305 16.1741 16.1737 14.3054 16.1737 12.0002C16.1737 10.8476 15.7066 9.80413 14.9512 9.04883Z" fill="#6DA544"/>
</g>
<defs>
<clipPath id="clip0_151_1905">
<rect width="24" height="24" fill="white"/>
</clipPath>
</defs>
</svg>
