<svg width="24" height="24" viewBox="0 0 24 24" fill="none" xmlns="http://www.w3.org/2000/svg">
<g clip-path="url(#clip0_151_2168)">
<path d="M12 24C18.6274 24 24 18.6274 24 12C24 5.37258 18.6274 0 12 0C5.37258 0 0 5.37258 0 12C0 18.6274 5.37258 24 12 24Z" fill="#F0F0F0"/>
<path d="M7.82593 12.0002V23.2538C9.12587 23.7362 10.532 24.0002 11.9998 24.0002C18.6272 24.0002 23.9998 18.6276 23.9998 12.0002C23.9998 5.37281 7.82593 12.0002 7.82593 12.0002Z" fill="#6DA544"/>
<path d="M11.9998 0C10.532 0 9.12587 0.264047 7.82593 0.746391V12H23.9998C23.9998 5.37262 18.6272 0 11.9998 0Z" fill="#D80027"/>
</g>
<defs>
<clipPath id="clip0_151_2168">
<rect width="24" height="24" fill="white"/>
</clipPath>
</defs>
</svg>
