<svg width="24" height="24" viewBox="0 0 24 24" fill="none" xmlns="http://www.w3.org/2000/svg">
<g clip-path="url(#clip0_151_2260)">
<path d="M11.9999 24C18.6273 24 23.9999 18.6274 23.9999 12C23.9999 5.37258 18.6273 0 11.9999 0C5.37246 0 -0.00012207 5.37258 -0.00012207 12C-0.00012207 18.6274 5.37246 24 11.9999 24Z" fill="#338AF3"/>
<path d="M12.0001 5.21777L12.5181 6.81209H14.1946L12.8384 7.79745L13.3563 9.39171L12.0001 8.4064L10.6439 9.39171L11.162 7.79745L9.80579 6.81209H11.4822L12.0001 5.21777Z" fill="#F0F0F0"/>
<path d="M5.21753 12.0002L6.81184 11.4821V9.80566L7.7972 11.1619L9.39147 10.6439L8.40615 12.0002L9.39147 13.3563L7.7972 12.8382L6.81184 14.1944V12.5181L5.21753 12.0002Z" fill="#F0F0F0"/>
<path d="M12.0002 18.7833L11.4822 17.189H9.80579L11.1621 16.2036L10.6441 14.6094L12.0002 15.5947L13.3564 14.6094L12.8383 16.2036L14.1946 17.189H12.5182L12.0002 18.7833Z" fill="#F0F0F0"/>
<path d="M18.7828 12L17.1885 12.518V14.1944L16.2032 12.8382L14.6089 13.3562L15.5942 12L14.6089 10.6439L16.2032 11.1619L17.1885 9.80566V11.4821L18.7828 12Z" fill="#F0F0F0"/>
</g>
<defs>
<clipPath id="clip0_151_2260">
<rect width="24" height="24" fill="white"/>
</clipPath>
</defs>
</svg>
