<svg width="24" height="24" viewBox="0 0 24 24" fill="none" xmlns="http://www.w3.org/2000/svg">
<g clip-path="url(#clip0_151_1293)">
<path d="M12 24C18.6274 24 24 18.6274 24 12C24 5.37258 18.6274 0 12 0C5.37258 0 0 5.37258 0 12C0 18.6274 5.37258 24 12 24Z" fill="#F0F0F0"/>
<path d="M3.5146 3.51432C0.942805 6.08612 -0.21721 9.5349 0.0337116 12.898L12.8982 0.0334789C9.53513 -0.21749 6.0864 0.942526 3.5146 3.51432Z" fill="#FFDA44"/>
<path d="M4.28491 21.1911C8.99965 25.1578 16.0477 24.9232 20.4854 20.4856C24.923 16.048 25.1576 8.99984 21.1909 4.28516L4.28491 21.1911Z" fill="#0052B4"/>
<path d="M11.9573 11.5162L12.9914 10.956L11.9573 10.3959C11.7158 8.82739 10.4766 7.58806 8.90808 7.34666L8.34788 6.3125L7.78772 7.34661C6.21928 7.58802 4.98 8.82734 4.7385 10.3958L3.70435 10.956L4.73846 11.5162C4.97991 13.0847 6.21919 14.324 7.78767 14.5654L8.34788 15.5996L8.90803 14.5655C10.4766 14.324 11.7158 13.0847 11.9573 11.5162ZM8.34792 13.043C7.19531 13.043 6.26096 12.1087 6.26096 10.956C6.26096 9.80337 7.19527 8.86906 8.34792 8.86906C9.50058 8.86906 10.4349 9.80337 10.4349 10.956C10.4349 12.1087 9.50053 13.043 8.34792 13.043Z" fill="black"/>
<path d="M8.34792 9.3916L8.79974 10.1742H9.70345L9.25157 10.9568L9.70345 11.7394H8.79974L8.34792 12.522L7.89609 11.7394H6.99243L7.44426 10.9568L6.99243 10.1742H7.89609L8.34792 9.3916Z" fill="#D80027"/>
</g>
<defs>
<clipPath id="clip0_151_1293">
<rect width="24" height="24" fill="white"/>
</clipPath>
</defs>
</svg>
