<svg width="24" height="24" viewBox="0 0 24 24" fill="none" xmlns="http://www.w3.org/2000/svg">
<g clip-path="url(#clip0_151_1208)">
<path d="M12.0002 0C18.6276 0 24.0002 5.37261 24.0002 12C24.0002 18.6273 18.6276 24 12.0002 24C5.37286 24 0.000244141 18.6273 0.000244141 12" fill="#FFDA44"/>
<path d="M11.7393 5.33366H21.9788C21.3046 4.32646 20.4818 3.4274 19.5419 2.66699H11.7393V5.33366Z" fill="#D80027"/>
<path d="M11.7393 10.6666H23.926C23.8237 9.74197 23.6165 8.84914 23.3164 8H11.7393V10.6666Z" fill="#D80027"/>
<path d="M0.683874 16.0007H23.3163C23.6164 15.1516 23.8237 14.2586 23.926 13.334H0.0742188C0.176406 14.2587 0.383687 15.1516 0.683874 16.0007Z" fill="#D80027"/>
<path d="M4.45828 21.3337H19.5419C20.4817 20.5733 21.3045 19.6741 21.9788 18.667H2.02148C2.69573 19.6741 3.51848 20.5733 4.45828 21.3337Z" fill="#D80027"/>
<path d="M12 0C5.37262 0 -4.68746e-05 5.37261 3.06725e-10 12.0001C2.73871 12 5.37261 12.0001 12 12.0001L12 0Z" fill="#4A1F63"/>
<path d="M9.91302 6.26126V7.30474H9.3913V6.26126H8.34782V7.30474H7.8261V5.21777H5.73914V7.30474H5.21737V6.26126H4.17394V7.30474H3.65217V6.26126H2.60864V9.39166H10.9565V6.26126H9.91302Z" fill="#F0F0F0"/>
</g>
<defs>
<clipPath id="clip0_151_1208">
<rect width="24" height="24" fill="white"/>
</clipPath>
</defs>
</svg>
