<svg width="24" height="24" viewBox="0 0 24 24" fill="none" xmlns="http://www.w3.org/2000/svg">
<g clip-path="url(#clip0_151_2313)">
<path d="M12 24C18.6274 24 24 18.6274 24 12C24 5.37258 18.6274 0 12 0C5.37258 0 0 5.37258 0 12C0 18.6274 5.37258 24 12 24Z" fill="#F0F0F0"/>
<path d="M6.48592 16.6953L3.51489 20.4845C5.68633 22.6563 8.686 23.9997 11.9998 23.9997C16.9606 23.9997 21.2175 20.9889 23.045 16.6953H6.48592Z" fill="#FFDA44"/>
<path d="M23.0636 7.3478C21.2463 3.03103 16.9773 0 11.9998 0C8.686 0 5.68633 1.34339 3.51489 3.51511L6.52005 7.3478H23.0636Z" fill="#496E2D"/>
<path d="M2.60864 8.82617V15.1305H23.5866C23.8558 14.1325 24 13.0832 24 12.0001C24 10.9012 23.8519 9.83717 23.5752 8.82617H2.60864Z" fill="black"/>
<path d="M3.51447 3.51465C-1.17181 8.20093 -1.17181 15.7989 3.51447 20.4853C5.45101 18.5487 7.3135 16.6862 11.9998 12L3.51447 3.51465Z" fill="#A2001D"/>
<path d="M4.85646 8.86914L5.63341 11.2605H8.14807L6.11379 12.7386L6.89069 15.13L4.85646 13.652L2.82213 15.13L3.59922 12.7386L1.56494 11.2605H4.07941L4.85646 8.86914Z" fill="#FFDA44"/>
<path d="M2.58301 12H7.13101V14.087H2.58301V12Z" fill="#F0F0F0"/>
<path d="M7.99203 9.60705L7.25418 8.86914L4.85661 11.2667L2.45905 8.86914L1.72119 9.60705L4.12086 12.0025L1.72119 14.4022L2.45905 15.13L4.85661 12.7368L7.25418 15.13L7.99203 14.4022L5.59236 12.0025L7.99203 9.60705Z" fill="black"/>
</g>
<defs>
<clipPath id="clip0_151_2313">
<rect width="24" height="24" fill="white"/>
</clipPath>
</defs>
</svg>
