<svg width="24" height="24" viewBox="0 0 24 24" fill="none" xmlns="http://www.w3.org/2000/svg">
<g clip-path="url(#clip0_151_1504)">
<path d="M12.0002 24C18.6277 24 24.0002 18.6274 24.0002 12C24.0002 5.37258 18.6277 0 12.0002 0C5.37283 0 0.000244141 5.37258 0.000244141 12C0.000244141 18.6274 5.37283 24 12.0002 24Z" fill="#F0F0F0"/>
<path d="M12 0C8.68623 0 5.68623 1.34316 3.51465 3.51469L12 12V0Z" fill="black"/>
<path d="M0 12C0 15.3137 1.34316 18.3137 3.51469 20.4853L12 12H0Z" fill="black"/>
<path d="M12 24C15.3137 24 18.3137 22.6568 20.4853 20.4853L12 12V24Z" fill="black"/>
<path d="M24 12C24 8.68623 22.6568 5.68623 20.4853 3.51465L12 12H24Z" fill="black"/>
<path d="M7.82617 8.34777L12.0001 8.86963L16.174 8.34777V5.84342L14.5044 6.67822L12.0001 4.17383L9.49572 6.67822L7.82617 5.84342V8.34777Z" fill="#FFDA44"/>
<path d="M12.0001 18.2606C9.69855 18.2606 7.82617 16.3882 7.82617 14.0867V9.913L9.39138 8.34766H14.6088L16.174 9.913V14.0867C16.174 16.3882 14.3016 18.2606 12.0001 18.2606Z" fill="#D80027"/>
<path d="M12 16.6956C10.5616 16.6956 9.39136 15.5253 9.39136 14.0869V9.91309H14.6087V14.0869C14.6087 15.5253 13.4385 16.6956 12 16.6956Z" fill="#F0F0F0"/>
<path d="M7.82617 8.34766H9.39138V9.91286H7.82617V8.34766Z" fill="#FFDA44"/>
<path d="M14.6089 8.34766H16.1741V9.91286H14.6089V8.34766Z" fill="#FFDA44"/>
<path d="M14.6089 11.7393H16.1741V13.3045H14.6089V11.7393Z" fill="#FFDA44"/>
<path d="M7.82617 11.7393H9.39138V13.3045H7.82617V11.7393Z" fill="#FFDA44"/>
<path d="M12.0002 16.6953C11.7275 16.6953 11.4647 16.6531 11.2175 16.5752V18.1859C11.4712 18.2342 11.7326 18.2605 12.0002 18.2605C12.2677 18.2605 12.5291 18.2342 12.7828 18.1859V16.5752C12.5356 16.6531 12.2728 16.6953 12.0002 16.6953Z" fill="#FFDA44"/>
<path d="M9.42637 14.5107L8.17725 15.7599C8.39381 16.2529 8.70281 16.6963 9.08259 17.0681L10.1888 15.9618C9.79406 15.5804 9.51904 15.076 9.42637 14.5107Z" fill="#FFDA44"/>
<path d="M15.8231 15.7599L14.5739 14.5107C14.4812 15.076 14.2063 15.5803 13.8115 15.9619L14.9178 17.0681C15.2975 16.6963 15.6065 16.2529 15.8231 15.7599Z" fill="#FFDA44"/>
<path d="M11.4783 10.7832V11.6527C11.4783 11.9408 11.7118 12.1745 12 12.1745C12.2881 12.1745 12.5217 11.9408 12.5217 11.6527V10.7832H11.4783Z" fill="#0052B4"/>
<path d="M11.4783 14.2617V15.1312C11.4783 15.4193 11.7118 15.653 12 15.653C12.2881 15.653 12.5217 15.4193 12.5217 15.1312V14.2617H11.4783Z" fill="#0052B4"/>
<path d="M13.0435 12.5225V13.3921C13.0435 13.6802 13.277 13.9138 13.5652 13.9138C13.8533 13.9138 14.0869 13.6802 14.0869 13.3921V12.5225H13.0435Z" fill="#0052B4"/>
<path d="M11.4783 12.5225V13.3921C11.4783 13.6802 11.7118 13.9138 12 13.9138C12.2881 13.9138 12.5217 13.6802 12.5217 13.3921V12.5225H11.4783Z" fill="#0052B4"/>
<path d="M9.91309 12.5225V13.3921C9.91309 13.6802 10.1467 13.9138 10.4348 13.9138C10.7229 13.9138 10.9565 13.6802 10.9565 13.3921V12.5225H9.91309Z" fill="#0052B4"/>
</g>
<defs>
<clipPath id="clip0_151_1504">
<rect width="24" height="24" fill="white"/>
</clipPath>
</defs>
</svg>
