<svg width="24" height="24" viewBox="0 0 24 24" fill="none" xmlns="http://www.w3.org/2000/svg">
<g clip-path="url(#clip0_151_2647)">
<path d="M11.9999 24C18.6273 24 23.9999 18.6274 23.9999 12C23.9999 5.37258 18.6273 0 11.9999 0C5.37246 0 -0.00012207 5.37258 -0.00012207 12C-0.00012207 18.6274 5.37246 24 11.9999 24Z" fill="#6DA544"/>
<path d="M6.78259 14.3477C6.78259 15.2121 7.48337 15.9129 8.3478 15.9129H13.0435C13.0435 16.6332 13.6274 17.2172 14.3478 17.2172H15.913C16.6334 17.2172 17.2173 16.6332 17.2173 15.9129V14.3477H6.78259Z" fill="#F0F0F0"/>
<path d="M17.3478 6.78223V10.4344C17.3478 11.0098 16.8797 11.4779 16.3043 11.4779V13.0431C17.7428 13.0431 18.913 11.8728 18.913 10.4344V6.78223H17.3478Z" fill="#F0F0F0"/>
<path d="M6.1304 10.4344C6.1304 11.0098 5.6623 11.4779 5.08691 11.4779V13.0431C6.52537 13.0431 7.6956 11.8728 7.6956 10.4344V6.78223H6.1304V10.4344Z" fill="#F0F0F0"/>
<path d="M15 6.78223H16.5652V10.4344H15V6.78223Z" fill="#F0F0F0"/>
<path d="M12.6522 8.86919C12.6522 9.01305 12.5351 9.13005 12.3913 9.13005C12.2475 9.13005 12.1304 9.01301 12.1304 8.86919V6.78223H10.5652V8.86919C10.5652 9.01305 10.4482 9.13005 10.3044 9.13005C10.1606 9.13005 10.0435 9.01301 10.0435 8.86919V6.78223H8.47827V8.86919C8.47827 9.87612 9.29746 10.6953 10.3044 10.6953C10.6922 10.6953 11.0518 10.5734 11.3479 10.3664C11.6439 10.5734 12.0036 10.6953 12.3913 10.6953C12.4694 10.6953 12.5462 10.6898 12.6217 10.6802C12.5108 11.1372 12.0993 11.4779 11.6087 11.4779V13.0431C13.0472 13.0431 14.2174 11.8728 14.2174 10.4344V8.86919V6.78223H12.6522V8.86919H12.6522Z" fill="#F0F0F0"/>
<path d="M8.47827 11.4775H10.8261V13.0427H8.47827V11.4775Z" fill="#F0F0F0"/>
</g>
<defs>
<clipPath id="clip0_151_2647">
<rect width="24" height="24" fill="white"/>
</clipPath>
</defs>
</svg>
