<svg width="24" height="24" viewBox="0 0 24 24" fill="none" xmlns="http://www.w3.org/2000/svg">
<g clip-path="url(#clip0_151_1220)">
<path d="M17.2174 1.19072C15.6397 0.427875 13.8698 0 12 0C10.1302 0 8.36025 0.427875 6.78262 1.19072L5.73914 12L6.78262 22.8093C8.36025 23.5721 10.1302 24 12 24C13.8698 24 15.6397 23.5721 17.2174 22.8093L18.2609 12L17.2174 1.19072Z" fill="#FFDA44"/>
<path d="M6.78238 1.19141C2.76847 3.13231 -0.000244141 7.24273 -0.000244141 12.0003C-0.000244141 16.7578 2.76847 20.8682 6.78238 22.8091V1.19141Z" fill="#0052B4"/>
<path d="M17.2172 1.19141V22.8091C21.2311 20.8682 23.9998 16.7577 23.9998 12.0003C23.9998 7.24278 21.2311 3.13231 17.2172 1.19141Z" fill="#0052B4"/>
<path d="M15.6522 7.30423L16.3521 7.6542L15.6522 7.30423L14.9521 6.95426C14.9099 7.03868 13.9959 8.89835 13.8466 11.739H12.7826V7.30423L12 6.26074L11.2174 7.30423V11.739H10.1533C10.004 8.89835 9.09003 7.03868 9.0478 6.95426L7.64783 7.65424C7.65748 7.67346 8.60872 9.60963 8.60872 12.5216V13.3043H11.2174V17.7391H12.7826V13.3043H15.3913V12.5216C15.3913 11.0161 15.6518 9.77463 15.8704 8.99829C16.1086 8.15173 16.3506 7.65734 16.353 7.65241L15.6522 7.30423Z" fill="black"/>
</g>
<defs>
<clipPath id="clip0_151_1220">
<rect width="24" height="24" fill="white"/>
</clipPath>
</defs>
</svg>
