<svg width="24" height="24" viewBox="0 0 24 24" fill="none" xmlns="http://www.w3.org/2000/svg">
<g clip-path="url(#clip0_151_1669)">
<path d="M12 24C18.6274 24 24 18.6274 24 12C24 5.37258 18.6274 0 12 0C5.37258 0 0 5.37258 0 12C0 18.6274 5.37258 24 12 24Z" fill="#F0F0F0"/>
<path d="M14.3477 23.7695C19.0915 22.8285 22.8285 19.0915 23.7695 14.3477H14.3477V23.7695Z" fill="#496E2D"/>
<path d="M0.230225 14.3477C1.17124 19.0915 4.90821 22.8285 9.6521 23.7695V14.3477H0.230225Z" fill="#496E2D"/>
<path d="M23.7695 9.65234C22.8285 4.9085 19.0915 1.17153 14.3477 0.230469V9.65234H23.7695Z" fill="#496E2D"/>
<path d="M9.6521 0.230469C4.90821 1.17153 1.17124 4.9085 0.230225 9.65234H9.6521V0.230469Z" fill="#496E2D"/>
<path d="M11.2173 14.3477H9.6521V23.7695C10.1629 23.8708 10.6854 23.9395 11.2173 23.9737V14.3477Z" fill="#FFDA44"/>
<path d="M11.2173 9.65243V0.0263672C10.6854 0.0605859 10.1628 0.129258 9.6521 0.230555V9.65243H11.2173Z" fill="#FFDA44"/>
<path d="M12.7828 0.0261094C12.5239 0.009375 12.2632 0 12.0002 0C11.7371 0 11.4764 0.009375 11.2175 0.0261094V9.65222H12.7827V0.0261094H12.7828Z" fill="black"/>
<path d="M11.2175 23.9737C11.4764 23.9905 11.7371 23.9998 12.0002 23.9998C12.2632 23.9998 12.5239 23.9905 12.7828 23.9737V14.3477H11.2176V23.9737H11.2175Z" fill="black"/>
<path d="M9.65218 11.2175V9.65234H0.230311C0.128967 10.1632 0.0603418 10.6857 0.026123 11.2175H9.65218Z" fill="#FFDA44"/>
<path d="M14.3479 11.2175H23.974C23.9398 10.6857 23.8711 10.1632 23.7698 9.65234H14.3479V11.2175H14.3479Z" fill="#FFDA44"/>
<path d="M14.3479 12.783H23.974C23.9907 12.5242 24.0001 12.2634 24.0001 12.0004C24.0001 11.7374 23.9907 11.4766 23.974 11.2178H14.3479V12.783Z" fill="black"/>
<path d="M0.0261094 11.2178C0.00942187 11.4766 0 11.7374 0 12.0004C0 12.2634 0.00942187 12.5242 0.0261094 12.783H9.65222V11.2178H0.0261094V11.2178Z" fill="black"/>
<path d="M12.0001 17.739C15.1698 17.739 17.7393 15.1695 17.7393 11.9999C17.7393 8.83024 15.1698 6.26074 12.0001 6.26074C8.83049 6.26074 6.26099 8.83024 6.26099 11.9999C6.26099 15.1695 8.83049 17.739 12.0001 17.739Z" fill="#D80027"/>
<path d="M13.3075 12.6404C12.8806 11.7867 12.3258 10.9214 12.3258 10.9214C12.3258 10.9214 12.3395 10.5274 12.3395 10.2927C12.3395 9.93903 12.0529 9.65234 11.6992 9.65234C11.3642 9.65234 11.0897 9.90973 11.0617 10.2374C10.7983 10.2546 10.5898 10.4732 10.5898 10.7409C10.5898 10.9356 10.7001 11.1043 10.8616 11.1886C10.9418 11.0009 11.099 10.8544 11.2933 10.7876C11.325 10.8135 11.359 10.8367 11.3953 10.8563L11.4774 10.8956C11.4774 10.8956 11.1732 11.753 11.1732 12.2136C11.1732 13.5085 12.027 13.9078 12.027 13.9078V13.9212L11.6001 14.348H12.4538V13.4942L12.8807 13.9211C12.8845 13.9131 13.6893 13.4041 13.3075 12.6404Z" fill="#496E2D"/>
<path d="M12.0001 7.30469L12.1943 7.90253H12.8229L12.3144 8.27205L12.5087 8.86989L12.0001 8.50042L11.4915 8.86989L11.6858 8.27205L11.1772 7.90253H11.8058L12.0001 7.30469Z" fill="#496E2D"/>
<path d="M9.23988 8.20122L9.74838 8.57073L10.257 8.20117L10.0627 8.79911L10.5713 9.16853L9.94268 9.16858L9.74843 9.76642L9.55413 9.16858L8.92554 9.16853L9.43408 8.79902L9.23988 8.20122Z" fill="#496E2D"/>
<path d="M7.53418 10.549H8.16273L8.35702 9.95117L8.55127 10.549L9.17991 10.549L8.67137 10.9185L8.86566 11.5164L8.35702 11.1469L7.84848 11.5163L8.04268 10.9185L7.53418 10.549Z" fill="#496E2D"/>
<path d="M7.53418 13.4517L8.04268 13.0823L7.84843 12.4844L8.35702 12.8539L8.86562 12.4844L8.67137 13.0822L9.17996 13.4517L8.55127 13.4518L8.35702 14.0496L8.16273 13.4517H7.53418Z" fill="#496E2D"/>
<path d="M9.23993 15.7995L9.43413 15.2018L8.92554 14.8323H9.55418L9.74847 14.2344L9.94273 14.8322H10.5714L10.0628 15.2018L10.257 15.7996L9.74843 15.4301L9.23993 15.7995Z" fill="#496E2D"/>
<path d="M12.0001 16.6961L11.8058 16.0983H11.1772L11.6858 15.7288L11.4915 15.1309L12.0001 15.5003L12.5086 15.1309L12.3144 15.7288L12.8229 16.0983L12.1943 16.0983L12.0001 16.6961Z" fill="#496E2D"/>
<path d="M14.7599 15.7995L14.2514 15.4301L13.7429 15.7996L13.9371 15.2018L13.4285 14.8323L14.0571 14.8322L14.2513 14.2344L14.4457 14.8323H15.0742L14.5657 15.2018L14.7599 15.7995Z" fill="#496E2D"/>
<path d="M16.4658 13.4516H15.8373L15.643 14.0495L15.4488 13.4517H14.8201L15.3287 13.0822L15.1344 12.4844L15.643 12.8538L16.1515 12.4844L15.9573 13.0822L16.4658 13.4516Z" fill="#496E2D"/>
<path d="M16.4658 10.549L15.9573 10.9184L16.1516 11.5163L15.643 11.1468L15.1344 11.5164L15.3287 10.9185L14.8201 10.549L15.4488 10.5489L15.643 9.95117L15.8373 10.549H16.4658Z" fill="#496E2D"/>
<path d="M14.7599 8.20117L14.5657 8.79897L15.0742 9.16848H14.4457L14.2514 9.76638L14.0571 9.16853L13.4285 9.16858L13.9371 8.79897L13.7428 8.20122L14.2514 8.57064L14.7599 8.20117Z" fill="#496E2D"/>
</g>
<defs>
<clipPath id="clip0_151_1669">
<rect width="24" height="24" fill="white"/>
</clipPath>
</defs>
</svg>
