<svg width="24" height="24" viewBox="0 0 24 24" fill="none" xmlns="http://www.w3.org/2000/svg">
<g clip-path="url(#clip0_151_1664)">
<path d="M10.9565 13.0435C10.9565 13.0435 3.52168 3.51305 3.51465 3.51473C5.68618 1.34316 8.68623 0 12 0C18.6273 0 24 5.37262 24 12L10.9565 13.0435Z" fill="#338AF3"/>
<path d="M10.9565 12C10.9565 12 3.52168 20.487 3.51465 20.4853C5.68618 22.6568 8.68623 24 12 24C18.6273 24 24 18.6274 24 12H10.9565Z" fill="#6DA544"/>
<path d="M3.51447 3.51465C-1.17181 8.20093 -1.17181 15.7989 3.51447 20.4853C5.45101 18.5487 7.3135 16.6862 11.9998 12L3.51447 3.51465Z" fill="#F0F0F0"/>
<path d="M4.8567 8.86914L5.63365 11.2605H8.14831L6.11403 12.7386L6.89094 15.13L4.8567 13.652L2.82237 15.13L3.59947 12.7386L1.56519 11.2605H4.07965L4.8567 8.86914Z" fill="#D80027"/>
</g>
<defs>
<clipPath id="clip0_151_1664">
<rect width="24" height="24" fill="white"/>
</clipPath>
</defs>
</svg>
