<svg width="24" height="24" viewBox="0 0 24 24" fill="none" xmlns="http://www.w3.org/2000/svg">
<g clip-path="url(#clip0_151_3084)">
<path d="M0.566503 8.34794C0.198909 9.49956 -0.000168937 10.7264 -0.000122062 12C-0.000168937 13.2736 0.198956 14.5005 0.56655 15.6521L11.9999 16.174L23.4332 15.6522C23.8008 14.5006 23.9999 13.2736 23.9999 12.0001C23.9999 10.7265 23.8008 9.49956 23.4332 8.34789L11.9999 7.82617L0.566503 8.34794Z" fill="#F0F0F0"/>
<path d="M23.4331 8.34789L11.9998 7.82617L0.566378 8.34789C0.45744 8.68933 0.363644 9.03747 0.285034 9.39138H23.7143C23.6358 9.03742 23.542 8.68923 23.4331 8.34789Z" fill="#D80027"/>
<path d="M0.285156 14.6084C0.363672 14.9623 0.457469 15.3104 0.566406 15.6518L0.567531 15.6519L11.9997 16.1736L23.433 15.6519C23.542 15.3104 23.6357 14.9623 23.7143 14.6084H0.285156Z" fill="#D80027"/>
<path d="M11.9998 24.0002C17.3537 24.0002 21.8879 20.4938 23.4331 15.6523H0.566528C2.11176 20.4937 6.64607 24.0002 11.9998 24.0002Z" fill="#6DA544"/>
<path d="M11.9997 4.69973e-10C6.64595 4.68755e-05 2.11173 3.50644 0.566406 8.34783L23.433 8.34787C21.8879 3.50639 17.3536 -4.68745e-05 11.9997 4.69973e-10Z" fill="#338AF3"/>
<path d="M5.48351 4.95618C5.48351 3.83226 6.2734 2.89335 7.32823 2.66301C7.16614 2.62757 6.9979 2.6084 6.82512 2.6084C5.52847 2.6084 4.47729 3.65952 4.47729 4.95623C4.47729 6.25293 5.52837 7.30405 6.82512 7.30405C6.9979 7.30405 7.16609 7.28484 7.32823 7.24944C6.27345 7.01901 5.48351 6.0801 5.48351 4.95618Z" fill="#F0F0F0"/>
<path d="M8.71591 6.02344L8.87482 6.51258H9.38913L8.97307 6.81492L9.13198 7.30406L8.71591 7.00177L8.29976 7.30406L8.45871 6.81492L8.0426 6.51258H8.55692L8.71591 6.02344Z" fill="#F0F0F0"/>
<path d="M10.3574 6.02344L10.5164 6.51258H11.0307L10.6146 6.81492L10.7735 7.30406L10.3574 7.00177L9.94131 7.30406L10.1003 6.81492L9.6842 6.51258H10.1985L10.3574 6.02344Z" fill="#F0F0F0"/>
<path d="M11.9991 6.02344L12.158 6.51258H12.6724L12.2563 6.81492L12.4152 7.30406L11.9991 7.00177L11.583 7.30406L11.742 6.81492L11.3258 6.51258H11.8402L11.9991 6.02344Z" fill="#F0F0F0"/>
<path d="M13.6406 6.02344L13.7996 6.51258H14.3138L13.8978 6.81492L14.0567 7.30406L13.6406 7.00177L13.2244 7.30406L13.3834 6.81492L12.9673 6.51258H13.4816L13.6406 6.02344Z" fill="#F0F0F0"/>
<path d="M15.2822 6.02344L15.4412 6.51258H15.9555L15.5394 6.81492L15.6984 7.30406L15.2822 7.00177L14.8661 7.30406L15.0251 6.81492L14.609 6.51258H15.1233L15.2822 6.02344Z" fill="#F0F0F0"/>
<path d="M10.3574 4.31641L10.5164 4.8055H11.0307L10.6146 5.10789L10.7735 5.59698L10.3574 5.29469L9.94131 5.59698L10.1003 5.10789L9.6842 4.8055H10.1985L10.3574 4.31641Z" fill="#F0F0F0"/>
<path d="M11.9991 4.31641L12.158 4.8055H12.6724L12.2563 5.10789L12.4152 5.59698L11.9991 5.29469L11.583 5.59698L11.742 5.10789L11.3258 4.8055H11.8402L11.9991 4.31641Z" fill="#F0F0F0"/>
<path d="M13.6406 4.31641L13.7996 4.8055H14.3138L13.8978 5.10789L14.0567 5.59698L13.6406 5.29469L13.2244 5.59698L13.3834 5.10789L12.9673 4.8055H13.4816L13.6406 4.31641Z" fill="#F0F0F0"/>
<path d="M15.2822 4.31641L15.4412 4.8055H15.9555L15.5394 5.10789L15.6984 5.59698L15.2822 5.29469L14.8661 5.59698L15.0251 5.10789L14.609 4.8055H15.1233L15.2822 4.31641Z" fill="#F0F0F0"/>
<path d="M11.9991 2.6084L12.158 3.09759H12.6724L12.2563 3.39988L12.4152 3.88907L11.9991 3.58677L11.583 3.88907L11.742 3.39988L11.3258 3.09759H11.8402L11.9991 2.6084Z" fill="#F0F0F0"/>
<path d="M13.6406 2.6084L13.7996 3.09759H14.3138L13.8978 3.39988L14.0567 3.88907L13.6406 3.58677L13.2244 3.88907L13.3834 3.39988L12.9673 3.09759H13.4816L13.6406 2.6084Z" fill="#F0F0F0"/>
<path d="M15.2822 2.6084L15.4412 3.09759H15.9555L15.5394 3.39988L15.6984 3.88907L15.2822 3.58677L14.8661 3.88907L15.0251 3.39988L14.609 3.09759H15.1233L15.2822 2.6084Z" fill="#F0F0F0"/>
</g>
<defs>
<clipPath id="clip0_151_3084">
<rect width="24" height="24" fill="white"/>
</clipPath>
</defs>
</svg>
