<svg width="24" height="24" viewBox="0 0 24 24" fill="none" xmlns="http://www.w3.org/2000/svg">
<g clip-path="url(#clip0_151_2894)">
<path d="M11.9998 24C18.6272 24 23.9998 18.6274 23.9998 12C23.9998 5.37258 18.6272 0 11.9998 0C5.37234 0 -0.000244141 5.37258 -0.000244141 12C-0.000244141 18.6274 5.37234 24 11.9998 24Z" fill="#FFDA44"/>
<path d="M3.51446 20.4851C4.01785 20.9885 4.55495 21.4374 5.11834 21.8326L21.8326 5.11838C21.4374 4.55499 20.9884 4.0179 20.485 3.51451C19.9816 3.01112 19.4446 2.56224 18.8812 2.16699L2.16699 18.8813C2.56215 19.4445 3.01112 19.9816 3.51446 20.4851Z" fill="black"/>
<path d="M3.51447 3.51417C-0.271251 7.29998 -0.998048 12.9855 1.33272 17.5016L17.5019 1.33246C12.9858 -0.998302 7.30023 -0.271459 3.51447 3.51417Z" fill="#6DA544"/>
<path d="M20.4852 20.4855C24.2709 16.6997 24.9976 11.0141 22.667 6.49805L6.4978 22.6672C11.0138 24.998 16.6994 24.2712 20.4852 20.4855Z" fill="#338AF3"/>
</g>
<defs>
<clipPath id="clip0_151_2894">
<rect width="24" height="24" fill="white"/>
</clipPath>
</defs>
</svg>
