<svg width="24" height="24" viewBox="0 0 24 24" fill="none" xmlns="http://www.w3.org/2000/svg">
<g clip-path="url(#clip0_151_3105)">
<path d="M24 11.9999C24 11.4695 23.9651 10.9471 23.8984 10.4347H10.4347C7.98306 7.98328 3.51452 3.51502 3.5147 3.51465C-1.17157 8.20092 -1.17157 15.7989 3.5147 20.4852L10.4348 13.5652H23.8984C23.9651 13.0528 24 12.5304 24 11.9999Z" fill="black"/>
<path d="M23.9963 12.2734C23.9958 12.2966 23.9953 12.3198 23.9946 12.343C23.9952 12.3198 23.9958 12.2966 23.9963 12.2734Z" fill="#F0F0F0"/>
<path d="M23.9848 12.6016C23.9838 12.6245 23.9822 12.6473 23.981 12.6702C23.9822 12.6474 23.9837 12.6245 23.9848 12.6016Z" fill="#F0F0F0"/>
<path d="M23.9686 12.8623C23.9662 12.896 23.9639 12.9297 23.9612 12.9633C23.9639 12.9297 23.9662 12.896 23.9686 12.8623Z" fill="#F0F0F0"/>
<path d="M23.9286 10.6924C23.933 10.7325 23.9374 10.7726 23.9414 10.8128C23.9374 10.7725 23.9329 10.7325 23.9286 10.6924Z" fill="#F0F0F0"/>
<path d="M23.9808 11.3311C23.9821 11.3539 23.9836 11.3768 23.9847 11.3997C23.9836 11.3768 23.9821 11.3539 23.9808 11.3311Z" fill="#F0F0F0"/>
<path d="M23.9946 11.6582C23.9953 11.6814 23.9958 11.7046 23.9963 11.7278C23.9958 11.7045 23.9952 11.6814 23.9946 11.6582Z" fill="#F0F0F0"/>
<path d="M23.9612 11.0371C23.9639 11.0707 23.9662 11.1044 23.9686 11.1381C23.9662 11.1044 23.9639 11.0707 23.9612 11.0371Z" fill="#F0F0F0"/>
<path d="M23.8984 10.4347C23.9038 10.4758 23.9086 10.5172 23.9135 10.5584C23.2013 4.6108 18.1395 0 12 0C8.68626 0 5.68622 1.3432 3.51465 3.51487L10.4345 10.4348H23.8984V10.4347Z" fill="#D80027"/>
<path d="M23.8984 13.5651H10.4345L3.51465 20.485C5.68622 22.6566 8.68626 23.9998 12 23.9998C18.1395 23.9998 23.2014 19.389 23.9135 13.4414C23.9086 13.4826 23.9037 13.524 23.8984 13.5651Z" fill="#6DA544"/>
<path d="M23.9415 13.1875C23.9375 13.2277 23.9331 13.2678 23.9287 13.3079C23.9331 13.2678 23.9376 13.2278 23.9415 13.1875Z" fill="#F0F0F0"/>
<path d="M23.9689 11.1377C23.9734 11.2019 23.9775 11.2662 23.9811 11.3306C23.9775 11.2662 23.9734 11.2019 23.9689 11.1377Z" fill="black"/>
<path d="M23.9135 10.5586C23.9188 10.6031 23.924 10.6477 23.9287 10.6923C23.9239 10.6477 23.9187 10.6031 23.9135 10.5586Z" fill="black"/>
<path d="M23.9415 10.8125C23.9488 10.887 23.9555 10.9617 23.9614 11.0366C23.9555 10.9617 23.9489 10.8869 23.9415 10.8125Z" fill="black"/>
<path d="M24 12C24 12.0913 23.9986 12.1822 23.9966 12.2729C23.9986 12.1821 24 12.0912 24 12Z" fill="black"/>
<path d="M23.9811 12.6699C23.9775 12.7344 23.9734 12.7987 23.9689 12.8629C23.9734 12.7987 23.9774 12.7344 23.9811 12.6699Z" fill="black"/>
<path d="M23.9614 12.9639C23.9555 13.0387 23.9488 13.1134 23.9415 13.1879C23.9489 13.1134 23.9555 13.0387 23.9614 12.9639Z" fill="black"/>
<path d="M23.9287 13.3076C23.924 13.3522 23.9188 13.3968 23.9135 13.4413C23.9187 13.3968 23.9239 13.3522 23.9287 13.3076Z" fill="black"/>
<path d="M23.9966 11.7275C23.9986 11.8183 24 11.9092 24 12.0004C24 11.9092 23.9986 11.8183 23.9966 11.7275Z" fill="black"/>
<path d="M23.985 11.3994C23.9892 11.4853 23.9924 11.5715 23.9948 11.6578C23.9924 11.5714 23.9893 11.4853 23.985 11.3994Z" fill="black"/>
<path d="M23.9948 12.3428C23.9924 12.4291 23.9892 12.5153 23.985 12.6012C23.9893 12.5153 23.9924 12.4291 23.9948 12.3428Z" fill="black"/>
<path d="M23.9886 11.4737H9.99389L2.80529 4.28613C2.57294 4.53119 2.32108 4.87338 2.16531 5.11708L9.03994 11.9953L2.15955 18.8759C2.29576 19.1182 2.59253 19.4769 2.80089 19.7103L9.99403 12.5171H23.9903C23.9978 12.3441 24.0001 12.1703 24.0001 11.9954C24.0001 11.7611 23.9936 11.5884 23.9886 11.4737Z" fill="#FFDA44"/>
<path d="M2.91502 14.5574V13.5523C3.91805 13.5523 4.734 12.7362 4.734 11.7333C4.734 11.0237 4.15665 10.4464 3.44705 10.4464C2.96363 10.4464 2.57031 10.8396 2.57031 11.3232C2.57031 11.6323 2.82179 11.8838 3.13098 11.8838C3.30573 11.8838 3.4479 11.7416 3.4479 11.5668H4.45299C4.45299 12.2959 3.85993 12.8889 3.13102 12.8889C2.26763 12.889 1.56531 12.1865 1.56531 11.3232C1.56531 10.2856 2.40952 9.44141 3.4471 9.44141C4.71094 9.44141 5.73919 10.4697 5.73919 11.7334C5.73914 13.2905 4.47226 14.5574 2.91502 14.5574Z" fill="#FFDA44"/>
</g>
<defs>
<clipPath id="clip0_151_3105">
<rect width="24" height="24" fill="white"/>
</clipPath>
</defs>
</svg>
