<svg width="24" height="24" viewBox="0 0 24 24" fill="none" xmlns="http://www.w3.org/2000/svg">
<g clip-path="url(#clip0_151_1299)">
<path d="M11.9998 24C18.6272 24 23.9998 18.6274 23.9998 12C23.9998 5.37258 18.6272 0 11.9998 0C5.37234 0 -0.000244141 5.37258 -0.000244141 12C-0.000244141 18.6274 5.37234 24 11.9998 24Z" fill="#F0F0F0"/>
<path d="M11.9999 0C7.74505 0 4.0077 2.21452 1.87695 5.5537L18.15 22.3054C21.6536 20.21 23.9999 16.3792 23.9999 12C23.9999 5.37262 18.6273 0 11.9999 0Z" fill="#FFDA44"/>
<path d="M23.9998 11.9996C23.9998 8.88602 22.814 6.04971 20.8694 3.91699V20.0822C22.814 17.9494 23.9998 15.1131 23.9998 11.9996Z" fill="#0052B4"/>
<path d="M14.9899 22.5872L16.2468 22.5864L16.6346 21.3907L17.0237 22.5859L17.6542 22.5856C18.0408 22.3786 18.4147 22.1512 18.7745 21.9045L2.09455 5.22461C1.81968 5.62567 1.56899 6.04445 1.34357 6.47852L1.49179 6.93377L2.74874 6.93297L1.7323 7.67242L2.12146 8.86769L1.10408 8.1295L0.497287 8.57087C0.173803 9.65725 -0.000244141 10.808 -0.000244141 11.9994C-0.000244141 18.6268 5.37238 23.9994 11.9998 23.9994C13.4009 23.9994 14.7458 23.7588 15.9959 23.3173L14.9899 22.5872ZM2.67627 11.4777L3.06393 10.282L2.04665 9.54372L3.3036 9.54292L3.6913 8.34719L4.08046 9.54245L5.33741 9.54166L4.32093 10.2811L4.71008 11.4764L3.69271 10.7382L2.67627 11.4777ZM5.26494 14.0864L5.6526 12.8907L4.63532 12.1524L5.89227 12.1516L6.27997 10.9559L6.66913 12.1511L7.92608 12.1503L6.90965 12.8898L7.2988 14.0851L6.28143 13.3469L5.26494 14.0864ZM7.85357 16.6951L8.24123 15.4994L7.22394 14.7611L8.4809 14.7603L8.8686 13.5646L9.25776 14.7598L10.5147 14.759L9.49827 15.4985L9.88743 16.6937L8.87005 15.9555L7.85357 16.6951ZM11.4587 18.5643L10.4422 19.3037L10.8299 18.1081L9.81257 17.3698L11.0695 17.369L11.4573 16.1732L11.8464 17.3685L13.1034 17.3677L12.0869 18.1072L12.4761 19.3024L11.4587 18.5643ZM13.0309 21.9124L13.4185 20.7167L12.4012 19.9785L13.6582 19.9777L14.0459 18.7819L14.4351 19.9772L15.692 19.9764L14.6756 20.7159L15.0647 21.9111L14.0474 21.1728L13.0309 21.9124Z" fill="#0052B4"/>
</g>
<defs>
<clipPath id="clip0_151_1299">
<rect width="24" height="24" fill="white"/>
</clipPath>
</defs>
</svg>
