<svg width="24" height="24" viewBox="0 0 24 24" fill="none" xmlns="http://www.w3.org/2000/svg">
<g clip-path="url(#clip0_151_1761)">
<path d="M12.0002 24C18.6277 24 24.0002 18.6274 24.0002 12C24.0002 5.37258 18.6277 0 12.0002 0C5.37283 0 0.000244141 5.37258 0.000244141 12C0.000244141 18.6274 5.37283 24 12.0002 24Z" fill="#0052B4"/>
<path d="M12 4.69531L12.3886 5.89105H13.6458L12.6286 6.63003L13.0172 7.82577L12 7.08673L10.9828 7.82577L11.3714 6.63003L10.3542 5.89105H11.6115L12 4.69531Z" fill="#FFDA44"/>
<path d="M6.83499 6.83479L7.9553 7.40554L8.84428 6.5166L8.64755 7.75832L9.76781 8.32912L8.52605 8.5258L8.32936 9.76762L7.75856 8.64735L6.51685 8.84409L7.40583 7.9551L6.83499 6.83479Z" fill="#FFDA44"/>
<path d="M4.69568 11.9993L5.89141 11.6107V10.3535L6.63035 11.3707L7.82613 10.9822L7.08705 11.9993L7.82613 13.0164L6.63035 12.6279L5.89141 13.6451V12.3878L4.69568 11.9993Z" fill="#FFDA44"/>
<path d="M6.83499 17.1642L7.40578 16.0439L6.51685 15.1549L7.75861 15.3517L8.32931 14.2314L8.52605 15.4732L9.76777 15.6699L8.64764 16.2407L8.84428 17.4824L7.9553 16.5934L6.83499 17.1642Z" fill="#FFDA44"/>
<path d="M12 19.3042L11.6114 18.1085H10.3542L11.3714 17.3695L10.9828 16.1738L12 16.9128L13.0172 16.1738L12.6286 17.3695L13.6458 18.1085H12.3885L12 19.3042Z" fill="#FFDA44"/>
<path d="M17.165 17.1642L16.0448 16.5935L15.1557 17.4825L15.3525 16.2406L14.2323 15.6699L15.474 15.4732L15.6707 14.2314L16.2415 15.3517L17.4832 15.1549L16.5942 16.044L17.165 17.1642Z" fill="#FFDA44"/>
<path d="M19.3043 11.9993L18.1086 12.3878V13.6451L17.3696 12.6279L16.174 13.0164L16.9129 11.9993L16.174 10.9822L17.3696 11.3707L18.1086 10.3535V11.6108L19.3043 11.9993Z" fill="#FFDA44"/>
<path d="M17.165 6.83474L16.5942 7.95506L17.4832 8.84404L16.2414 8.64726L15.6707 9.76752L15.474 8.52576L14.2323 8.32902L15.3525 7.75827L15.1557 6.5166L16.0448 7.40554L17.165 6.83474Z" fill="#FFDA44"/>
</g>
<defs>
<clipPath id="clip0_151_1761">
<rect width="24" height="24" fill="white"/>
</clipPath>
</defs>
</svg>
