<svg width="24" height="24" viewBox="0 0 24 24" fill="none" xmlns="http://www.w3.org/2000/svg">
<g clip-path="url(#clip0_151_1699)">
<path d="M12.0002 24C18.6277 24 24.0002 18.6274 24.0002 12C24.0002 5.37258 18.6277 0 12.0002 0C5.37283 0 0.000244141 5.37258 0.000244141 12C0.000244141 18.6274 5.37283 24 12.0002 24Z" fill="#F0F0F0"/>
<path d="M0.41333 15.1309C1.52136 19.2419 4.75841 22.479 8.86953 23.5871V15.1309H0.41333Z" fill="#D80027"/>
<path d="M8.86949 0.413086C4.75841 1.52107 1.52131 4.75816 0.41333 8.86924H8.86953V0.413086H8.86949Z" fill="#0052B4"/>
<path d="M23.5865 8.86924C22.4785 4.75816 19.2414 1.52107 15.1304 0.413086V8.86929H23.5865V8.86924Z" fill="#D80027"/>
<path d="M15.1304 23.5871C19.2414 22.479 22.4785 19.242 23.5866 15.1309H15.1304V23.5871Z" fill="#0052B4"/>
<path d="M15.1305 11.9996C15.1305 13.7285 13.729 15.13 12.0001 15.13C10.2712 15.13 8.86963 13.7285 8.86963 11.9996C8.86963 10.2707 12.0001 8.86914 12.0001 8.86914C12.0001 8.86914 15.1305 10.2707 15.1305 11.9996Z" fill="#496E2D"/>
<path d="M8.86963 11.9996C8.86963 10.2707 10.2712 8.86914 12.0001 8.86914C13.729 8.86914 15.1305 10.2707 15.1305 11.9996" fill="#0052B4"/>
<path d="M10.2393 10.4346V12.3911C10.2393 13.3636 11.0276 14.1519 12.0001 14.1519C12.9726 14.1519 13.761 13.3636 13.761 12.3911V10.4346H10.2393Z" fill="#D80027"/>
</g>
<defs>
<clipPath id="clip0_151_1699">
<rect width="24" height="24" fill="white"/>
</clipPath>
</defs>
</svg>
