<svg width="24" height="24" viewBox="0 0 24 24" fill="none" xmlns="http://www.w3.org/2000/svg">
<g clip-path="url(#clip0_151_1347)">
<path d="M12 24C18.6274 24 24 18.6274 24 12C24 5.37258 18.6274 0 12 0C5.37258 0 0 5.37258 0 12C0 18.6274 5.37258 24 12 24Z" fill="#F0F0F0"/>
<path d="M21.9999 13.4358C20.9999 13.4358 20.9999 12.5215 19.9998 12.5215C18.9999 12.5215 18.9999 13.4358 17.9999 13.4358C17 13.4358 16.9999 12.5215 16 12.5215C15 12.5215 15 13.4358 14 13.4358C13 13.4358 12.9999 12.5215 11.9998 12.5215C10.9998 12.5215 10.9998 13.4358 9.99991 13.4358C9.00006 13.4358 9.00006 12.5215 8.00008 12.5215C7 12.5215 7 13.4358 5.99992 13.4358C4.99984 13.4358 4.99984 12.5215 3.99977 12.5215C2.99992 12.5215 2.99992 13.4358 1.99994 13.4358C1.00534 13.4358 0.999578 12.5316 0.015625 12.5219C0.0433281 13.0708 0.108859 13.6097 0.207953 14.1367C1.00502 14.2537 1.07481 15.0358 2.00003 15.0358C3.00002 15.0358 3.00002 14.1215 3.99986 14.1215C4.99994 14.1215 4.99994 15.0358 6.00002 15.0358C7.00009 15.0358 7.00009 14.1215 8.00017 14.1215C9.00016 14.1215 9.00016 15.0358 10 15.0358C11 15.0358 11 14.1215 11.9999 14.1215C13 14.1215 13 15.0358 14.0001 15.0358C15.0002 15.0358 15.0002 14.1215 16.0001 14.1215C17.0001 14.1215 17.0001 15.0358 18 15.0358C19 15.0358 19 14.1215 19.9999 14.1215C21 14.1215 21 15.0358 22 15.0358C22.9252 15.0358 22.995 14.2538 23.7921 14.1367C23.8913 13.6096 23.9567 13.0708 23.9845 12.5219C23.0004 12.5316 22.9945 13.4358 21.9999 13.4358Z" fill="#0052B4"/>
<path d="M19.9998 15.6523C18.9998 15.6523 18.9998 16.5667 17.9999 16.5667C16.9999 16.5667 16.9999 15.6523 15.9999 15.6523C15 15.6523 15 16.5667 13.9999 16.5667C12.9998 16.5667 12.9998 15.6523 11.9998 15.6523C10.9998 15.6523 10.9998 16.5667 9.99985 16.5667C9 16.5667 9 15.6523 8.00002 15.6523C6.99994 15.6523 6.99994 16.5667 5.99986 16.5667C4.99979 16.5667 4.99979 15.6523 3.99971 15.6523C2.99986 15.6523 2.99986 16.5667 1.99988 16.5667C1.26324 16.5667 1.06875 16.0708 0.617676 15.8097C0.890863 16.6262 1.24969 17.4033 1.68305 18.131C1.77689 18.1536 1.88124 18.1667 1.99983 18.1667C2.99982 18.1667 2.99982 17.2524 3.99966 17.2524C4.99974 17.2524 4.99974 18.1667 5.99982 18.1667C6.99989 18.1667 6.9999 17.2524 7.99997 17.2524C8.99996 17.2524 8.99996 18.1667 9.9998 18.1667C10.9998 18.1667 10.9998 17.2524 11.9997 17.2524C12.9998 17.2524 12.9998 18.1667 13.9999 18.1667C15 18.1667 15 17.2524 15.9999 17.2524C16.9999 17.2524 16.9999 18.1667 17.9998 18.1667C18.9998 18.1667 18.9998 17.2524 19.9997 17.2524C20.9998 17.2524 20.9998 18.1667 21.9998 18.1667C22.1184 18.1667 22.2229 18.1536 22.3168 18.131C22.7502 17.4033 23.109 16.6262 23.3821 15.8097C22.931 16.0709 22.7365 16.5667 21.9998 16.5667C20.9999 16.5667 20.9999 15.6523 19.9998 15.6523Z" fill="#0052B4"/>
<path d="M23.7209 9.4194C22.9899 9.57113 22.8967 10.3059 21.9999 10.3059C20.9999 10.3059 20.9999 9.3916 19.9999 9.3916C18.9999 9.3916 18.9999 10.3059 18 10.3059C17.0001 10.3059 17 9.3916 16.0001 9.3916C15.0001 9.3916 15.0001 10.3059 14.0001 10.3059C13 10.3059 13 9.3916 11.9999 9.3916C11.4596 9.3916 11.2111 9.65851 10.9392 9.90394V11.5039C11.2111 11.2585 11.4595 10.9917 11.9999 10.9917C13 10.9917 13 11.9059 14.0001 11.9059C15.0001 11.9059 15.0001 10.9917 16.0001 10.9917C17.0001 10.9917 17.0001 11.9059 18 11.9059C18.9999 11.9059 19 10.9917 19.9999 10.9917C21 10.9917 21 11.9059 21.9999 11.9059C22.9252 11.9059 22.995 11.124 23.7921 11.0069C23.8432 11.0069 23.9003 11.0064 23.9587 11.0056C23.9144 10.466 23.8343 9.93648 23.7209 9.4194Z" fill="#0052B4"/>
<path d="M22.8443 6.85648C22.6371 7.03052 22.3975 7.17509 21.9999 7.17509C20.9999 7.17509 20.9999 6.26074 19.9999 6.26074C18.9999 6.26074 18.9999 7.17509 18 7.17509C17.0001 7.17509 17 6.26074 16.0001 6.26074C15.0001 6.26074 15.0001 7.17509 14.0001 7.17509C13 7.17509 13 6.26074 11.9999 6.26074C11.4596 6.26074 11.2111 6.52765 10.9392 6.77309V8.37307C11.2111 8.12768 11.4595 7.86082 11.9999 7.86082C13 7.86082 13 8.77507 14.0001 8.77507C15 8.77507 15 7.86082 16 7.86082C17 7.86082 17 8.77507 17.9999 8.77507C18.9999 8.77507 18.9999 7.86082 19.9999 7.86082C20.9999 7.86082 20.9999 8.77507 21.9999 8.77507C22.7094 8.77507 22.9161 8.31546 23.3333 8.04818C23.1911 7.64051 23.0278 7.24277 22.8443 6.85648Z" fill="#0052B4"/>
<path d="M20.0854 3.1333C20.0576 3.1318 20.0293 3.13086 20 3.13086C19 3.13086 19 4.0452 18 4.0452C17.0001 4.0452 17.0001 3.13086 16.0001 3.13086C15.0001 3.13086 15.0001 4.0452 14.0001 4.0452C13 4.0452 13 3.13086 11.9999 3.13086C11.4596 3.13086 11.2111 3.39777 10.9392 3.6432V5.24319C11.2111 4.9978 11.4595 4.73094 11.9999 4.73094C13 4.73094 13 5.64519 14.0001 5.64519C15.0001 5.64519 15.0001 4.73094 16.0001 4.73094C17.0001 4.73094 17.0001 5.64519 18 5.64519C18.9999 5.64519 19 4.73094 19.9999 4.73094C21 4.73094 21 5.64519 21.9999 5.64519C22.0615 5.64519 22.119 5.64153 22.1735 5.63502C21.5927 4.70858 20.8894 3.86684 20.0854 3.1333Z" fill="#0052B4"/>
<path d="M15.0671 0.396188C14.7926 0.643125 14.5445 0.914344 13.9999 0.914344C12.9998 0.914344 12.9998 9.375e-05 11.9998 0H11.9996C11.4825 4.6875e-05 11.2328 0.244594 10.9739 0.480797V2.08083C11.2328 1.84463 11.4825 1.60003 11.9998 1.60003C12.9999 1.60003 12.9999 2.51428 13.9999 2.51428C15 2.51428 15 1.60003 16 1.60003C16.9999 1.60003 16.9999 2.51428 17.9999 2.51428C18.4195 2.51428 18.6628 2.35322 18.8781 2.16637C17.7373 1.36692 16.4512 0.761016 15.0671 0.396188Z" fill="#0052B4"/>
<path d="M13.9998 22.8275C12.9997 22.8275 12.9997 21.9131 11.9996 21.9131C10.9997 21.9131 10.9997 22.8275 9.99972 22.8275C8.99988 22.8275 8.99988 21.9131 7.99989 21.9131C7.23391 21.9131 7.05424 22.4491 6.56299 22.7003C7.91768 23.39 9.42082 23.8296 11.0118 23.9593C11.2578 23.7345 11.5077 23.5132 11.9996 23.5132C12.4917 23.5132 12.7416 23.7345 12.9877 23.9594C14.5787 23.8297 16.0819 23.39 17.4367 22.7003C16.9453 22.4492 16.7657 21.9131 15.9998 21.9131C14.9999 21.9131 14.9999 22.8275 13.9998 22.8275Z" fill="#0052B4"/>
<path d="M18 19.6966C17 19.6966 17 18.7822 16.0001 18.7822C15.0001 18.7822 15.0001 19.6966 14.0001 19.6966C13 19.6966 13 18.7822 11.9999 18.7822C10.9999 18.7822 10.9999 19.6966 10 19.6966C9.00016 19.6966 9.00016 18.7822 8.00018 18.7822C7.0001 18.7822 7.0001 19.6966 6.00002 19.6966C4.99994 19.6966 4.99994 18.7822 3.99987 18.7822C3.28076 18.7822 3.07882 19.2552 2.65015 19.5207C2.91883 19.8544 3.20449 20.1738 3.50679 20.4766C3.64221 20.4188 3.80112 20.3823 3.99982 20.3823C4.9999 20.3823 4.9999 21.2965 5.99997 21.2965C7.00005 21.2965 7.00005 20.3823 8.00013 20.3823C9.00012 20.3823 9.00012 21.2965 9.99996 21.2965C10.9999 21.2965 10.9999 20.3823 11.9999 20.3823C13 20.3823 13 21.2965 14 21.2965C15.0001 21.2965 15.0001 20.3823 16.0001 20.3823C17 20.3823 17 21.2965 18 21.2965C18.9999 21.2965 19 20.3823 19.9999 20.3823C20.1988 20.3823 20.3577 20.4188 20.4933 20.4767C20.7956 20.1739 21.0813 19.8544 21.3499 19.5208C20.9212 19.2553 20.7193 18.7823 19.9999 18.7823C19 18.7822 19 19.6966 18 19.6966Z" fill="#0052B4"/>
<path d="M11.968 11.9999H12.0001C12.0001 11.9891 12.0001 11.9786 12.0001 11.9678C11.9894 11.9785 11.9788 11.9892 11.968 11.9999Z" fill="#F0F0F0"/>
<path d="M11.9998 6.26098V9.78659L7.82593 5.73926L11.9998 6.26098Z" fill="#0052B4"/>
<path d="M6.26078 12.0003H9.78625L6.26073 7.30469L5.73901 10.9569L6.26078 12.0003Z" fill="#0052B4"/>
<path d="M12 6.26086C12 4.14937 12 2.76586 12 0H11.998C5.3715 0.001125 0 5.37323 0 12H6.26091V8.47448L9.78638 12H11.9679C11.9786 11.9893 11.9893 11.9786 12 11.9679C12 11.1594 12 10.4381 12 9.78647L8.47444 6.26086H12Z" fill="#F0F0F0"/>
<path d="M6.07075 1.56543C4.19393 2.63413 2.63364 4.19441 1.56494 6.07124V12.0002H4.69539V4.69598V4.69588H11.9997C11.9997 3.70855 11.9997 2.76796 11.9997 1.56543H6.07075Z" fill="#D80027"/>
<path d="M11.9996 10.5242L7.73612 6.26074H6.2605V6.26084L11.9995 11.9998H11.9996C11.9996 11.9998 11.9996 10.9823 11.9996 10.5242Z" fill="#D80027"/>
<path d="M15.6521 6.26074H20.3478L17.9999 8.60857L15.6521 6.26074Z" fill="#6DA544"/>
<path d="M17.4783 8.08691H18.5218V10.9565H17.4783V8.08691Z" fill="#A2001D"/>
<path d="M17.4783 15.6523H18.5218V18.5219H17.4783V15.6523Z" fill="#A2001D"/>
<path d="M21.1305 14.0867C21.1305 13.2223 20.4297 12.5215 19.5653 12.5215C19.1643 12.5215 18.7988 12.6725 18.5218 12.9204V11.9998H19.0435V10.9563H18.5218V10.4346H17.4783V10.9563H16.9566V11.9998H17.4783V12.9204C17.2013 12.6725 16.8358 12.5215 16.4348 12.5215C15.5704 12.5215 14.8696 13.2223 14.8696 14.0867C14.8696 14.5502 15.0712 14.9664 15.3913 15.2531V16.1737H20.6087V15.2531C20.9289 14.9664 21.1305 14.5502 21.1305 14.0867Z" fill="#FFDA44"/>
<path d="M19.5652 13.5654C19.4006 13.5654 19.2854 13.6377 19.2177 13.6983L18.5217 14.3213H17.4783L16.7823 13.6983C16.7146 13.6377 16.5994 13.5654 16.4348 13.5654C16.1471 13.5654 15.9131 13.7995 15.9131 14.0871C15.9131 14.2898 16.0224 14.4178 16.0875 14.4762L16.4349 14.7872V15.1306H19.5653V14.7872L19.9127 14.4762C19.9778 14.4179 20.0871 14.2898 20.0871 14.0871C20.087 13.7995 19.8529 13.5654 19.5652 13.5654Z" fill="#D80027"/>
</g>
<defs>
<clipPath id="clip0_151_1347">
<rect width="24" height="24" fill="white"/>
</clipPath>
</defs>
</svg>
