<svg width="24" height="24" viewBox="0 0 24 24" fill="none" xmlns="http://www.w3.org/2000/svg">
<g clip-path="url(#clip0_151_2008)">
<path d="M11.9998 24C18.6272 24 23.9998 18.6274 23.9998 12C23.9998 5.37258 18.6272 0 11.9998 0C5.37234 0 -0.000244141 5.37258 -0.000244141 12C-0.000244141 18.6274 5.37234 24 11.9998 24Z" fill="#D80027"/>
<path d="M16.443 8.04441L15.5948 11.0712L13.05 10.6013L11.4119 7.22461L6.98653 8.79497L6.63755 7.81153L5.47974 7.66889L6.35213 10.1274L9.39755 9.34861L10.263 11.7875L8.15775 14.8944L11.7304 17.9416L11.0533 18.7355L11.5086 19.8096L13.2016 17.8247L11.0044 15.5767L12.6838 13.6079L16.4272 13.8776L17.2798 9.25992L18.3059 9.44944L19.0085 8.51803L16.443 8.04441Z" fill="#F0F0F0"/>
</g>
<defs>
<clipPath id="clip0_151_2008">
<rect width="24" height="24" fill="white"/>
</clipPath>
</defs>
</svg>
