<svg width="24" height="24" viewBox="0 0 24 24" fill="none" xmlns="http://www.w3.org/2000/svg">
<g clip-path="url(#clip0_151_2156)">
<path d="M12 24C18.6274 24 24 18.6274 24 12C24 5.37258 18.6274 0 12 0C5.37258 0 0 5.37258 0 12C0 18.6274 5.37258 24 12 24Z" fill="#496E2D"/>
<path d="M14.087 11.4992C13.7924 11.4992 13.5128 11.5579 13.2531 11.6514C13.3953 11.3343 13.4907 10.9815 13.4907 10.6048C13.4907 9.11411 12.0001 7.99609 12.0001 7.99609C12.0001 7.99609 10.5094 9.11411 10.5094 10.6048C10.5094 10.9815 10.6048 11.3343 10.747 11.6514C10.4873 11.558 10.2076 11.4992 9.91313 11.4992C8.42246 11.4992 7.30444 12.9898 7.30444 12.9898C7.30444 12.9898 8.42246 14.4805 9.91313 14.4805C10.7871 14.4805 11.5325 13.9683 12.0001 13.5443C12.4677 13.9683 13.2131 14.4805 14.0871 14.4805C15.5777 14.4805 16.6958 12.9898 16.6958 12.9898C16.6958 12.9898 15.5776 11.4992 14.087 11.4992Z" fill="#F0F0F0"/>
<path d="M12.0001 4.69531L12.3081 5.64294H13.3045L12.4985 6.22869L12.8062 7.17631L12.0001 6.59056L11.1941 7.17631L11.5018 6.22869L10.6958 5.64294H11.6922L12.0001 4.69531Z" fill="#FFDA44"/>
<path d="M8.2111 6.35254L8.80351 6.88588L9.49384 6.48735L9.16965 7.21555L9.76201 7.74899L8.96926 7.66565L8.64507 8.39385L8.47923 7.61418L7.68652 7.53084L8.3768 7.13221L8.2111 6.35254Z" fill="#FFDA44"/>
<path d="M5.43726 9.12619L6.21697 9.29189L6.61555 8.60156L6.6989 9.39427L7.47852 9.56011L6.75037 9.88434L6.83371 10.677L6.30022 10.0847L5.57207 10.4089L5.97065 9.71855L5.43726 9.12619Z" fill="#FFDA44"/>
<path d="M15.7891 6.35254L15.1968 6.88588L14.5065 6.48735L14.8306 7.21555L14.2383 7.74899L15.031 7.66565L15.3552 8.39385L15.5211 7.61418L16.3138 7.53084L15.6235 7.13221L15.7891 6.35254Z" fill="#FFDA44"/>
<path d="M18.563 9.12619L17.7833 9.29189L17.3847 8.60156L17.3014 9.39427L16.5217 9.56011L17.2499 9.88434L17.1665 10.677L17.7 10.0847L18.4282 10.4089L18.0296 9.71855L18.563 9.12619Z" fill="#FFDA44"/>
<path d="M11.9999 18.6545C13.184 18.6545 14.2755 18.2595 15.151 17.5947H8.84888C9.72441 18.2594 10.8158 18.6545 11.9999 18.6545Z" fill="#F0F0F0"/>
<path d="M7.21704 15.5244C7.38265 15.9034 7.59265 16.2584 7.83931 16.5842H16.1605C16.4071 16.2585 16.6171 15.9034 16.7827 15.5244H7.21704Z" fill="#F0F0F0"/>
</g>
<defs>
<clipPath id="clip0_151_2156">
<rect width="24" height="24" fill="white"/>
</clipPath>
</defs>
</svg>
