<svg width="24" height="24" viewBox="0 0 24 24" fill="none" xmlns="http://www.w3.org/2000/svg">
<g clip-path="url(#clip0_151_2836)">
<path d="M11.9999 24C18.6273 24 23.9999 18.6274 23.9999 12C23.9999 5.37258 18.6273 0 11.9999 0C5.37246 0 -0.00012207 5.37258 -0.00012207 12C-0.00012207 18.6274 5.37246 24 11.9999 24Z" fill="#F0F0F0"/>
<path d="M23.2534 7.82617H0.746222C0.263925 9.1262 -0.00012207 10.5322 -0.00012207 12.0001C-0.00012207 13.4679 0.263925 14.874 0.746222 16.174H23.2535C23.7359 14.874 23.9999 13.4679 23.9999 12.0001C23.9999 10.5322 23.7359 9.1262 23.2534 7.82617Z" fill="#A2001D"/>
<path d="M12.0345 23.9996C16.1446 23.9996 19.7716 21.9328 21.9343 18.7822H2.13477C4.29748 21.9328 7.92439 23.9996 12.0345 23.9996Z" fill="#6DA544"/>
<path d="M12.0345 0C16.1446 0 19.7716 2.06681 21.9343 5.21737H2.13477C4.29748 2.06681 7.92439 0 12.0345 0Z" fill="#6DA544"/>
<path d="M11.9998 7.82617L13.0358 11.0146H16.3885L13.6761 12.9854L14.7122 16.174L11.9998 14.2034L9.28738 16.174L10.3235 12.9854L7.61108 11.0146H10.9638L11.9998 7.82617Z" fill="#FFDA44"/>
</g>
<defs>
<clipPath id="clip0_151_2836">
<rect width="24" height="24" fill="white"/>
</clipPath>
</defs>
</svg>
