<svg width="24" height="24" viewBox="0 0 24 24" fill="none" xmlns="http://www.w3.org/2000/svg">
<g clip-path="url(#clip0_151_1470)">
<path d="M24 12C24 18.6274 18.6274 24 12 24C5.37262 24 0 18.6274 0 12C0 12.0029 12 0.0013125 12 0C18.6274 0 24 5.37262 24 12Z" fill="#0052B4"/>
<path d="M11.9678 11.9999H11.9999C11.9999 11.9891 11.9999 11.9786 11.9999 11.9678C11.9892 11.9785 11.9785 11.9892 11.9678 11.9999Z" fill="#F0F0F0"/>
<path d="M11.9998 6.26086C11.9998 4.14937 11.9998 2.76586 11.9998 0H11.9977C5.37121 0.001125 -0.000244141 5.37323 -0.000244141 12H6.26062V8.47448L9.78613 12H11.9677C11.9784 11.9893 11.9891 11.9786 11.9998 11.9679C11.9998 11.1594 11.9998 10.4381 11.9998 9.78647L8.47419 6.26086H11.9998Z" fill="#F0F0F0"/>
<path d="M17.2173 8.86925C18.3699 8.86925 19.3043 7.93488 19.3043 6.78228C19.3043 5.62968 18.3699 4.69531 17.2173 4.69531C16.0647 4.69531 15.1304 5.62968 15.1304 6.78228C15.1304 7.93488 16.0647 8.86925 17.2173 8.86925Z" fill="#6DA544"/>
<path d="M6.071 1.56543C4.19417 2.63413 2.63384 4.19441 1.56519 6.07124V12.0002H4.69564V4.69598V4.69588H12C12 3.70855 12 2.76796 12 1.56543H6.071Z" fill="#D80027"/>
<path d="M11.9999 10.5242L7.73637 6.26074H6.26074V6.26084L11.9998 11.9998H11.9999C11.9999 11.9998 11.9999 10.9823 11.9999 10.5242Z" fill="#D80027"/>
<path d="M13.5652 6.26074H20.8695V9.3912H13.5652V6.26074Z" fill="#D80027"/>
<path d="M13.5652 14.0869V16.1739H14.6632C15.3215 16.8191 16.2227 17.2174 17.2174 17.2174C18.212 17.2174 19.1132 16.8191 19.7715 16.1739H19.826H20.8695V14.0869H13.5652Z" fill="#FFDA44"/>
<path d="M13.5652 8.86914V11.9996C13.5652 14.7952 17.2174 15.6518 17.2174 15.6518C17.2174 15.6518 20.8695 14.7952 20.8695 11.9996V8.86914H13.5652Z" fill="#338AF3"/>
<path d="M17.2171 10.541C16.3041 10.541 16.3041 11.3758 15.3912 11.3758C14.4782 11.3758 14.4782 10.541 13.5652 10.541V12.0019C14.4782 12.0019 14.4782 12.8367 15.3912 12.8367C16.3041 12.8367 16.3041 12.0019 17.2171 12.0019C18.1302 12.0019 18.1302 12.8367 19.0433 12.8367C19.9565 12.8367 19.9564 12.0019 20.8695 12.0019V10.541C19.9564 10.541 19.9565 11.3758 19.0433 11.3758C18.1302 11.3758 18.1302 10.541 17.2171 10.541Z" fill="#F3F3F3"/>
<path d="M17.2171 7.61719C16.3041 7.61719 16.3041 8.45198 15.3912 8.45198C14.4782 8.45198 14.4782 7.61719 13.5652 7.61719V9.07805C14.4782 9.07805 14.4782 9.91284 15.3912 9.91284C16.3041 9.91284 16.3041 9.07805 17.2171 9.07805C18.1302 9.07805 18.1302 9.91284 19.0433 9.91284C19.9565 9.91284 19.9564 9.07805 20.8695 9.07805V7.61719C19.9564 7.61719 19.9565 8.45198 19.0433 8.45198C18.1302 8.45198 18.1302 7.61719 17.2171 7.61719Z" fill="#F3F3F3"/>
</g>
<defs>
<clipPath id="clip0_151_1470">
<rect width="24" height="24" fill="white"/>
</clipPath>
</defs>
</svg>
