<svg width="24" height="24" viewBox="0 0 24 24" fill="none" xmlns="http://www.w3.org/2000/svg">
<g clip-path="url(#clip0_151_1590)">
<path d="M12 24C18.6274 24 24 18.6274 24 12C24 5.37258 18.6274 0 12 0C5.37258 0 0 5.37258 0 12C0 18.6274 5.37258 24 12 24Z" fill="#FCFCFC"/>
<path d="M16.1783 10.1637C16.1783 7.62575 14.1209 5.56836 11.5829 5.56836C9.71008 5.56836 8.10006 6.68914 7.38419 8.2962L6.81742 10.351L7.33914 10.8727L6.29565 12.9597L7.33914 13.4814L6.81742 14.0031V14.5248L7.33914 15.0465V16.09L7.86086 16.6117L9.42606 16.09C9.42606 16.09 9.42606 16.6117 9.94778 17.1335C10.4695 17.6552 10.9913 18.6987 10.9913 18.6987C10.9913 18.6987 12.5565 19.2205 13.6 17.6553C14.6435 16.0901 15.687 15.5683 15.687 15.5683L14.6812 13.5567C15.601 12.7166 16.1783 11.5078 16.1783 10.1637Z" fill="black"/>
<path d="M16.5527 11.9212C18.6729 11.5636 19.026 7.41211 19.026 7.41211H16.1043C17.6173 11.0643 16.0337 11.31 16.0337 11.31C15.8191 11.1503 8.14108 7.51303 7.8977 7.42055C7.83906 7.49902 7.6232 7.70512 7.3608 8.34684C7.09834 8.98856 7.03394 9.56588 7.03394 9.56588C7.15684 9.64598 15.3109 12.4932 15.5264 12.5169C15.9542 12.7966 16.4805 13.6329 16.1863 16.1125L18.9985 15.3199C18.9986 15.3199 18.0442 12.781 16.5527 11.9212Z" fill="#ACABB1"/>
</g>
<defs>
<clipPath id="clip0_151_1590">
<rect width="24" height="24" fill="white"/>
</clipPath>
</defs>
</svg>
