<svg width="24" height="24" viewBox="0 0 24 24" fill="none" xmlns="http://www.w3.org/2000/svg">
<g clip-path="url(#clip0_151_1871)">
<path d="M12 24C18.6274 24 24 18.6274 24 12C24 5.37258 18.6274 0 12 0C5.37258 0 0 5.37258 0 12C0 18.6274 5.37258 24 12 24Z" fill="#FFDA44"/>
<path d="M5.23657 2.08697C7.16243 0.770437 9.49109 0 12 0C14.509 0 16.8376 0.770437 18.7635 2.08697L12 2.60869L5.23657 2.08697Z" fill="#A2001D"/>
<path d="M11.9999 12.0002L11.2341 11.2344L11.0308 11.5986L11.9999 12.0002Z" fill="#0052B4"/>
<path d="M3.51422 3.51465C-1.17206 8.20093 -1.17206 15.7989 3.51422 20.4853C5.45077 18.5487 7.31325 16.6862 11.9995 12L3.51422 3.51465Z" fill="#496E2D"/>
<path d="M20.4853 3.51465C25.1716 8.20093 25.1716 15.7989 20.4853 20.4853C18.5488 18.5487 16.6863 16.6862 12 12L20.4853 3.51465Z" fill="#496E2D"/>
<path d="M12.0001 16.174C14.3052 16.174 16.174 14.3052 16.174 12.0001C16.174 9.69489 14.3052 7.82617 12.0001 7.82617C9.69489 7.82617 7.82617 9.69489 7.82617 12.0001C7.82617 14.3052 9.69489 16.174 12.0001 16.174Z" fill="#A2001D"/>
<path d="M11.9999 7.82617L12.9355 10.7057H15.9635L13.5139 12.4856L14.4495 15.3653L11.9999 13.5856L9.5502 15.3653L10.486 12.4856L8.03638 10.7057H11.0642L11.9999 7.82617Z" fill="#FFDA44"/>
<path d="M12.0041 0H11.9961C8.68419 0.00107812 5.68602 1.34372 3.51538 3.51413H20.4847C18.3141 1.34372 15.3159 0.00107812 12.0041 0Z" fill="#A2001D"/>
<path d="M3.51562 20.4863C5.68716 22.6575 8.68688 24.0004 12.0002 24.0004C15.3136 24.0004 18.3133 22.6575 20.4848 20.4863H3.51562Z" fill="#A2001D"/>
<path d="M12.0001 1.30469L12.1944 1.90253H12.823L12.3145 2.27205L12.5088 2.86989L12.0001 2.50042L11.4916 2.86989L11.6859 2.27205L11.1772 1.90253H11.8058L12.0001 1.30469Z" fill="#FFDA44"/>
<path d="M9.09047 1.30469L9.28477 1.90253H9.91336L9.40481 2.27205L9.59911 2.86989L9.09047 2.50042L8.58197 2.86989L8.77622 2.27205L8.26758 1.90253H8.89617L9.09047 1.30469Z" fill="#FFDA44"/>
<path d="M14.91 1.30469L15.1043 1.90253H15.7329L15.2244 2.27205L15.4187 2.86989L14.91 2.50042L14.4015 2.86989L14.5958 2.27205L14.0872 1.90253H14.7158L14.91 1.30469Z" fill="#FFDA44"/>
<path d="M12.0001 21.1309L12.1944 21.7287H12.823L12.3145 22.0982L12.5088 22.6961L12.0001 22.3265L11.4916 22.6961L11.6859 22.0982L11.1772 21.7287H11.8058L12.0001 21.1309Z" fill="#FFDA44"/>
<path d="M9.09047 21.1309L9.28477 21.7287H9.91336L9.40481 22.0982L9.59911 22.6961L9.09047 22.3265L8.58197 22.6961L8.77622 22.0982L8.26758 21.7287H8.89617L9.09047 21.1309Z" fill="#FFDA44"/>
<path d="M14.91 21.1309L15.1043 21.7287H15.7329L15.2244 22.0982L15.4187 22.6961L14.91 22.3265L14.4015 22.6961L14.5958 22.0982L14.0872 21.7287H14.7158L14.91 21.1309Z" fill="#FFDA44"/>
<path d="M3.65663 11.8019C3.96484 12.2889 3.81999 12.9335 3.33301 13.2417C2.84607 13.55 2.20145 13.4051 1.8932 12.9182C1.33515 12.0365 1.65873 10.5967 1.65873 10.5967C1.65873 10.5967 3.09854 10.9203 3.65663 11.8019Z" fill="#FFDA44"/>
<path d="M3.0537 13.3227C3.34184 13.3227 3.57542 13.0892 3.57542 12.801C3.57542 12.5129 3.34184 12.2793 3.0537 12.2793C2.76556 12.2793 2.53198 12.5129 2.53198 12.801C2.53198 13.0892 2.76556 13.3227 3.0537 13.3227Z" fill="#A2001D"/>
</g>
<defs>
<clipPath id="clip0_151_1871">
<rect width="24" height="24" fill="white"/>
</clipPath>
</defs>
</svg>
