<svg width="24" height="24" viewBox="0 0 24 24" fill="none" xmlns="http://www.w3.org/2000/svg">
<g clip-path="url(#clip0_151_1600)">
<path d="M24 12.0003C24 10.5325 23.736 9.12639 23.2536 7.82645L12 7.30469L0.746391 7.82641C0.264047 9.12639 0 10.5325 0 12.0003C0 13.4682 0.264047 14.8743 0.746391 16.1742L12 16.696L23.2536 16.1743C23.736 14.8743 24 13.4682 24 12.0003Z" fill="#F0F0F0"/>
<path d="M11.9999 23.9999C17.1595 23.9999 21.558 20.7434 23.2536 16.1738H0.746338C2.44185 20.7434 6.84037 23.9999 11.9999 23.9999Z" fill="#0052B4"/>
<path d="M0.746338 7.82611H23.2536C21.558 3.2565 17.1595 0 11.9999 0C6.84037 0 2.44185 3.2565 0.746338 7.82611Z" fill="#D80027"/>
<path d="M15.1302 8.34753H13.0432L13.3911 5.7388L14.7823 4.69531L16.1736 5.7388V7.82577L15.1302 8.34753Z" fill="#338AF3"/>
<path d="M8.86936 8.34753H10.9563L10.6085 5.7388L9.21718 4.69531L7.82593 5.7388V7.82577L8.86936 8.34753Z" fill="#338AF3"/>
<path d="M13.3913 8.34753H10.6086V5.7388L12 4.69531L13.3913 5.7388V8.34753Z" fill="#0052B4"/>
<path d="M7.82593 7.82617V13.5653C7.82593 14.9318 8.48602 16.1471 9.50415 16.909L10.2346 16.7262L11.1563 17.6535C11.4289 17.7096 11.711 17.7392 11.9999 17.7392C12.2872 17.7392 12.5678 17.71 12.839 17.6544L13.8912 16.7783L14.4955 16.9073C15.5132 16.1455 16.1738 14.9314 16.1738 13.5653V7.82617H7.82593Z" fill="#F0F0F0"/>
<path d="M7.82593 7.82617H9.49547V9.49572H7.82593V7.82617Z" fill="#D80027"/>
<path d="M11.165 7.82617H12.8346V9.49572H11.165V7.82617Z" fill="#D80027"/>
<path d="M14.5042 7.82617H16.1737V9.49572H14.5042V7.82617Z" fill="#D80027"/>
<path d="M9.49536 9.49609H11.1649V11.1656H9.49536V9.49609Z" fill="#D80027"/>
<path d="M12.8347 9.49609H14.5043V11.1656H12.8347V9.49609Z" fill="#D80027"/>
<path d="M7.82593 11.165H9.49547V12.8346H7.82593V11.165Z" fill="#D80027"/>
<path d="M9.49536 12.834H11.1649V14.5035H9.49536V12.834Z" fill="#D80027"/>
<path d="M11.165 11.165H12.8346V12.8346H11.165V11.165Z" fill="#D80027"/>
<path d="M14.5042 11.165H16.1737V12.8346H14.5042V11.165Z" fill="#D80027"/>
<path d="M12.8347 12.834H14.5043V14.5035H12.8347V12.834Z" fill="#D80027"/>
<path d="M11.165 14.5039H12.8346V16.1735H11.165V14.5039Z" fill="#D80027"/>
<path d="M9.49542 14.5039H7.93359C8.07684 15.1245 8.35847 15.6924 8.74463 16.1735H9.49542V14.5039Z" fill="#D80027"/>
<path d="M14.5042 16.1735H15.2549C15.6411 15.6924 15.9227 15.1245 16.0659 14.5039H14.5042V16.1735Z" fill="#D80027"/>
<path d="M9.49536 16.1738V16.9023C9.98094 17.2677 10.5484 17.5297 11.1649 17.6554V16.1738H9.49536Z" fill="#D80027"/>
<path d="M12.8347 16.1738V17.6554C13.4513 17.5298 14.0187 17.2677 14.5043 16.9023V16.1738H12.8347Z" fill="#D80027"/>
</g>
<defs>
<clipPath id="clip0_151_1600">
<rect width="24" height="24" fill="white"/>
</clipPath>
</defs>
</svg>
