<svg width="24" height="24" viewBox="0 0 24 24" fill="none" xmlns="http://www.w3.org/2000/svg">
<g clip-path="url(#clip0_151_2953)">
<path d="M11.9998 24C18.6272 24 23.9998 18.6274 23.9998 12C23.9998 5.37258 18.6272 0 11.9998 0C5.37234 0 -0.000244141 5.37258 -0.000244141 12C-0.000244141 18.6274 5.37234 24 11.9998 24Z" fill="#D80027"/>
<path d="M12.0001 17.739C15.1698 17.739 17.7393 15.1695 17.7393 11.9999C17.7393 8.83024 15.1698 6.26074 12.0001 6.26074C8.83049 6.26074 6.26099 8.83024 6.26099 11.9999C6.26099 15.1695 8.83049 17.739 12.0001 17.739Z" fill="#F0F0F0"/>
<path d="M12.7072 9.80566L13.6918 11.1625L15.2863 10.6454L14.3002 12.0011L15.2847 13.3578L13.6906 12.8388L12.7045 14.1944L12.7056 12.5181L11.1116 11.9991L12.7062 11.4821L12.7072 9.80566Z" fill="#D80027"/>
<path d="M13.3044 15.3914C11.4315 15.3914 9.91309 13.873 9.91309 12.0001C9.91309 10.1272 11.4315 8.6088 13.3044 8.6088C13.8884 8.6088 14.4379 8.75645 14.9176 9.01642C14.165 8.28044 13.1359 7.82617 12.0001 7.82617C9.69494 7.82617 7.82617 9.69489 7.82617 12.0001C7.82617 14.3052 9.69494 16.174 12.0001 16.174C13.1359 16.174 14.1651 15.7197 14.9176 14.9837C14.4379 15.2438 13.8884 15.3914 13.3044 15.3914Z" fill="#D80027"/>
</g>
<defs>
<clipPath id="clip0_151_2953">
<rect width="24" height="24" fill="white"/>
</clipPath>
</defs>
</svg>
