<svg width="24" height="24" viewBox="0 0 24 24" fill="none" xmlns="http://www.w3.org/2000/svg">
<g clip-path="url(#clip0_151_2444)">
<path d="M11.9999 24C18.6273 24 23.9999 18.6274 23.9999 12C23.9999 5.37258 18.6273 0 11.9999 0C5.37246 0 -0.00012207 5.37258 -0.00012207 12C-0.00012207 18.6274 5.37246 24 11.9999 24Z" fill="#F0F0F0"/>
<path d="M0.41333 15.1299C1.10764 17.7061 2.63788 19.9389 4.6956 21.52V15.1299H0.41333Z" fill="#D80027"/>
<path d="M10.9564 23.9538C11.3004 23.9834 11.6482 23.9994 11.9999 23.9994C17.5442 23.9994 22.2095 20.2391 23.5865 15.1299H10.9564V23.9538Z" fill="#D80027"/>
<path d="M23.5865 8.86955C22.2095 3.76036 17.5442 0 11.9999 0C11.6482 0 11.3004 0.0160312 10.9564 0.0456562V8.86955H23.5865Z" fill="#D80027"/>
<path d="M4.6956 2.47949C2.63788 4.06059 1.10764 6.29338 0.41333 8.86959H4.6956V2.47949Z" fill="#D80027"/>
<path d="M23.8983 10.4347H9.39124H9.39119V0.285156C8.28222 0.531062 7.23086 0.929641 6.26074 1.459V10.4346V10.4347H0.101456C0.0346592 10.9471 -0.00012207 11.4694 -0.00012207 11.9999C-0.00012207 12.5304 0.0346592 13.0528 0.101456 13.5651H6.26069H6.26074V22.5408C7.23086 23.0701 8.28222 23.4688 9.39119 23.7146V13.5653V13.5652H23.8983C23.965 13.0528 23.9999 12.5304 23.9999 11.9999C23.9999 11.4694 23.965 10.9471 23.8983 10.4347Z" fill="#0052B4"/>
</g>
<defs>
<clipPath id="clip0_151_2444">
<rect width="24" height="24" fill="white"/>
</clipPath>
</defs>
</svg>
