<svg width="24" height="24" viewBox="0 0 24 24" fill="none" xmlns="http://www.w3.org/2000/svg">
<g clip-path="url(#clip0_151_2109)">
<path d="M12.0002 24C18.6277 24 24.0002 18.6274 24.0002 12C24.0002 5.37258 18.6277 0 12.0002 0C5.37283 0 0.000244141 5.37258 0.000244141 12C0.000244141 18.6274 5.37283 24 12.0002 24Z" fill="#F0F0F0"/>
<path d="M12.0002 0C7.24267 0 3.13192 2.76867 1.19092 6.78263H22.8094C20.8685 2.76867 16.7577 0 12.0002 0Z" fill="#D80027"/>
<path d="M12.0002 24.0004C16.7577 24.0004 20.8685 21.2317 22.8095 17.2178H1.19092C3.13192 21.2317 7.24267 24.0004 12.0002 24.0004Z" fill="#D80027"/>
<path d="M15.1304 14.0868L12 8.34766L8.86951 14.0868H11.2173V15.652H12.7826V14.0868H15.1304Z" fill="#6DA544"/>
</g>
<defs>
<clipPath id="clip0_151_2109">
<rect width="24" height="24" fill="white"/>
</clipPath>
</defs>
</svg>
