<svg width="24" height="24" viewBox="0 0 24 24" fill="none" xmlns="http://www.w3.org/2000/svg">
<g clip-path="url(#clip0_151_1981)">
<path d="M12 24C18.6274 24 24 18.6274 24 12C24 5.37258 18.6274 0 12 0C5.37258 0 0 5.37258 0 12C0 18.6274 5.37258 24 12 24Z" fill="#F0F0F0"/>
<path d="M12.0002 0C7.24267 0 3.13192 2.76867 1.19092 6.78263H22.8094C20.8685 2.76867 16.7577 0 12.0002 0Z" fill="#FF9811"/>
<path d="M12.0002 24.0004C16.7577 24.0004 20.8685 21.2317 22.8095 17.2178H1.19092C3.13192 21.2317 7.24267 24.0004 12.0002 24.0004Z" fill="#6DA544"/>
<path d="M12.0001 16.174C14.3052 16.174 16.174 14.3052 16.174 12.0001C16.174 9.69489 14.3052 7.82617 12.0001 7.82617C9.69489 7.82617 7.82617 9.69489 7.82617 12.0001C7.82617 14.3052 9.69489 16.174 12.0001 16.174Z" fill="#0052B4"/>
<path d="M12.0003 14.609C13.441 14.609 14.609 13.441 14.609 12.0003C14.609 10.5596 13.441 9.3916 12.0003 9.3916C10.5596 9.3916 9.3916 10.5596 9.3916 12.0003C9.3916 13.441 10.5596 14.609 12.0003 14.609Z" fill="#F0F0F0"/>
<path d="M12.0002 8.78125L12.805 10.6065L14.788 10.3908L13.6097 12.0003L14.788 13.6099L12.805 13.3942L12.0002 15.2194L11.1954 13.3942L9.2124 13.6098L10.3907 12.0003L9.2124 10.3908L11.1954 10.6065L12.0002 8.78125Z" fill="#0052B4"/>
</g>
<defs>
<clipPath id="clip0_151_1981">
<rect width="24" height="24" fill="white"/>
</clipPath>
</defs>
</svg>
