<svg width="24" height="24" viewBox="0 0 24 24" fill="none" xmlns="http://www.w3.org/2000/svg">
<g clip-path="url(#clip0_151_1866)">
<path d="M0.000244141 12C0.000244141 5.37262 5.37287 0 12.0002 0C18.6276 0 24.0002 5.37262 24.0002 12C23.4785 12 12.0002 13.5652 12.0002 13.5652L0.000244141 12Z" fill="#F0F0F0"/>
<path d="M24 12C24 18.6274 18.6274 24 12 24C5.37262 24 0 18.6274 0 12" fill="#D80027"/>
<path d="M8.34778 17.739C11.5174 17.739 14.0869 15.1695 14.0869 11.9999C14.0869 8.83024 11.5174 6.26074 8.34778 6.26074C5.17814 6.26074 2.60864 8.83024 2.60864 11.9999C2.60864 15.1695 5.17814 17.739 8.34778 17.739Z" fill="#F0F0F0"/>
<path d="M2.60864 11.9999C2.60864 8.83034 5.17814 6.26074 8.34778 6.26074C11.5175 6.26074 14.0869 8.83029 14.0869 11.9999" fill="#D80027"/>
</g>
<defs>
<clipPath id="clip0_151_1866">
<rect width="24" height="24" fill="white"/>
</clipPath>
</defs>
</svg>
