<svg width="24" height="24" viewBox="0 0 24 24" fill="none" xmlns="http://www.w3.org/2000/svg">
<g clip-path="url(#clip0_151_2468)">
<path d="M23.2534 16.1735C23.7358 14.8735 23.9998 13.4674 23.9998 11.9996C23.9998 10.5318 23.7358 9.1257 23.2534 7.82571L11.9998 6.78223L0.746147 7.82571C0.263803 9.1257 -0.000244141 10.5318 -0.000244141 11.9996C-0.000244141 13.4674 0.263803 14.8735 0.746147 16.1735L11.9998 17.217L23.2534 16.1735Z" fill="#D80027"/>
<path d="M11.9999 23.9999C17.1594 23.9999 21.558 20.7434 23.2534 16.1738H0.746216C2.44178 20.7434 6.84025 23.9999 11.9999 23.9999Z" fill="#FFDA44"/>
<path d="M11.9999 0C6.84025 0 2.44178 3.2565 0.746216 7.82611H23.2535C21.558 3.2565 17.1594 0 11.9999 0Z" fill="#F0F0F0"/>
</g>
<defs>
<clipPath id="clip0_151_2468">
<rect width="24" height="24" fill="white"/>
</clipPath>
</defs>
</svg>
