<svg width="24" height="24" viewBox="0 0 24 24" fill="none" xmlns="http://www.w3.org/2000/svg">
<g clip-path="url(#clip0_151_2472)">
<path d="M11.9999 24C18.6273 24 23.9999 18.6274 23.9999 12C23.9999 5.37258 18.6273 0 11.9999 0C5.37246 0 -0.00012207 5.37258 -0.00012207 12C-0.00012207 18.6274 5.37246 24 11.9999 24Z" fill="#F0F0F0"/>
<path d="M-0.000244141 11.9999C-0.000244141 16.5484 2.53049 20.5056 6.26062 22.5408V1.45898C2.53049 3.49425 -0.000244141 7.45139 -0.000244141 11.9999Z" fill="#F0F0F0"/>
<path d="M11.9999 0C9.92098 0 7.96563 0.528891 6.26074 1.45908V22.5409C7.96563 23.4711 9.92098 24 11.9999 24C18.6273 24 23.9999 18.6274 23.9999 12C23.9999 5.37262 18.6273 0 11.9999 0Z" fill="#496E2D"/>
<path d="M17.1305 13.9845C15.6123 15.0814 13.4923 14.7399 12.3955 13.2219C11.2985 11.7037 11.64 9.58374 13.1581 8.48687C13.6315 8.14487 14.1633 7.9427 14.7044 7.87243C13.6634 7.71676 12.563 7.95132 11.6426 8.61643C9.77412 9.96653 9.35379 12.5756 10.7038 14.4442C12.0539 16.3126 14.663 16.7329 16.5316 15.3827C17.4522 14.7176 18.0203 13.7467 18.1993 12.7094C17.9628 13.2009 17.6038 13.6424 17.1305 13.9845Z" fill="#F0F0F0"/>
<path d="M17.0654 7.82617L17.9206 8.74778L19.0613 8.21941L18.449 9.31741L19.3042 10.2391L18.0706 9.99606L17.4583 11.0942L17.3083 9.84588L16.0747 9.60283L17.2155 9.07445L17.0654 7.82617Z" fill="#F0F0F0"/>
</g>
<defs>
<clipPath id="clip0_151_2472">
<rect width="24" height="24" fill="white"/>
</clipPath>
</defs>
</svg>
