<svg width="24" height="24" viewBox="0 0 24 24" fill="none" xmlns="http://www.w3.org/2000/svg">
<g clip-path="url(#clip0_151_3173)">
<path d="M12 24C18.6274 24 24 18.6274 24 12C24 5.37258 18.6274 0 12 0C5.37258 0 0 5.37258 0 12C0 18.6274 5.37258 24 12 24Z" fill="#496E2D"/>
<path d="M16.6957 12H12V24C13.4027 24 14.7488 23.7585 16 23.3163L16.6957 12Z" fill="#D80027"/>
<path d="M19.9998 20.9434C22.4546 18.7462 23.9999 15.5537 23.9999 12H19.3042L19.9998 20.9434Z" fill="#FF9811"/>
<path d="M15.9998 12V23.3163C17.4902 22.7894 18.8456 21.9766 19.9998 20.9435V12H15.9998Z" fill="black"/>
<path d="M22.1738 7.82571H19.0434C19.0434 7.24943 18.5761 6.78223 17.9999 6.78223C17.4236 6.78223 16.9564 7.24943 16.9564 7.82571H13.8259C13.8259 8.40204 14.3279 8.8692 14.9041 8.8692H14.8694C14.8694 9.44552 15.3365 9.91268 15.9129 9.91268C15.9129 10.489 16.38 10.9562 16.9564 10.9562H19.0434C19.6196 10.9562 20.0868 10.489 20.0868 9.91268C20.6631 9.91268 21.1303 9.44552 21.1303 8.8692H21.0956C21.6719 8.86915 22.1738 8.40199 22.1738 7.82571Z" fill="#FF9811"/>
</g>
<defs>
<clipPath id="clip0_151_3173">
<rect width="24" height="24" fill="white"/>
</clipPath>
</defs>
</svg>
