<svg width="24" height="24" viewBox="0 0 24 24" fill="none" xmlns="http://www.w3.org/2000/svg">
<g clip-path="url(#clip0_151_1804)">
<path d="M11.9998 24C18.6272 24 23.9998 18.6274 23.9998 12C23.9998 5.37258 18.6272 0 11.9998 0C5.37234 0 -0.000244141 5.37258 -0.000244141 12C-0.000244141 18.6274 5.37234 24 11.9998 24Z" fill="#F0F0F0"/>
<path d="M23.8982 10.4347H9.39112H9.39107V0.285156C8.2821 0.531062 7.23074 0.929641 6.26062 1.459V10.4346V10.4347H0.101334C0.0345371 10.9471 -0.000244141 11.4694 -0.000244141 11.9999C-0.000244141 12.5304 0.0345371 13.0528 0.101334 13.5651H6.26057H6.26062V22.5408C7.23074 23.0701 8.2821 23.4688 9.39107 23.7146V13.5653V13.5652H23.8982C23.9649 13.0528 23.9998 12.5304 23.9998 11.9999C23.9998 11.4694 23.9649 10.9471 23.8982 10.4347Z" fill="#0052B4"/>
</g>
<defs>
<clipPath id="clip0_151_1804">
<rect width="24" height="24" fill="white"/>
</clipPath>
</defs>
</svg>
