<svg width="24" height="24" viewBox="0 0 24 24" fill="none" xmlns="http://www.w3.org/2000/svg">
<g clip-path="url(#clip0_151_1311)">
<path d="M12.0002 24C18.6277 24 24.0002 18.6274 24.0002 12C24.0002 5.37258 18.6277 0 12.0002 0C5.37283 0 0.000244141 5.37258 0.000244141 12C0.000244141 18.6274 5.37283 24 12.0002 24Z" fill="#6DA544"/>
<path d="M11.9999 4.69531L21.913 11.9997L11.9999 19.304L2.08691 11.9997L11.9999 4.69531Z" fill="#FFDA44"/>
<path d="M12.0001 16.174C14.3052 16.174 16.174 14.3052 16.174 12.0001C16.174 9.69489 14.3052 7.82617 12.0001 7.82617C9.69489 7.82617 7.82617 9.69489 7.82617 12.0001C7.82617 14.3052 9.69489 16.174 12.0001 16.174Z" fill="#F0F0F0"/>
<path d="M9.91325 11.7393C9.18743 11.7393 8.48698 11.8496 7.82764 12.0545C7.85684 14.3345 9.71328 16.1741 12.0002 16.1741C13.4143 16.1741 14.6633 15.4701 15.4183 14.3943C14.1266 12.7773 12.139 11.7393 9.91325 11.7393Z" fill="#0052B4"/>
<path d="M16.0969 12.7997C16.1471 12.5408 16.1743 12.2737 16.1743 12.0001C16.1743 9.69484 14.3056 7.82617 12.0004 7.82617C10.2804 7.82617 8.80379 8.86684 8.16479 10.3527C8.72964 10.2356 9.31445 10.174 9.91347 10.174C12.3377 10.174 14.5308 11.1817 16.0969 12.7997Z" fill="#0052B4"/>
</g>
<defs>
<clipPath id="clip0_151_1311">
<rect width="24" height="24" fill="white"/>
</clipPath>
</defs>
</svg>
