<svg width="24" height="24" viewBox="0 0 24 24" fill="none" xmlns="http://www.w3.org/2000/svg">
<g clip-path="url(#clip0_151_1398)">
<path d="M12.0002 23.9984C18.6266 23.9984 23.9984 18.6266 23.9984 12.0002C23.9984 5.37375 18.6266 0.00195312 12.0002 0.00195312C5.37375 0.00195312 0.00195312 5.37375 0.00195312 12.0002C0.00195312 18.6266 5.37375 23.9984 12.0002 23.9984Z" fill="#F0F0F0"/>
<path d="M1.6094 6.00098C1.06784 6.93887 0.668365 7.91942 0.402344 8.91821L20.468 20.5032C21.2 19.7734 21.8495 18.9371 22.3909 17.9992L1.6094 6.00098Z" fill="black"/>
<path d="M17.9992 1.6092C13.1984 -1.16253 7.27889 -0.238742 3.53223 3.4969L23.5979 15.0818C24.9598 9.9694 22.8 4.38098 17.9992 1.6092Z" fill="#FFDA44"/>
<path d="M6.00104 22.3906C10.8018 25.1624 16.7214 24.2386 20.468 20.503L0.402306 8.91797C-0.959489 14.0305 1.20018 19.6189 6.00104 22.3906Z" fill="#FFDA44"/>
<path d="M15.3908 10.696C15.3908 12.5687 13.8727 14.0868 12 14.0868C10.1273 14.0868 8.60916 12.5687 8.60916 10.696C8.60916 10.1121 8.75677 9.56269 9.01675 9.08301C8.28094 9.83551 7.82666 10.8645 7.82666 12.0001C7.82666 14.305 9.69509 16.1735 12 16.1735C14.3049 16.1735 16.1733 14.305 16.1733 12.0001C16.1733 10.8645 15.7191 9.83551 14.9832 9.08301C15.2432 9.56278 15.3908 10.1121 15.3908 10.696Z" fill="#D80027"/>
<path d="M11.2175 6.7832H12.7825V14.6082H11.2175V6.7832Z" fill="#D80027"/>
<path d="M14.6084 8.34863H9.39185C9.39185 8.70878 9.70559 9.00072 10.0657 9.00072H10.0439C10.0439 9.36087 10.3359 9.65282 10.696 9.65282C10.696 10.013 10.988 10.3049 11.3481 10.3049H12.6523C13.0124 10.3049 13.3044 10.013 13.3044 9.65282C13.6645 9.65282 13.9564 9.36087 13.9564 9.00072H13.9347C14.2947 9.00068 14.6084 8.70883 14.6084 8.34863Z" fill="#D80027"/>
<path d="M8.34863 15.1299H15.6519V16.6949H8.34863V15.1299Z" fill="#D80027"/>
<path d="M13.5652 15.6514H16.6951V17.2164H13.5652V15.6514Z" fill="#D80027"/>
<path d="M7.30518 15.6514H10.4351V17.2164H7.30518V15.6514Z" fill="#D80027"/>
</g>
<defs>
<clipPath id="clip0_151_1398">
<rect width="24" height="24" fill="white"/>
</clipPath>
</defs>
</svg>
