<svg width="24" height="24" viewBox="0 0 24 24" fill="none" xmlns="http://www.w3.org/2000/svg">
<g clip-path="url(#clip0_151_1642)">
<path d="M11.9998 24C18.6272 24 23.9998 18.6274 23.9998 12C23.9998 5.37258 18.6272 0 11.9998 0C5.37234 0 -0.000244141 5.37258 -0.000244141 12C-0.000244141 18.6274 5.37234 24 11.9998 24Z" fill="#FCFCFC"/>
<path d="M18.7824 10.4346C18.4172 10.4346 17.965 10.4346 17.2172 10.4346C17.2172 13.3161 14.8813 15.6519 11.9999 15.6519C9.11832 15.6519 6.78249 13.3161 6.78249 10.4346C6.27811 10.4346 5.72157 10.4346 5.21729 10.4346C5.21729 13.5384 7.3021 16.1553 10.1479 16.9612C9.83588 17.5539 9.88341 18.3001 10.3291 18.8563C10.9145 18.3871 11.5205 17.9014 12.0346 17.4895C12.5488 17.9015 13.1549 18.3871 13.7402 18.8563C14.1903 18.2946 14.2346 17.5389 13.9122 16.9434C16.7268 16.1176 18.7824 13.5163 18.7824 10.4346Z" fill="#6DA544"/>
<path d="M7.82593 9.91291C7.82593 9.91291 7.82593 12.5216 10.4346 12.5216L10.9563 13.0433H11.9998C11.9998 13.0433 12.5215 11.4781 13.565 11.4781C13.565 11.4781 13.565 10.4346 14.6085 10.4346C15.652 10.4346 16.1737 10.4346 16.1737 10.4346C16.1737 10.4346 15.652 8.34766 18.2607 6.78246L17.2172 6.26074C17.2172 6.26074 13.565 8.86943 10.9563 8.34771V9.3912H9.91285L9.39113 8.86948L7.82593 9.91291Z" fill="#FFDA44"/>
</g>
<defs>
<clipPath id="clip0_151_1642">
<rect width="24" height="24" fill="white"/>
</clipPath>
</defs>
</svg>
