<svg width="24" height="24" viewBox="0 0 24 24" fill="none" xmlns="http://www.w3.org/2000/svg">
<g clip-path="url(#clip0_151_2868)">
<path d="M12.0001 24C18.6275 24 24.0001 18.6274 24.0001 12C24.0001 5.37258 18.6275 0 12.0001 0C5.3727 0 0.00012207 5.37258 0.00012207 12C0.00012207 18.6274 5.3727 24 12.0001 24Z" fill="#F0F0F0"/>
<path d="M12.0002 0C6.84061 0 2.4421 3.2565 0.746582 7.82611H23.2538C21.5583 3.2565 17.1598 0 12.0002 0Z" fill="#D80027"/>
<path d="M12.0002 23.9999C17.1598 23.9999 21.5583 20.7434 23.2538 16.1738H0.746582C2.4421 20.7434 6.84061 23.9999 12.0002 23.9999Z" fill="black"/>
<path d="M7.17018 9.13086L7.81767 11.1236H9.91312L8.21789 12.3554L8.86542 14.3482L7.17018 13.1166L5.47495 14.3482L6.12248 12.3554L4.42725 11.1236H6.5227L7.17018 9.13086Z" fill="#6DA544"/>
<path d="M16.83 9.13086L17.4775 11.1236H19.573L17.8777 12.3554L18.5252 14.3482L16.83 13.1166L15.1347 14.3482L15.7823 12.3554L14.087 11.1236H16.1825L16.83 9.13086Z" fill="#6DA544"/>
</g>
<defs>
<clipPath id="clip0_151_2868">
<rect width="24" height="24" fill="white"/>
</clipPath>
</defs>
</svg>
