<svg width="24" height="24" viewBox="0 0 24 24" fill="none" xmlns="http://www.w3.org/2000/svg">
<g clip-path="url(#clip0_151_2732)">
<path d="M11.9998 24C18.6272 24 23.9998 18.6274 23.9998 12C23.9998 5.37258 18.6272 0 11.9998 0C5.37234 0 -0.000244141 5.37258 -0.000244141 12C-0.000244141 18.6274 5.37234 24 11.9998 24Z" fill="#F0F0F0"/>
<path d="M23.2534 7.82577H10.4346V4.69531H4.17365V7.82577H0.746147C0.263803 9.1257 -0.000244141 10.5318 -0.000244141 11.9997C-0.000244141 13.4675 0.263803 14.8736 0.746147 16.1735L11.9998 17.217L23.2534 16.1735C23.7357 14.8736 23.9998 13.4675 23.9998 11.9997C23.9998 10.5318 23.7357 9.1257 23.2534 7.82577Z" fill="#0052B4"/>
<path d="M11.9999 23.9999C17.1595 23.9999 21.558 20.7434 23.2536 16.1738H0.746338C2.44185 20.7434 6.84037 23.9999 11.9999 23.9999Z" fill="#D80027"/>
<path d="M4.17383 7.82641V8.86984C4.17383 11.2661 7.30428 12.0003 7.30428 12.0003C7.30428 12.0003 10.4347 11.2661 10.4347 8.86984V7.82641L9.39125 8.86989L7.30428 7.30469L5.21731 8.86989L4.17383 7.82641Z" fill="#F0F0F0"/>
</g>
<defs>
<clipPath id="clip0_151_2732">
<rect width="24" height="24" fill="white"/>
</clipPath>
</defs>
</svg>
