<svg width="24" height="24" viewBox="0 0 24 24" fill="none" xmlns="http://www.w3.org/2000/svg">
<g clip-path="url(#clip0_151_2590)">
<path d="M12 24C18.6274 24 24 18.6274 24 12C24 5.37258 18.6274 0 12 0C5.37258 0 0 5.37258 0 12C0 18.6274 5.37258 24 12 24Z" fill="#F0F0F0"/>
<path d="M11.9998 4.44542e-06C11.9886 -0.00843306 -0.00343101 11.9969 -0.000243505 12C-0.000243505 5.37263 5.37238 4.44542e-06 11.9998 4.44542e-06Z" fill="#D80027"/>
<path d="M11.9998 4.44543e-06C12.011 -0.00843306 24.0029 11.9968 23.9998 12C23.9998 5.37263 18.6271 4.44543e-06 11.9998 4.44543e-06Z" fill="#D80027"/>
<path d="M11.9998 24C11.9886 24.0084 -0.00343101 12.0032 -0.000243505 12C-0.000243505 18.6274 5.37238 24 11.9998 24Z" fill="#0052B4"/>
<path d="M11.9998 24C12.011 24.0084 24.0029 12.0032 23.9998 12C23.9998 18.6274 18.6271 24 11.9998 24Z" fill="#0052B4"/>
<path d="M12 6.26074L13.2951 10.2465H17.486L14.0954 12.7098L15.3905 16.6955L12 14.2322L8.60957 16.6955L9.90463 12.7098L6.51416 10.2465H10.705L12 6.26074Z" fill="#FFDA44"/>
</g>
<defs>
<clipPath id="clip0_151_2590">
<rect width="24" height="24" fill="white"/>
</clipPath>
</defs>
</svg>
