<svg width="24" height="24" viewBox="0 0 24 24" fill="none" xmlns="http://www.w3.org/2000/svg">
<g clip-path="url(#clip0_151_2380)">
<path d="M12 24C18.6274 24 24 18.6274 24 12C24 5.37258 18.6274 0 12 0C5.37258 0 0 5.37258 0 12C0 18.6274 5.37258 24 12 24Z" fill="#F0F0F0"/>
<path d="M12 0C7.24242 0 3.13167 2.76867 1.19067 6.78263H22.8092C20.8682 2.76867 16.7574 0 12 0Z" fill="#338AF3"/>
<path d="M12 24.0004C16.7574 24.0004 20.8682 21.2317 22.8092 17.2178H1.19067C3.13167 21.2317 7.24242 24.0004 12 24.0004Z" fill="#338AF3"/>
<path d="M12.0001 8.34766C9.98304 8.34766 8.3479 9.9828 8.3479 11.9998C8.3479 14.0169 9.98304 15.652 12.0001 15.652C14.0171 15.652 15.6522 14.0169 15.6522 11.9998C15.6522 9.9828 14.0171 8.34766 12.0001 8.34766ZM12.0001 14.0868C10.8475 14.0868 9.9131 13.1525 9.9131 11.9998C9.9131 10.8472 10.8475 9.91286 12.0001 9.91286C13.1527 9.91286 14.087 10.8472 14.087 11.9998C14.087 13.1525 13.1526 14.0868 12.0001 14.0868Z" fill="#FFDA44"/>
<path d="M13.8073 12.5217L11.9999 12L10.1925 12.5217L9.59009 13.5652H14.4097L13.8073 12.5217Z" fill="#0052B4"/>
<path d="M12.0001 9.3916L10.7952 11.4786L12.0001 12.0003L13.205 11.4786L12.0001 9.3916Z" fill="#338AF3"/>
<path d="M10.1926 12.522H13.8074L13.205 11.4785H10.7951L10.1926 12.522Z" fill="#6DA544"/>
</g>
<defs>
<clipPath id="clip0_151_2380">
<rect width="24" height="24" fill="white"/>
</clipPath>
</defs>
</svg>
