<svg width="24" height="24" viewBox="0 0 24 24" fill="none" xmlns="http://www.w3.org/2000/svg">
<g clip-path="url(#clip0_151_1749)">
<path d="M-0.00012207 12.0003C-0.00012207 13.4682 0.263925 14.8742 0.746269 16.1742L11.9999 16.696L23.2535 16.1743C23.7359 14.8742 23.9999 13.4682 23.9999 12.0003C23.9999 10.5325 23.7359 9.12644 23.2535 7.82645L11.9999 7.30469L0.746269 7.82641C0.263925 9.12644 -0.00012207 10.5325 -0.00012207 12.0003H-0.00012207Z" fill="black"/>
<path d="M11.9999 0C6.84037 0 2.44185 3.2565 0.746338 7.82611H23.2536C21.558 3.2565 17.1595 0 11.9999 0Z" fill="#0052B4"/>
<path d="M23.2536 16.1738H0.746338C2.44185 20.7434 6.84037 23.9999 11.9999 23.9999C17.1595 23.9999 21.558 20.7434 23.2536 16.1738Z" fill="#F0F0F0"/>
</g>
<defs>
<clipPath id="clip0_151_1749">
<rect width="24" height="24" fill="white"/>
</clipPath>
</defs>
</svg>
