<svg width="24" height="24" viewBox="0 0 24 24" fill="none" xmlns="http://www.w3.org/2000/svg">
<g clip-path="url(#clip0_151_2234)">
<path d="M12 24C18.6274 24 24 18.6274 24 12C24 5.37258 18.6274 0 12 0C5.37258 0 0 5.37258 0 12C0 18.6274 5.37258 24 12 24Z" fill="#338AF3"/>
<path d="M5.73926 13.043H18.261V14.6082H5.73926V13.043Z" fill="#818085"/>
<path d="M7.82617 8.34777L12.0001 8.86958L16.174 8.34777V5.84342L14.5044 6.67822L12.0001 4.17383L9.49572 6.67822L7.82617 5.84342V8.34777Z" fill="#FFDA44"/>
<path d="M6.78278 16.174H5.21753V13.3044L5.73929 12.5217L5.21753 11.7391V9.91309H6.78278V16.174Z" fill="#F0F0F0"/>
<path d="M18.7828 16.174H17.2175V9.91309H18.7828V11.7391L18.261 12.5349L18.7828 13.3045V16.174Z" fill="#F0F0F0"/>
<path d="M5.21753 11.7393H18.7827V13.3045H5.21753V11.7393Z" fill="#ACABB1"/>
<path d="M12.0001 18.2606C9.69855 18.2606 7.82617 16.3882 7.82617 14.0868V8.34766H16.174V14.0868C16.174 16.3882 14.3016 18.2606 12.0001 18.2606Z" fill="#F0F0F0"/>
<path d="M12 16.6956C10.5616 16.6956 9.39136 15.5253 9.39136 14.0869V9.91309H14.6087V14.0869C14.6087 15.5253 13.4385 16.6956 12 16.6956Z" fill="#0052B4"/>
<path d="M7.82617 8.34766H9.39138V9.91286H7.82617V8.34766Z" fill="#D80027"/>
<path d="M14.6089 8.34766H16.1741V9.91286H14.6089V8.34766Z" fill="#D80027"/>
<path d="M14.6089 11.7393H16.1741V13.3045H14.6089V11.7393Z" fill="#D80027"/>
<path d="M7.82617 11.7393H9.39138V13.3045H7.82617V11.7393Z" fill="#D80027"/>
<path d="M11.2175 8.34766H12.7827V9.91286H11.2175V8.34766Z" fill="#D80027"/>
<path d="M12.0002 16.6953C11.7275 16.6953 11.4647 16.6531 11.2175 16.5752V18.1859C11.4712 18.2342 11.7326 18.2605 12.0002 18.2605C12.2677 18.2605 12.5291 18.2342 12.7828 18.1859V16.5752C12.5356 16.6531 12.2728 16.6953 12.0002 16.6953Z" fill="#D80027"/>
<path d="M9.42613 14.5107L8.177 15.7599C8.39356 16.2529 8.70256 16.6963 9.08235 17.0681L10.1886 15.9618C9.79381 15.5804 9.5188 15.076 9.42613 14.5107Z" fill="#D80027"/>
<path d="M15.8231 15.7599L14.5739 14.5107C14.4812 15.076 14.2063 15.5803 13.8115 15.9619L14.9178 17.0681C15.2975 16.6963 15.6065 16.2529 15.8231 15.7599Z" fill="#D80027"/>
</g>
<defs>
<clipPath id="clip0_151_2234">
<rect width="24" height="24" fill="white"/>
</clipPath>
</defs>
</svg>
