<svg width="24" height="24" viewBox="0 0 24 24" fill="none" xmlns="http://www.w3.org/2000/svg">
<g clip-path="url(#clip0_151_2423)">
<path d="M12 24C18.6274 24 24 18.6274 24 12C24 5.37258 18.6274 0 12 0C5.37258 0 0 5.37258 0 12C0 18.6274 5.37258 24 12 24Z" fill="#F0F0F0"/>
<path d="M12.0002 0C8.3631 0 5.10421 1.61831 2.90356 4.17389H21.0967C18.8961 1.61831 15.6373 0 12.0002 0Z" fill="#0052B4"/>
<path d="M21.0968 19.8262H2.90356C5.10421 22.3818 8.3631 24.0001 12.0002 24.0001C15.6373 24.0001 18.8961 22.3818 21.0968 19.8262Z" fill="#0052B4"/>
<path d="M22.2387 5.73926H1.76128C0.644297 7.56199 0 9.70573 0 12.0001C0 14.2945 0.644297 16.4383 1.76128 18.261H22.2387C23.3557 16.4383 24 14.2945 24 12.0001C24 9.70573 23.3557 7.56199 22.2387 5.73926Z" fill="#D80027"/>
<path d="M7.38251 16.6176C9.93262 16.6176 11.9999 14.5503 11.9999 12.0002C11.9999 9.45008 9.93262 7.38281 7.38251 7.38281C4.83241 7.38281 2.76514 9.45008 2.76514 12.0002C2.76514 14.5503 4.83241 16.6176 7.38251 16.6176Z" fill="#F0F0F0"/>
<path d="M7.38255 7.38281L8.41853 10.5713H11.7766L9.05889 12.542L10.103 15.74L7.38255 13.7599L4.66623 15.7363L5.7062 12.542L2.99097 10.5713H6.34651L7.38255 7.38281Z" fill="#D80027"/>
</g>
<defs>
<clipPath id="clip0_151_2423">
<rect width="24" height="24" fill="white"/>
</clipPath>
</defs>
</svg>
