<svg width="24" height="24" viewBox="0 0 24 24" fill="none" xmlns="http://www.w3.org/2000/svg">
<g clip-path="url(#clip0_151_2937)">
<path d="M12 24C18.6274 24 24 18.6274 24 12C24 5.37258 18.6274 0 12 0C5.37258 0 0 5.37258 0 12C0 18.6274 5.37258 24 12 24Z" fill="#F0F0F0"/>
<path d="M7.82625 6.26052V4.69531H6.261V6.26052H4.6958V7.82577H6.261V9.39097H7.82625V7.82577H9.39146V6.26052H7.82625Z" fill="#D80027"/>
<path d="M12.0002 0V12C5.37287 12 2.73892 12 0.000244141 12C0.000244141 18.6274 5.37287 24 12.0002 24C18.6276 24 24.0002 18.6274 24.0002 12C24.0002 5.37262 18.6276 0 12.0002 0Z" fill="#D80027"/>
</g>
<defs>
<clipPath id="clip0_151_2937">
<rect width="24" height="24" fill="white"/>
</clipPath>
</defs>
</svg>
