<svg width="24" height="24" viewBox="0 0 24 24" fill="none" xmlns="http://www.w3.org/2000/svg">
<g clip-path="url(#clip0_151_2229)">
<path d="M1.45898 6.26086L11.9999 7.30434L22.5408 6.26086C20.5056 2.53073 16.5484 0 11.9999 0C7.45139 0 3.49425 2.53073 1.45898 6.26086Z" fill="#D80027"/>
<path d="M1.45883 17.7387L11.9998 18.7822L22.5407 17.7387C23.4709 16.0338 23.9998 14.0784 23.9998 11.9995L11.9998 10.9561L-0.000244141 11.9995C-0.000244141 14.0784 0.528647 16.0338 1.45883 17.7387Z" fill="#FFDA44"/>
<path d="M1.45883 6.26074C0.528647 7.96563 -0.000244141 9.92098 -0.000244141 11.9999H23.9998C23.9998 9.92098 23.4709 7.96563 22.5407 6.26074H11.9998H1.45883Z" fill="#0052B4"/>
<path d="M11.9999 24.0001C16.5484 24.0001 20.5056 21.4694 22.5408 17.7393H1.45898C3.49425 21.4694 7.45139 24.0001 11.9999 24.0001Z" fill="#6DA544"/>
</g>
<defs>
<clipPath id="clip0_151_2229">
<rect width="24" height="24" fill="white"/>
</clipPath>
</defs>
</svg>
