<svg width="24" height="24" viewBox="0 0 24 24" fill="none" xmlns="http://www.w3.org/2000/svg">
<g clip-path="url(#clip0_151_2034)">
<path d="M12.0002 24C18.6277 24 24.0002 18.6274 24.0002 12C24.0002 5.37258 18.6277 0 12.0002 0C5.37283 0 0.000244141 5.37258 0.000244141 12C0.000244141 18.6274 5.37283 24 12.0002 24Z" fill="#F0F0F0"/>
<path d="M21.5202 19.3064L14.2135 11.9998H14.2135L21.5202 4.69302C21.205 4.28352 20.8603 3.88954 20.4853 3.5144C20.1101 3.1393 19.7162 2.79454 19.3066 2.47949L12 9.78613L12 9.78618L4.69331 2.47949C4.28386 2.79459 3.88983 3.13926 3.51469 3.5144C3.13955 3.88954 2.79483 4.28352 2.47978 4.69302L9.78642 11.9996L9.78647 11.9997L2.47974 19.3064C2.79488 19.7159 3.1396 20.1099 3.51464 20.485C3.88978 20.8601 4.28372 21.2049 4.69327 21.5199L12 14.2133L12 14.2132L19.3066 21.5199C19.7161 21.2048 20.1101 20.8601 20.4853 20.485C20.8604 20.1098 21.2051 19.7159 21.5202 19.3064Z" fill="#D80027"/>
<path d="M9.91309 3.65263L12.0001 4.17435L14.087 3.65263V1.87874L13.2522 2.29612L12.0001 1.04395L10.7479 2.29612L9.91309 1.87874V3.65263Z" fill="#FFDA44"/>
<path d="M9.91309 3.65234V4.95678C9.91309 6.55428 12.0001 7.04375 12.0001 7.04375C12.0001 7.04375 14.087 6.55423 14.087 4.95678V3.65234H9.91309Z" fill="#D80027"/>
</g>
<defs>
<clipPath id="clip0_151_2034">
<rect width="24" height="24" fill="white"/>
</clipPath>
</defs>
</svg>
