<svg width="24" height="24" viewBox="0 0 24 24" fill="none" xmlns="http://www.w3.org/2000/svg">
<g clip-path="url(#clip0_151_1536)">
<path d="M11.9998 24C18.6272 24 23.9998 18.6274 23.9998 12C23.9998 5.37258 18.6272 0 11.9998 0C5.37234 0 -0.000244141 5.37258 -0.000244141 12C-0.000244141 18.6274 5.37234 24 11.9998 24Z" fill="#D80027"/>
<path d="M6.56707 7.30273L7.603 10.4902H10.9546L8.24519 12.4637L9.28113 15.6512L6.56707 13.6824L3.853 15.6512L4.89363 12.4637L2.17957 10.4902H5.53113L6.56707 7.30273Z" fill="#FFDA44"/>
<path d="M14.2265 18.5857L13.4343 17.6107L12.2624 18.0654L12.9421 17.0107L12.1499 16.0311L13.364 16.3545L14.0483 15.2998L14.114 16.5561L15.3327 16.8795L14.1562 17.3295L14.2265 18.5857Z" fill="#FFDA44"/>
<path d="M15.8015 15.7264L16.1765 14.5264L15.1499 13.7998L16.4062 13.7811L16.7765 12.5811L17.1843 13.7717L18.4405 13.7576L17.4327 14.5076L17.8358 15.6982L16.8093 14.9717L15.8015 15.7264Z" fill="#FFDA44"/>
<path d="M17.9249 8.80723L17.3717 9.93691L18.2717 10.8135L17.0295 10.6354L16.4764 11.7604L16.2608 10.5229L15.0139 10.3447L16.1295 9.75879L15.9139 8.5166L16.8139 9.39316L17.9249 8.80723Z" fill="#FFDA44"/>
<path d="M14.2592 5.38574L14.1654 6.63731L15.3326 7.11074L14.1092 7.41074L14.0201 8.66699L13.3592 7.59824L12.1357 7.89824L12.9467 6.9373L12.2811 5.87324L13.4482 6.34668L14.2592 5.38574Z" fill="#FFDA44"/>
</g>
<defs>
<clipPath id="clip0_151_1536">
<rect width="24" height="24" fill="white"/>
</clipPath>
</defs>
</svg>
