<svg width="24" height="24" viewBox="0 0 24 24" fill="none" xmlns="http://www.w3.org/2000/svg">
<g clip-path="url(#clip0_151_3066)">
<path d="M11.9998 24C18.6272 24 23.9998 18.6274 23.9998 12C23.9998 5.37258 18.6272 0 11.9998 0C5.37234 0 -0.000244141 5.37258 -0.000244141 12C-0.000244141 18.6274 5.37234 24 11.9998 24Z" fill="#F0F0F0"/>
<path d="M11.4781 11.9996H23.9999C23.9999 10.9165 23.8555 9.86725 23.5865 8.86914H11.4781V11.9996Z" fill="#D80027"/>
<path d="M11.4783 5.73885H22.2387C21.5041 4.54016 20.5649 3.48065 19.4698 2.6084H11.4783V5.73885Z" fill="#D80027"/>
<path d="M12 23.9993C14.8241 23.9993 17.4199 23.0232 19.4698 21.3906H4.53015C6.57999 23.0232 9.17579 23.9993 12 23.9993Z" fill="#D80027"/>
<path d="M1.76122 18.2603H22.2387C22.8284 17.298 23.2857 16.2462 23.5865 15.1299H0.41333C0.714127 16.2462 1.17149 17.298 1.76122 18.2603Z" fill="#D80027"/>
<path d="M5.55838 1.87397H6.65193L5.63474 2.61295L6.02329 3.80869L5.00615 3.0697L3.98901 3.80869L4.32463 2.7757C3.42904 3.52172 2.64407 4.39575 1.99719 5.36963H2.34758L1.7001 5.84002C1.59922 6.0083 1.50247 6.17925 1.40976 6.35273L1.71894 7.30434L1.1421 6.88523C0.998709 7.18903 0.867553 7.49967 0.749662 7.81678L1.0903 8.86528H2.34758L1.3304 9.60427L1.71894 10.8L0.701803 10.061L0.0925215 10.5037C0.0315371 10.9939 -0.000244141 11.4932 -0.000244141 12H11.9998C11.9998 5.37262 11.9998 4.59131 11.9998 0C9.62919 0 7.41937 0.687656 5.55838 1.87397ZM6.02329 10.8L5.00615 10.061L3.98901 10.8L4.37755 9.60427L3.36037 8.86528H4.61765L5.00615 7.66955L5.39465 8.86528H6.65193L5.63474 9.60427L6.02329 10.8ZM5.63474 6.10861L6.02329 7.30434L5.00615 6.56536L3.98901 7.30434L4.37755 6.10861L3.36037 5.36963H4.61765L5.00615 4.17389L5.39465 5.36963H6.65193L5.63474 6.10861ZM10.3276 10.8L9.31049 10.061L8.29335 10.8L8.6819 9.60427L7.66471 8.86528H8.92199L9.31049 7.66955L9.69899 8.86528H10.9563L9.93908 9.60427L10.3276 10.8ZM9.93908 6.10861L10.3276 7.30434L9.31049 6.56536L8.29335 7.30434L8.6819 6.10861L7.66471 5.36963H8.92199L9.31049 4.17389L9.69899 5.36963H10.9563L9.93908 6.10861ZM9.93908 2.61295L10.3276 3.80869L9.31049 3.0697L8.29335 3.80869L8.6819 2.61295L7.66471 1.87397H8.92199L9.31049 0.678234L9.69899 1.87397H10.9563L9.93908 2.61295Z" fill="#0052B4"/>
</g>
<defs>
<clipPath id="clip0_151_3066">
<rect width="24" height="24" fill="white"/>
</clipPath>
</defs>
</svg>
