<svg width="24" height="24" viewBox="0 0 24 24" fill="none" xmlns="http://www.w3.org/2000/svg">
<g clip-path="url(#clip0_151_2267)">
<path d="M17.2172 1.19072C15.6396 0.427875 13.8697 0 11.9999 0C10.13 0 8.36012 0.427875 6.7825 1.19072L5.73901 12L6.7825 22.8093C8.36012 23.5721 10.13 24 11.9999 24C13.8697 24 15.6396 23.5721 17.2172 22.8093L18.2607 12L17.2172 1.19072Z" fill="#FFDA44"/>
<path d="M6.78238 1.19141C2.76847 3.13236 -0.000244141 7.24278 -0.000244141 12.0003C-0.000244141 16.7577 2.76847 20.8682 6.78238 22.8091V1.19141Z" fill="#0052B4"/>
<path d="M17.2174 1.19141V22.8091C21.2313 20.8682 24 16.7577 24 12.0003C24 7.24278 21.2313 3.13236 17.2174 1.19141Z" fill="#D80027"/>
<path d="M16.174 9.44106H13.3044C13.3044 8.72069 12.7204 8.13672 12.0001 8.13672C11.2797 8.13672 10.6957 8.72069 10.6957 9.44106H7.82617C7.82617 10.1503 8.44403 10.7253 9.1532 10.7253H9.11045C9.11045 11.4346 9.68542 12.0096 10.3947 12.0096C10.3947 12.6376 10.8458 13.1594 11.4415 13.2709L10.4294 15.5557C10.9143 15.7528 11.4443 15.8624 12.0001 15.8624C12.5558 15.8624 13.0858 15.7528 13.5707 15.5557L12.5587 13.2709C13.1544 13.1594 13.6054 12.6376 13.6054 12.0096C14.3147 12.0096 14.8897 11.4346 14.8897 10.7253H14.8469C15.5561 10.7253 16.174 10.1503 16.174 9.44106Z" fill="#FF9811"/>
<path d="M12 11.2178L10.3043 12.0004V13.5656L12 14.6091L13.6956 13.5656V12.0004L12 11.2178Z" fill="#0052B4"/>
<path d="M10.3043 10.4346H13.6956V11.9998H10.3043V10.4346Z" fill="#D80027"/>
</g>
<defs>
<clipPath id="clip0_151_2267">
<rect width="24" height="24" fill="white"/>
</clipPath>
</defs>
</svg>
