<svg width="24" height="24" viewBox="0 0 24 24" fill="none" xmlns="http://www.w3.org/2000/svg">
<g clip-path="url(#clip0_151_1438)">
<path d="M17.2172 1.19072C15.6396 0.427875 13.8697 0 11.9999 0C10.13 0 8.36012 0.427875 6.7825 1.19072L5.73901 12L6.7825 22.8093C8.36012 23.5721 10.13 24 11.9999 24C13.8697 24 15.6396 23.5721 17.2172 22.8093L18.2607 12L17.2172 1.19072Z" fill="#D80027"/>
<path d="M11.9997 7.82617L13.0356 11.0146H16.3885L13.6761 12.9854L14.7121 16.174L11.9997 14.2033L9.28729 16.174L10.3235 12.9854L7.61108 11.0146H10.9637L11.9997 7.82617Z" fill="#FFDA44"/>
<path d="M6.78238 1.19141C2.76847 3.13231 -0.000244141 7.24273 -0.000244141 12.0003C-0.000244141 16.7578 2.76847 20.8682 6.78238 22.8091V1.19141Z" fill="#496E2D"/>
<path d="M17.2173 1.19141V22.8091C21.2312 20.8682 23.9999 16.7577 23.9999 12.0003C23.9999 7.24278 21.2312 3.13231 17.2173 1.19141Z" fill="#FFDA44"/>
</g>
<defs>
<clipPath id="clip0_151_1438">
<rect width="24" height="24" fill="white"/>
</clipPath>
</defs>
</svg>
