<svg width="24" height="24" viewBox="0 0 24 24" fill="none" xmlns="http://www.w3.org/2000/svg">
<g clip-path="url(#clip0_151_2224)">
<path d="M12 24C18.6274 24 24 18.6274 24 12C24 5.37258 18.6274 0 12 0C5.37258 0 0 5.37258 0 12C0 18.6274 5.37258 24 12 24Z" fill="#496E2D"/>
<path d="M11.9998 13.8635C10.0017 13.8635 8.33251 12.4593 7.92296 10.584C7.86005 10.8723 7.82593 11.1712 7.82593 11.4785C7.82593 13.7837 9.6946 15.6523 11.9998 15.6523C14.305 15.6523 16.1737 13.7837 16.1737 11.4785C16.1737 11.1712 16.1396 10.8723 16.0767 10.584C15.6671 12.4593 13.9979 13.8635 11.9998 13.8635Z" fill="#FFDA44"/>
<path d="M11.9997 8.34766L12.3882 9.54339H13.6456L12.6284 10.2824L13.0169 11.4781L11.9997 10.7391L10.9826 11.4781L11.3711 10.2824L10.354 9.54339H11.6112L11.9997 8.34766Z" fill="#FFDA44"/>
</g>
<defs>
<clipPath id="clip0_151_2224">
<rect width="24" height="24" fill="white"/>
</clipPath>
</defs>
</svg>
