<svg width="24" height="24" viewBox="0 0 24 24" fill="none" xmlns="http://www.w3.org/2000/svg">
<g clip-path="url(#clip0_151_1790)">
<path d="M23.9998 12C23.9998 18.6274 18.6271 24 11.9998 24C5.37238 24 -0.000244141 18.6274 -0.000244141 12C-0.000244141 12.0029 11.9998 0.0013125 11.9998 0C18.6271 0 23.9998 5.37262 23.9998 12Z" fill="#338AF3"/>
<path d="M12.0001 5.73926V9.78659L7.82617 5.73926H12.0001Z" fill="#0052B4"/>
<path d="M6.26098 12.0003H9.78654L6.26098 7.30469L5.73926 10.9569L6.26098 12.0003Z" fill="#0052B4"/>
<path d="M11.9675 11.9999H11.9996C11.9996 11.9891 11.9996 11.9786 11.9996 11.9678C11.989 11.9785 11.9783 11.9892 11.9675 11.9999Z" fill="#F0F0F0"/>
<path d="M11.9998 6.26086C11.9998 4.14937 11.9998 2.76586 11.9998 0H11.9977C5.37126 0.001125 -0.000244141 5.37323 -0.000244141 12H6.26062V8.47448L9.78618 12H11.9677C11.9784 11.9893 11.9891 11.9786 11.9999 11.9679C11.9999 11.1594 11.9999 10.4381 11.9999 9.78647L8.47419 6.26086H11.9998Z" fill="#F0F0F0"/>
<path d="M6.071 1.56543C4.19417 2.63413 2.63389 4.19441 1.56519 6.07124V12.0002H4.69564V4.69598V4.69588H12C12 3.70855 12 2.76796 12 1.56543H6.071Z" fill="#D80027"/>
<path d="M11.9998 10.5242L7.73641 6.26074H6.26074V6.26084L11.9997 11.9998H11.9998C11.9998 11.9998 11.9998 10.9823 11.9998 10.5242Z" fill="#D80027"/>
<path d="M13.5652 7.82571V11.9996C13.5652 14.7952 17.2174 15.6518 17.2174 15.6518C17.2174 15.6518 20.8695 14.7952 20.8695 11.9996V7.82571L17.2174 6.78223L13.5652 7.82571Z" fill="#F3F3F3"/>
<path d="M20.8695 7.82595V6.26074H13.5652V7.82595H16.6955V10.9564H13.5652V11.9998V11.9999L16.6955 12V15.492C17.0105 15.6034 17.2174 15.6521 17.2174 15.6521C17.2174 15.6521 17.4242 15.6035 17.739 15.492V11.9999H20.8695V11.9998V10.9564H17.739V7.8259H20.8695V7.82595Z" fill="#D80027"/>
</g>
<defs>
<clipPath id="clip0_151_1790">
<rect width="24" height="24" fill="white"/>
</clipPath>
</defs>
</svg>
