<svg width="24" height="24" viewBox="0 0 24 24" fill="none" xmlns="http://www.w3.org/2000/svg">
<g clip-path="url(#clip0_151_2438)">
<path d="M11.9999 24C18.6273 24 23.9999 18.6274 23.9999 12C23.9999 5.37258 18.6273 0 11.9999 0C5.37246 0 -0.00012207 5.37258 -0.00012207 12C-0.00012207 18.6274 5.37246 24 11.9999 24Z" fill="#338AF3"/>
<path d="M11.6217 19.5563C11.2982 19.5406 11.0305 19.3304 10.9257 19.0449C10.7405 19.2865 10.4222 19.4081 10.1087 19.3272C9.79455 19.2464 9.57494 18.9865 9.52952 18.6849C9.29889 18.8842 8.96289 18.9384 8.67231 18.7961C8.38117 18.6531 8.21842 18.3541 8.23511 18.0499C7.96956 18.1991 7.62939 18.1845 7.37322 17.9863C7.11756 17.788 7.01791 17.463 7.09511 17.1682C6.805 17.261 6.47528 17.1786 6.26397 16.9328C6.05266 16.6876 6.02027 16.349 6.15494 16.0762C5.85231 16.1085 5.54556 15.9614 5.38797 15.6786C5.22986 15.3958 5.26642 15.0572 5.45369 14.8166C5.15055 14.7874 4.87923 14.5813 4.7822 14.2725C4.68466 13.9636 4.789 13.6391 5.02117 13.4413C4.73003 13.3515 4.50672 13.0948 4.47386 12.773C4.441 12.4511 4.60797 12.1553 4.87455 12.0081C4.60792 11.862 4.43992 11.5662 4.47175 11.2448H4.47227C4.50409 10.9223 4.72741 10.6652 5.01798 10.5743C4.78581 10.3771 4.68044 10.0531 4.77695 9.74424C4.87347 9.43486 5.14422 9.22824 5.44741 9.19795C5.26009 8.95795 5.22255 8.61928 5.37958 8.33606C5.53661 8.05327 5.84341 7.90561 6.14655 7.93744C6.01089 7.66458 6.04272 7.32595 6.25352 7.07972C6.4638 6.834 6.79352 6.75103 7.08414 6.84286C7.00586 6.54858 7.105 6.22303 7.36066 6.02428C7.6158 5.82544 7.95597 5.8103 8.22152 5.95847C8.20431 5.65435 8.36655 5.35533 8.65717 5.21185C8.94728 5.06888 9.2838 5.12213 9.51489 5.32139C9.55923 5.01989 9.77889 4.75903 10.0924 4.67756C10.4055 4.59619 10.7238 4.7167 10.9095 4.95774C11.0143 4.67236 11.2815 4.46156 11.605 4.44539C11.9279 4.42875 12.2148 4.61025 12.3484 4.8832C12.5081 4.62441 12.8117 4.47103 13.1316 4.51955C13.4519 4.56755 13.6977 4.80333 13.7739 5.09817C13.9825 4.87585 14.3112 4.78772 14.6149 4.89933C14.9191 5.0115 15.1121 5.29219 15.1267 5.59688C15.3756 5.42161 15.7157 5.40122 15.9907 5.57236C16.2657 5.74299 16.3977 6.05653 16.3507 6.35756C16.6299 6.23602 16.9669 6.28453 17.2017 6.50677C17.4365 6.72956 17.5032 7.06294 17.3968 7.34831C17.6947 7.28517 18.0151 7.39997 18.2008 7.66552C18.3865 7.93055 18.385 8.27072 18.2238 8.529C18.528 8.52689 18.8186 8.70431 18.9475 9.00117C19.0758 9.29855 19.0053 9.63197 18.7951 9.85266C19.0941 9.91214 19.3429 10.1443 19.4087 10.4615C19.4739 10.7787 19.3377 11.0902 19.0878 11.264C19.3675 11.3825 19.5647 11.6595 19.5652 11.9829V11.9934V12.0002C19.5652 12.3236 19.369 12.6012 19.0893 12.7207C19.3398 12.8934 19.477 13.2049 19.4118 13.5221C19.3471 13.8393 19.0988 14.072 18.7998 14.1325C19.0106 14.3527 19.0821 14.6856 18.9543 14.9835C18.8264 15.2809 18.5358 15.4588 18.2311 15.4572C18.3928 15.7155 18.3955 16.0557 18.2102 16.3212C18.025 16.5869 17.7052 16.7026 17.4073 16.64C17.5142 16.9249 17.448 17.2588 17.2137 17.4821C16.9789 17.705 16.6424 17.754 16.3633 17.6334C16.4108 17.934 16.2793 18.2481 16.0048 18.4197C15.7304 18.5914 15.3902 18.5715 15.1408 18.3968C15.1267 18.7014 14.9347 18.9827 14.6311 19.0954C14.3275 19.2081 14.6311 19.0954 14.6306 19.0954C14.3269 19.2075 13.9983 19.1199 13.789 18.8982C13.7139 19.1935 13.4687 19.4298 13.1484 19.4789C12.8285 19.5274 12.5244 19.3751 12.3642 19.1163C12.2369 19.3787 11.9677 19.5571 11.6609 19.5571C11.6478 19.5573 11.6348 19.5568 11.6217 19.5563Z" fill="#F3F3F3"/>
<path d="M11.9998 17.217C14.8813 17.217 17.2172 14.8811 17.2172 11.9996C17.2172 9.11812 14.8813 6.78223 11.9998 6.78223C9.11837 6.78223 6.78247 9.11812 6.78247 11.9996C6.78247 14.8811 9.11837 17.217 11.9998 17.217Z" fill="#338AF3"/>
<path d="M13.1419 10.2291C13.3982 10.039 13.5651 9.73506 13.5651 9.39138V8.86966C13.5651 8.29333 13.0979 7.82617 12.5216 7.82617H11.4782C10.9018 7.82617 10.4347 8.29333 10.4347 8.86966V9.39138C10.4347 9.73506 10.6016 10.039 10.8579 10.2291L9.91296 19.8261C9.91296 19.8261 10.4347 20.3479 11.9999 20.3479C13.5652 20.3479 14.0869 19.8261 14.0869 19.8261L13.1419 10.2291Z" fill="#BDBCC1"/>
<path d="M11.9998 7.82617L12.9062 10.6161H15.8399L13.4666 12.3405L14.373 15.1305L11.9998 13.4062L9.62639 15.1305L10.533 12.3405L8.15967 10.6161H11.0932L11.9998 7.82617Z" fill="#F0F0F0"/>
</g>
<defs>
<clipPath id="clip0_151_2438">
<rect width="24" height="24" fill="white"/>
</clipPath>
</defs>
</svg>
