<svg width="24" height="24" viewBox="0 0 24 24" fill="none" xmlns="http://www.w3.org/2000/svg">
<g clip-path="url(#clip0_151_1934)">
<path d="M23.9998 12C23.9998 18.6274 18.6271 24 11.9998 24C5.37238 24 -0.000244141 18.6274 -0.000244141 12C-0.000244141 5.37262 11.9998 0 11.9998 0C11.9998 0 23.9998 5.37262 23.9998 12Z" fill="#A2001D"/>
<path d="M-0.000244141 12C-0.000244141 5.37262 5.37238 0 11.9998 0C18.6271 0 23.9998 5.37262 23.9998 12" fill="#0052B4"/>
<path d="M16.1738 15.13L11.9999 14.6083L7.82605 15.13V8.86914H16.1738V15.13Z" fill="#F0F0F0"/>
<path d="M11.9999 14.6085C13.1525 14.6085 14.0869 13.6741 14.0869 12.5215C14.0869 11.3689 13.1525 10.4346 11.9999 10.4346C10.8473 10.4346 9.91296 11.3689 9.91296 12.5215C9.91296 13.6741 10.8473 14.6085 11.9999 14.6085Z" fill="#0052B4"/>
<path d="M12 13.5655C12.5763 13.5655 13.0435 13.0983 13.0435 12.522C13.0435 11.9457 12.5763 11.4785 12 11.4785C11.4237 11.4785 10.9565 11.9457 10.9565 12.522C10.9565 13.0983 11.4237 13.5655 12 13.5655Z" fill="#A2001D"/>
<path d="M10.4348 9.91309H13.5652L12 11.4783L10.4348 9.91309Z" fill="#6DA544"/>
<path d="M11.4781 10.9561H12.5216V14.0865H11.4781V10.9561Z" fill="#FFDA44"/>
<path d="M13.6695 13.7734H10.3303L7.82605 15.13H16.1738L13.6695 13.7734Z" fill="#6DA544"/>
</g>
<defs>
<clipPath id="clip0_151_1934">
<rect width="24" height="24" fill="white"/>
</clipPath>
</defs>
</svg>
