<svg width="24" height="24" viewBox="0 0 24 24" fill="none" xmlns="http://www.w3.org/2000/svg">
<g clip-path="url(#clip0_151_2431)">
<path d="M11.9998 24C18.6272 24 23.9998 18.6274 23.9998 12C23.9998 5.37258 18.6272 0 11.9998 0C5.37234 0 -0.000244141 5.37258 -0.000244141 12C-0.000244141 18.6274 5.37234 24 11.9998 24Z" fill="#F0F0F0"/>
<path d="M2.90326 4.17383C2.48219 4.66287 2.09992 5.18614 1.76111 5.73903H22.2385C21.8997 5.18614 21.5175 4.66283 21.0964 4.17383H2.90326Z" fill="#D80027"/>
<path d="M2.90334 19.8259H21.0965C21.5176 19.3369 21.8999 18.8136 22.2387 18.2607H1.76123C2.1 18.8136 2.48226 19.3369 2.90334 19.8259Z" fill="#D80027"/>
<path d="M10.4643 9.80566L11.4488 11.1625L13.0434 10.6454L12.0573 12.0011L13.0417 13.3578L11.4478 12.8388L10.4617 14.1944L10.4626 12.5181L8.86865 11.9991L10.4632 11.4821L10.4643 9.80566Z" fill="#D80027"/>
<path d="M7.77718 15.3914C5.90425 15.3914 4.38587 13.873 4.38587 12.0001C4.38587 10.1272 5.90425 8.6088 7.77718 8.6088C8.36115 8.6088 8.91067 8.75645 9.39039 9.01642C8.63781 8.28044 7.60858 7.82617 6.47284 7.82617C4.16762 7.82617 2.29895 9.69489 2.29895 12.0001C2.29895 14.3052 4.16767 16.174 6.47284 16.174C7.60858 16.174 8.63781 15.7197 9.39039 14.9837C8.91067 15.2438 8.3612 15.3914 7.77718 15.3914Z" fill="#D80027"/>
</g>
<defs>
<clipPath id="clip0_151_2431">
<rect width="24" height="24" fill="white"/>
</clipPath>
</defs>
</svg>
