<svg width="24" height="24" viewBox="0 0 24 24" fill="none" xmlns="http://www.w3.org/2000/svg">
<g clip-path="url(#clip0_151_2333)">
<path d="M12 24C18.6274 24 24 18.6274 24 12C24 5.37258 18.6274 0 12 0C5.37258 0 0 5.37258 0 12C0 18.6274 5.37258 24 12 24Z" fill="#0052B4"/>
<path d="M17.1498 12.8368C17.194 12.5642 17.2173 12.2846 17.2173 11.9997C17.2173 12.2846 17.194 12.5642 17.1498 12.8368L19.3042 11.9997L17.1498 11.1625L15.9665 10.7027L14.0439 9.95567L13.2968 8.03309C14.5566 8.44602 15.5534 9.4429 15.9664 10.7027L17.1498 11.1625C16.7922 8.95484 15.0446 7.20725 12.837 6.84969L11.9999 4.69531L11.1627 6.84973C8.95509 7.20739 7.20759 8.95489 6.84998 11.1625L4.69556 11.9997L6.85003 12.8368C7.20763 15.0445 8.95513 16.792 11.1628 17.1496L11.9999 19.304L12.8371 17.1496C15.0447 16.792 16.7922 15.0444 17.1498 12.8368ZM13.2378 10.7618L11.9999 11.9997H16.4233L13.2377 13.2375L11.9999 11.9997V16.4231L10.762 13.2375L11.9999 11.9997H7.57654L10.762 10.7618L11.9999 11.9997V7.5763L13.2378 10.7618ZM10.7029 8.03314L9.95582 9.95572L8.03334 10.7028C8.44626 9.44291 9.44315 8.44611 10.7029 8.03314ZM8.03338 13.2966L9.95582 14.0437L10.7029 15.9662C9.44315 15.5532 8.44635 14.5564 8.03338 13.2966ZM13.2969 15.9662L14.0439 14.0437L15.9664 13.2966C15.5534 14.5564 14.5566 15.5532 13.2969 15.9662Z" fill="#F0F0F0"/>
<path d="M16.4231 12.001H11.9998L13.2376 13.2389L16.4231 12.001Z" fill="#0052B4"/>
<path d="M7.57642 12.0005H11.9998L10.7619 10.7627L7.57642 12.0005Z" fill="#0052B4"/>
<path d="M11.9998 16.4244V12.001L10.762 13.2389L11.9998 16.4244Z" fill="#0052B4"/>
<path d="M11.9998 12.0005L13.2376 10.7627L11.9998 7.57715V12.0005Z" fill="#0052B4"/>
<path d="M11.4783 1.56543H12.5218V3.6524H11.4783V1.56543Z" fill="#F0F0F0"/>
<path d="M1.56519 11.4785H3.65215V12.522H1.56519V11.4785Z" fill="#F0F0F0"/>
<path d="M11.4783 20.3477H12.5218V22.4346H11.4783V20.3477Z" fill="#F0F0F0"/>
<path d="M20.3477 11.4785H22.4346V12.522H20.3477V11.4785Z" fill="#F0F0F0"/>
</g>
<defs>
<clipPath id="clip0_151_2333">
<rect width="24" height="24" fill="white"/>
</clipPath>
</defs>
</svg>
