<svg width="24" height="24" viewBox="0 0 24 24" fill="none" xmlns="http://www.w3.org/2000/svg">
<g clip-path="url(#clip0_151_2104)">
<path d="M12.0001 24C18.6275 24 24.0001 18.6274 24.0001 12C24.0001 5.37258 18.6275 0 12.0001 0C5.3727 0 0.00012207 5.37258 0.00012207 12C0.00012207 18.6274 5.3727 24 12.0001 24Z" fill="#F0F0F0"/>
<path d="M12.0001 0C6.45573 0 1.79045 3.76036 0.413452 8.86955H23.5867C22.2097 3.76036 17.5444 0 12.0001 0Z" fill="#A2001D"/>
<path d="M12.0001 24.0004C17.5444 24.0004 22.2097 20.24 23.5867 15.1309H0.413452C1.79045 20.24 6.45573 24.0004 12.0001 24.0004Z" fill="#A2001D"/>
</g>
<defs>
<clipPath id="clip0_151_2104">
<rect width="24" height="24" fill="white"/>
</clipPath>
</defs>
</svg>
