<svg width="24" height="24" viewBox="0 0 24 24" fill="none" xmlns="http://www.w3.org/2000/svg">
<g clip-path="url(#clip0_151_2540)">
<path d="M0 11.9997C0 17.1592 3.2565 21.5577 7.82601 23.2533L8.86955 11.9997L7.82601 0.746094C3.2565 2.44166 0 6.84012 0 11.9997Z" fill="#6DA544"/>
<path d="M23.9999 12C23.9999 5.37262 18.6273 0 11.9999 0C10.5321 0 9.12596 0.264047 7.82593 0.746391V23.2536C9.12596 23.736 10.5321 24 11.9999 24C18.6273 24 23.9999 18.6274 23.9999 12Z" fill="#D80027"/>
<path d="M7.82623 16.174C10.1314 16.174 12.0001 14.3052 12.0001 12.0001C12.0001 9.69489 10.1314 7.82617 7.82623 7.82617C5.52106 7.82617 3.65234 9.69489 3.65234 12.0001C3.65234 14.3052 5.52106 16.174 7.82623 16.174Z" fill="#FFDA44"/>
<path d="M5.47827 9.91309V12.5218C5.47827 13.8184 6.5294 14.8696 7.8261 14.8696C9.1228 14.8696 10.1739 13.8185 10.1739 12.5218V9.91309H5.47827Z" fill="#D80027"/>
<path d="M7.82608 13.3046C7.39455 13.3046 7.04346 12.9535 7.04346 12.522V11.4785H8.60866V12.522C8.60866 12.9535 8.25757 13.3046 7.82608 13.3046Z" fill="#F0F0F0"/>
</g>
<defs>
<clipPath id="clip0_151_2540">
<rect width="24" height="24" fill="white"/>
</clipPath>
</defs>
</svg>
