<svg width="24" height="24" viewBox="0 0 24 24" fill="none" xmlns="http://www.w3.org/2000/svg">
<g clip-path="url(#clip0_151_3152)">
<path d="M12 24C18.6274 24 24 18.6274 24 12C24 5.37258 18.6274 0 12 0C5.37258 0 0 5.37258 0 12C0 18.6274 5.37258 24 12 24Z" fill="#FCFCFC"/>
<path d="M14.0383 8.38373C14.0383 7.25817 13.1258 6.3457 12.0002 6.3457C10.8746 6.3457 9.96216 7.25817 9.96216 8.38373H5.47852C5.47852 9.49191 6.44386 10.3904 7.55203 10.3904H7.48528C7.48528 11.4986 8.38359 12.3971 9.49195 12.3971C9.49195 13.3784 10.1967 14.1937 11.1274 14.368L11.1222 14.3797H12.8783L12.8731 14.368C13.8039 14.1936 14.5086 13.3783 14.5086 12.3971C15.6169 12.3971 16.5152 11.4986 16.5152 10.3904H16.4484C17.5566 10.3904 18.522 9.49191 18.522 8.38373H14.0383Z" fill="#FFDA44"/>
<path d="M11.1045 14.1719L9.84082 17.0248C10.5076 17.2959 11.2363 17.4465 12.0004 17.4465C12.7646 17.4465 13.4933 17.2959 14.16 17.0248L12.8964 14.1719H11.1045Z" fill="#FFDA44"/>
<path d="M9.3916 9.38574V12.8963C9.3916 14.893 12.0003 15.5049 12.0003 15.5049C12.0003 15.5049 14.609 14.893 14.609 12.8963V9.38574H9.3916Z" fill="#F0F0F0"/>
<path d="M2.91024 12.085L4.32113 16.0311L5.71735 12.085H6.78291L4.74732 17.3023H3.8949L1.84473 12.085H2.91024Z" fill="#338AF3"/>
<path d="M19.3047 17.3023V12.085H20.3187V17.3023H19.3047Z" fill="#338AF3"/>
<path d="M10.4351 10.5195V14.7736C10.7937 15.0376 11.1796 15.2191 11.4785 15.3354V10.5195H10.4351Z" fill="#D80027"/>
<path d="M13.5655 10.5195V14.7736C13.2068 15.0376 12.8209 15.2191 12.522 15.3354V10.5195H13.5655Z" fill="#D80027"/>
<path d="M9.3916 9.38574H14.609V11.0412H9.3916V9.38574Z" fill="#0052B4"/>
</g>
<defs>
<clipPath id="clip0_151_3152">
<rect width="24" height="24" fill="white"/>
</clipPath>
</defs>
</svg>
